<mxfile host="app.diagrams.net" modified="2021-08-31T10:29:02.429Z" agent="5.0 (Macintosh; Intel Mac OS X 10_15_7) AppleWebKit/537.36 (KHTML, like Gecko) Chrome/92.0.4515.159 Safari/537.36" etag="vDOncghFOG15XwgVLBuo" version="15.0.3" type="github">
  <diagram id="ZsLGjviPtWymdEtn8Dz3" name="Page-1">
    <mxGraphModel dx="445" dy="952" grid="1" gridSize="10" guides="1" tooltips="1" connect="1" arrows="1" fold="1" page="1" pageScale="1" pageWidth="827" pageHeight="1169" math="0" shadow="0">
      <root>
        <mxCell id="0" />
        <mxCell id="1" parent="0" />
        <mxCell id="B_TraMHUqtUnfu66EwRG-4" style="edgeStyle=orthogonalEdgeStyle;rounded=0;orthogonalLoop=1;jettySize=auto;html=1;exitX=0.5;exitY=1;exitDx=0;exitDy=0;entryX=0.5;entryY=0;entryDx=0;entryDy=0;" edge="1" parent="1" source="B_TraMHUqtUnfu66EwRG-1" target="B_TraMHUqtUnfu66EwRG-2">
          <mxGeometry relative="1" as="geometry" />
        </mxCell>
        <mxCell id="B_TraMHUqtUnfu66EwRG-1" value="Read Map file" style="rounded=0;whiteSpace=wrap;html=1;" vertex="1" parent="1">
          <mxGeometry x="140" y="90" width="120" height="30" as="geometry" />
        </mxCell>
        <mxCell id="B_TraMHUqtUnfu66EwRG-11" style="edgeStyle=orthogonalEdgeStyle;rounded=0;orthogonalLoop=1;jettySize=auto;html=1;exitX=0.5;exitY=1;exitDx=0;exitDy=0;entryX=0.5;entryY=0;entryDx=0;entryDy=0;" edge="1" parent="1" source="B_TraMHUqtUnfu66EwRG-2" target="B_TraMHUqtUnfu66EwRG-10">
          <mxGeometry relative="1" as="geometry" />
        </mxCell>
        <mxCell id="B_TraMHUqtUnfu66EwRG-2" value="3D fourier map" style="rounded=0;whiteSpace=wrap;html=1;" vertex="1" parent="1">
          <mxGeometry x="140" y="170" width="120" height="30" as="geometry" />
        </mxCell>
        <mxCell id="B_TraMHUqtUnfu66EwRG-5" value="fft.fftn(fft.fftshift())" style="text;html=1;align=center;verticalAlign=middle;resizable=0;points=[];autosize=1;strokeColor=none;" vertex="1" parent="1">
          <mxGeometry x="220" y="130" width="110" height="20" as="geometry" />
        </mxCell>
        <mxCell id="B_TraMHUqtUnfu66EwRG-7" value="3D Numpy Matrix" style="text;html=1;align=center;verticalAlign=middle;resizable=0;points=[];autosize=1;strokeColor=none;" vertex="1" parent="1">
          <mxGeometry x="260" y="90" width="110" height="20" as="geometry" />
        </mxCell>
        <mxCell id="B_TraMHUqtUnfu66EwRG-8" value="3D Numpy Matrix" style="text;html=1;align=center;verticalAlign=middle;resizable=0;points=[];autosize=1;strokeColor=none;" vertex="1" parent="1">
          <mxGeometry x="260" y="170" width="110" height="20" as="geometry" />
        </mxCell>
        <mxCell id="B_TraMHUqtUnfu66EwRG-10" value="Create 3D bandblock filter" style="rounded=0;whiteSpace=wrap;html=1;" vertex="1" parent="1">
          <mxGeometry x="125" y="250" width="150" height="30" as="geometry" />
        </mxCell>
        <mxCell id="B_TraMHUqtUnfu66EwRG-13" value="with soft edge" style="text;html=1;align=center;verticalAlign=middle;resizable=0;points=[];autosize=1;strokeColor=none;" vertex="1" parent="1">
          <mxGeometry x="410" y="255" width="90" height="20" as="geometry" />
        </mxCell>
        <mxCell id="B_TraMHUqtUnfu66EwRG-14" value="" style="shape=image;verticalLabelPosition=bottom;labelBackgroundColor=#ffffff;verticalAlign=top;aspect=fixed;imageAspect=0;image=data:image/png,iVBORw0KGgoAAAANSUhEUgAAA7gAAAOeCAYAAAApzLxwAAAMa2lDQ1BJQ0MgUHJvZmlsZQAASImVVwdYU8kWnluSkJDQAqFICb0J0quUEFoAAamCjZAEEkqMCUHFhmVRwbWLCFZ0VUTR1RWQRUXsZVHsfbGgoqyLuiiKypuQgK77yvfO982dP2fO/Kdk5t4ZADT7uBJJHqoFQL64QJoQEcIcl5bOJHUCEtAHFMAERC5PJmHFx8cAKEP93+XdDYAo+qtOCq5/jv9X0eELZDwAkAkQZ/JlvHyIWwDAN/Ak0gIAiAq95bQCiQIXQ6wrhQFCvEaBs5V4lwJnKnHzoE1SAhviywCoUblcaTYAGvegnlnIy4Y8Gp8gdhHzRWIANEdCHMgTcvkQK2IfmZ8/RYErILaD9hKIYTzAJ/Mbzuy/8WcO83O52cNYmdegqIWKZJI87oz/szT/W/Lz5EM+bGCjCqWRCYr8YQ1v5U6JVmAqxN3izNg4Ra0h7hPxlXUHAKUI5ZHJSnvUmCdjw/oBBsQufG5oNMTGEIeL82JjVPrMLFE4B2K4WtDpogJOEsQGEC8WyMISVTZbpFMSVL7Q+iwpm6XSn+VKB/0qfD2Q5yazVPxvhAKOih/TKBImpUJMgdiqUJQSC7EGxM6y3MRolc3oIiE7dshGKk9QxG8FcYJAHBGi5McKs6ThCSr70nzZUL7YFqGIE6vCBwqESZHK+mAnedzB+GEu2GWBmJU8xCOQjYsZyoUvCA1T5o49F4iTE1U8fZKCkATlXJwiyYtX2eMWgrwIhd4CYg9ZYaJqLp5SABenkh/PkhTEJynjxItyuFHxynjwFSAGsEEo3H1y2DLBFJADRG3dDd3wl3IkHHCBFGQDAXBSaYZmpA6OiOEzERSBPyASANnwvJDBUQEohPrPw1rl0wlkDY4WDs7IBU8hzgfRIA/+lg/OEg97SwFPoEb0D+9c2Hgw3jzYFOP/Xj+k/aphQU2MSiMf8sjUHLIkhhFDiZHEcKI9boQH4v54DHwGw+aG++C+Q3l8tSc8JbQTHhGuEzoItyeL5ku/i3IM6ID84apaZH5bC9wGcnriIXgAZIfMOAM3Ak64B/TDwoOgZ0+oZaviVlSF+R333zL45t9Q2ZFdyChZnxxMtvt+poaDhucwi6LW39ZHGWvmcL3ZwyPf+2d/U30+7KO/t8QWYwexM9hx7BzWjDUAJnYMa8QuYkcUeHh1PRlcXUPeEgbjyYU8on/446p8Kiopc6l16XL5pBwrEEwvUGw89hTJDKkoW1jAZMGvg4DJEfOcRzLdXNxcAVB8a5Svr7eMwW8Iwjj/VbfAHICAGQMDA81fddHwnXvwCNz+d77qbDvha+I8AGfX8eTSQqUOVzwI8C2hCXeaITAFlsAO5uMGvIA/CAZhIArEgSSQBibBKgvhOpeCaWAWmAdKQBlYAdaCSrAZbAO7wF5wADSAZnAcnAYXwGVwHdyFq6cTvAQ94B3oRxCEhNAQOmKImCHWiCPihvgggUgYEoMkIGlIBpKNiBE5MgtZgJQhq5BKZCtSg/yMHEaOI+eQduQ28hDpQt4gH1EMpaK6qAlqg45CfVAWGo0moRPRbHQqWoQuRJehFWg1ugetR4+jF9DraAf6Eu3FAKaOMTBzzAnzwdhYHJaOZWFSbA5WipVj1Vgd1gT/56tYB9aNfcCJOB1n4k5wBUfiyTgPn4rPwZfilfguvB4/iV/FH+I9+BcCjWBMcCT4ETiEcYRswjRCCaGcsINwiHAK7qVOwjsikcgg2hK94V5MI+YQZxKXEjcS9xFbiO3Ex8ReEolkSHIkBZDiSFxSAamEtJ60h3SMdIXUSepTU1czU3NTC1dLVxOrzVcrV9utdlTtitoztX6yFtma7EeOI/PJM8jLydvJTeRL5E5yP0WbYksJoCRRcijzKBWUOsopyj3KW3V1dQt1X/Wx6iL1YvUK9f3qZ9Ufqn+g6lAdqGzqBKqcuoy6k9pCvU19S6PRbGjBtHRaAW0ZrYZ2gvaA1qdB13DW4GjwNeZqVGnUa1zReKVJ1rTWZGlO0izSLNc8qHlJs1uLrGWjxdbias3RqtI6rHVTq1ebru2qHaedr71Ue7f2Oe3nOiQdG50wHb7OQp1tOid0HtMxuiWdTefRF9C300/RO3WJura6HN0c3TLdvbptuj16Onoeeil60/Wq9I7odTAwhg2Dw8hjLGccYNxgfNQ30WfpC/SX6NfpX9F/bzDCINhAYFBqsM/gusFHQ6ZhmGGu4UrDBsP7RriRg9FYo2lGm4xOGXWP0B3hP4I3onTEgRF3jFFjB+ME45nG24wvGveamJpEmEhM1pucMOk2ZZgGm+aYrjE9atplRjcLNBOZrTE7ZvaCqcdkMfOYFcyTzB5zY/NIc7n5VvM2834LW4tki/kW+yzuW1IsfSyzLNdYtlr2WJlZjbGaZVVrdceabO1jLbReZ33G+r2NrU2qzSKbBpvntga2HNsi21rbe3Y0uyC7qXbVdtfsifY+9rn2G+0vO6AOng5ChyqHS46oo5ejyHGjY/tIwkjfkeKR1SNvOlGdWE6FTrVOD50ZzjHO850bnF+NshqVPmrlqDOjvrh4uuS5bHe566rjGuU637XJ9Y2bgxvPrcrtmjvNPdx9rnuj+2sPRw+BxyaPW550zzGeizxbPT97eXtJveq8urytvDO8N3jf9NH1ifdZ6nPWl+Ab4jvXt9n3g5+XX4HfAb8//Z38c/13+z8fbTtaMHr76McBFgHcgK0BHYHMwIzALYEdQeZB3KDqoEfBlsH84B3Bz1j2rBzWHtarEJcQacihkPdsP/ZsdksoFhoRWhraFqYTlhxWGfYg3CI8O7w2vCfCM2JmREskITI6cmXkTY4Jh8ep4fREeUfNjjoZTY1OjK6MfhTjECONaRqDjokas3rMvVjrWHFsQxyI48Stjrsfbxs/Nf7XscSx8WOrxj5NcE2YlXAmkZ44OXF34rukkKTlSXeT7ZLlya0pmikTUmpS3qeGpq5K7Rg3atzscRfSjNJEaY3ppPSU9B3pvePDxq8d3znBc0LJhBsTbSdOn3huktGkvElHJmtO5k4+mEHISM3YnfGJG8et5vZmcjI3ZPbw2Lx1vJf8YP4afpcgQLBK8CwrIGtV1vPsgOzV2V3CIGG5sFvEFlWKXudE5mzOeZ8bl7szdyAvNW9fvlp+Rv5hsY44V3xyiumU6VPaJY6SEknHVL+pa6f2SKOlO2SIbKKssUAXHuovyu3kP8gfFgYWVhX2TUuZdnC69nTx9IszHGYsmfGsKLzop5n4TN7M1lnms+bNejibNXvrHGRO5pzWuZZzF87tLI4o3jWPMi933m/zXeavmv/XgtQFTQtNFhYvfPxDxA+1JRol0pKbi/wXbV6MLxYtblvivmT9ki+l/NLzZS5l5WWflvKWnv/R9ceKHweWZS1rW+61fNMK4grxihsrg1buWqW9qmjV49VjVtevYa4pXfPX2slrz5V7lG9eR1knX9dREVPRuN5q/Yr1nyqFlderQqr2bTDesGTD+438jVc2BW+q22yyuWzzxy2iLbe2Rmytr7apLt9G3Fa47en2lO1nfvL5qWaH0Y6yHZ93ind27ErYdbLGu6Zmt/Hu5bVorby2a8+EPZf3hu5trHOq27qPsa9sP9gv3//i54yfbxyIPtB60Odg3S/Wv2w4RD9UWo/Uz6jvaRA2dDSmNbYfjjrc2uTfdOhX5193Nps3Vx3RO7L8KOXowqMDx4qO9bZIWrqPZx9/3Dq59e6JcSeunRx7su1U9Kmzp8NPnzjDOnPsbMDZ5nN+5w6f9znfcMHrQv1Fz4uHfvP87VCbV1v9Je9LjZd9Lze1j24/eiXoyvGroVdPX+Ncu3A99nr7jeQbt25OuNlxi3/r+e2826/vFN7pv1t8j3Cv9L7W/fIHxg+qf7f/fV+HV8eRh6EPLz5KfHT3Me/xyyeyJ586Fz6lPS1/Zvas5rnb8+au8K7LL8a/6HwpednfXfKH9h8bXtm9+uXP4D8v9ozr6XwtfT3wZulbw7c7//L4q7U3vvfBu/x3/e9L+wz7dn3w+XDmY+rHZ/3TPpE+VXy2/9z0JfrLvYH8gQEJV8odPApgsKFZWQC82QkALQ0AOjxDUMYr74KDgijvr4MI/CesvC8OihcAdbBTHOPZLQDsh82mGHLDXnGETwoGqLv7cFOJLMvdTclFhTchQt/AwFsTAEhNAHyWDgz0bxwY+LwdBnsbgJapyjuoQojwzrAlVIFur55YDL4T5f30mxy/74EiAg/wff8vDLKRTuwtKccAAACKZVhJZk1NACoAAAAIAAQBGgAFAAAAAQAAAD4BGwAFAAAAAQAAAEYBKAADAAAAAQACAACHaQAEAAAAAQAAAE4AAAAAAAAAkAAAAAEAAACQAAAAAQADkoYABwAAABIAAAB4oAIABAAAAAEAAAO4oAMABAAAAAEAAAOeAAAAAEFTQ0lJAAAAU2NyZWVuc2hvdA4PylcAAAAJcEhZcwAAFiUAABYlAUlSJPAAAAHWaVRYdFhNTDpjb20uYWRvYmUueG1wAAAAAAA8eDp4bXBtZXRhIHhtbG5zOng9ImFkb2JlOm5zOm1ldGEvIiB4OnhtcHRrPSJYTVAgQ29yZSA2LjAuMCI+CiAgIDxyZGY6UkRGIHhtbG5zOnJkZj0iaHR0cDovL3d3dy53My5vcmcvMTk5OS8wMi8yMi1yZGYtc3ludGF4LW5zIyI+CiAgICAgIDxyZGY6RGVzY3JpcHRpb24gcmRmOmFib3V0PSIiCiAgICAgICAgICAgIHhtbG5zOmV4aWY9Imh0dHA6Ly9ucy5hZG9iZS5jb20vZXhpZi8xLjAvIj4KICAgICAgICAgPGV4aWY6UGl4ZWxZRGltZW5zaW9uPjkyNjwvZXhpZjpQaXhlbFlEaW1lbnNpb24+CiAgICAgICAgIDxleGlmOlBpeGVsWERpbWVuc2lvbj45NTI8L2V4aWY6UGl4ZWxYRGltZW5zaW9uPgogICAgICAgICA8ZXhpZjpVc2VyQ29tbWVudD5TY3JlZW5zaG90PC9leGlmOlVzZXJDb21tZW50PgogICAgICA8L3JkZjpEZXNjcmlwdGlvbj4KICAgPC9yZGY6UkRGPgo8L3g6eG1wbWV0YT4KwkTTGgAAABxpRE9UAAAAAgAAAAAAAAHPAAAAKAAAAc8AAAHPAACU9QVI3rgAAEAASURBVHgB7N0JeGRVmf/xt5JUVfZ97fS+d7PYzaai/gUUYRiVxUHFERD1cUdcHh5wQ+ZxBx1BUNxGB/BRcQOXUXkUdEYGHdYGeqHpvTtLJ519T6qS+r/nJFUk6UpSnVSqbt37vXq4tdy6y+eeFn99zj3HF9FFWBBAAAEEEEAAAQQQQAABBBDIcAEfATfD7yCnjwACCCCAAAIIIIAAAgggYAUIuFQEBBBAAAEEEEAAAQQQQAABVwgQcF1xG7kIBBBAAAEEEEAAAQQQQAABAi51AAEEEEAAAQQQQAABBBBAwBUCBFxX3EYuAgEEEEAAAQQQQAABBBBAgIBLHUAAAQQQQAABBBBAAAEEEHCFAAHXFbeRi0AAAQQQQAABBBBAAAEEECDgUgcQQAABBBBAAAEEEEAAAQRcIUDAdcVt5CIQQAABBBBAAAEEEEAAAQQIuNQBBBBAAAEEEEAAAQQQQAABVwgQcF1xG7kIBBBAAAEEEEAAAQQQQAABAi51AAEEEEAAAQQQQAABBBBAwBUCBFxX3EYuAgEEEEAAAQQQQAABBBBAgIBLHUAAAQQQQAABBBBAAAEEEHCFAAHXFbeRi0AAAQQQQAABBBBAAAEEECDgUgcQQAABBBBAAAEEEEAAAQRcIUDAdcVt5CIQQAABBBBAAAEEEEAAAQQIuNQBBBBAAAEEEEAAAQQQQAABVwgQcF1xG7kIBBBAAAEEEEAAAQQQQAABAi51AAEEEEAAAQQQQAABBBBAwBUCBFxX3EYuAgEEEEAAAQQQQAABBBBAgIBLHUAAAQQQQAABBBBAAAEEEHCFAAHXFbeRi0AAAQQQQAABBBBAAAEEECDgUgcQQAABBBBAAAEEEEAAAQRcIUDAdcVt5CIQQAABBBBAAAEEEEAAAQQIuNQBBBBAAAEEEEAAAQQQQAABVwgQcF1xG7kIBBBAAAEEEEAAAQQQQAABAi51AAEEEEAAAQQQQAABBBBAwBUCBFxX3EYuAgEEEEAAAQQQQAABBBBAgIBLHUAAAQQQQAABBBBAAAEEEHCFAAHXFbeRi0AAAQQQQAABBBBAAAEEECDgUgcQQAABBBBAAAEEEEAAAQRcIUDAdcVt5CIQQAABBBBAAAEEEEAAAQQIuNQBBBBAAAEEEEAAAQQQQAABVwgQcF1xG7kIBBBAAAEEEEAAAQQQQAABAi51AAEEEEAAAQQQQAABBBBAwBUCBFxX3EYuAgEEEEAAAQQQQAABBBBAgIBLHUAAAQQQQAABBBBAAAEEEHCFAAHXFbeRi0AAAQQQQAABBBBAAAEEECDgLlIdeOihh+TAgQOya9cuGRkZkfr6ejnttNPkda973SIdkd0igAACCCCAAAIIIIAAAt4WIOAm+f4/+OCDcs8998gTTzwRd8+nnHKKfPaznxWzZkEAAQQQQAABBBBAAAEEEEieAAE3eZZy5513yh133DHnHqurq+WWW26Rl7/85XNuywYIIIAAAggggAACCCCAAAKJCRBwE3Oac6vp4fbCCy+Uf/qnf5ItW7ZIT0+P/Pa3v5Uf/vCHEgqF7L6CwaB89atfpcvynLJsgAACCCCAAAIIIIAAAggkJkDATcxp1q327t0rF198sYTDYbudCbe33377cb/529/+Jp/+9Kfl6NGj9jvzTO5PfvKT47bjAwQQQAABBBBAAAEEEEAAgRMXIOCeuNlxv7j11lvl+9//vv28pKREfv3rX0tdXd1x25kPduzYIZdddlnsu29961vymte8JvaeFwgggAACCCCAAAIIIIAAAvMTIODOzy32q/7+ftvNuK2tzX521VVXyac+9anY9/Fe3HTTTXLffffZr2Zq7Y33Oz5DAAEEEEAAAQQQQAABBBCYWYCAO7NNQt889thjcuWVV8a2NV2OTdfj2ZannnpKrrjiitgmv/jFLxhVOabBCwQQQAABBBBAAAEEEEBgfgIE3Pm5xX71gx/8QL7yla/E3pvAa7opz7Z0d3fLWWedFdvkc5/7nLz5zW+OvecFAggggAACCCCAAAIIIIDAiQsQcE/cbMovPv7xj8vvfvc7+1l9fb08/PDDU76f6c15550njY2N9ut3vOMd8olPfGKmTfkcAQQQQAABBBBAAAEEEEAgAQECbgJIs23ylre8RbZt22Y3Ofvss+1UQLNtH/3ummuukUcffdS+ffWrXy3f/e53o1+xRgABBBBAAAEEEEAAAQQQmIcAAXceaJN/ctFFF8m+ffvsRxdccIF84xvfmPz1jK8//OEPy4MPPmi/P+mkk+RXv/rVjNvyBQIIIIAAAggggAACCCCAwNwCBNy5jWbd4lWvepW0trbabS6//HL5/Oc/P+v20S/NfLg///nP7dsT6doc/T1rBBBAAAEEEEAAAQQQQACBqQIE3KkeJ/xu69atMjAwYH/3zne+U2644YaE9mEGpjIDVJmlsLBQnnzyyYR+x0YIIIAAAggggAACCCCAAALxBQi48V0S/nTz5s0yOjpqt3//+98vH/nIRxL67W233SZ33XWX3TY7O1t27tyZ0O/YCAEEEEAAAQQQQAABBBBAIL4AATe+S8KfnnnmmdLT02O3f/vb3y6f+cxnEvqtmRroRz/6kd3WTCtkphdy0hKJRGTd+pc76ZQ4FwQQQAABBBBAAAEEEJhD4JZbbpLLLr1ojq3c+zUBd4H39txzz5Wmpia7lze+8Y1y6623JrTH66+/Xn7zm9/YbZ34DK4JuDmB+oSuhY0QQAABBBBAAAEEEEDAGQI//MHtctWVlzvjZNJwFgTcBaK//vWvlz179ti9nHPOOfKd73wnoT2+973vlb/+9a922w0bNsTCbkI/TsFGBNwUIHMIBBBAAAEEEEAAAQSSLEDANUmGZd4Cb33rW+Xpp5+2vz/11FNjIyPPtUMz4vKzzz5rNzv99NPlxz/+8Vw/Sen3BNyUcnMwBBBAAAEEEEAAAQSSIkDAJeAuqCJNnu6nqKhInnjiiYT2d8YZZ0hvb6/d9uqrr5ZPfvKTCf0uVRsRcFMlzXEQQAABBBBAAAEEEEieAAGXgLug2vTHP/5Rrrvuutg+HnzwQVm5cmXsfbwXBw8elAsuuCD21de//nW56CJnPQhOwI3dHl4ggAACCCCAAAIIIJAxAgRcAu6CKuvRo0fl1a9+dWwfZn7bSy65JPY+3ov77rtPbrrppthXiYTi2MYpekHATRE0h0EAAQQQQAABBBBAIIkCBFwC7oKr01ve8hbZtm2b3c/5558vd95556z7vOyyy2THjh12m1e+8pXyH//xH7Nun44vCbjpUOeYCCCAAAIIIIAAAggsTICAS8BdWA3SX99///1y4403xvZz++23y4UXXhh7P/mFCb933HFH7KOvfe1rYkZidtpCwHXaHeF8EEAAAQQQQAABBBCYW4CAS8Cdu5YksMU111wjjz76aGzLeCF3erg9+eST5Ze//GXsN056QcB10t3gXBBAAAEEEEAAAQQQSEyAgEvATaymzLHVww8/LDfccIP09PTEtjTz227evFlGR0flueeekwMHDsS+Ky0ttXPmbtmyJfaZk14QcJ10NzgXBBBAAAEEEEAAAQQSEyDgEnATqykJbHX48GExg0z9+c9/nnXriooK+cIXviDnnnvurNul80sCbjr1OTYCCCCAAAIIIIAAAvMTIOAScOdXc2b5lemKbFpsTWlvb5+y5VVXXSVm3tulS5dO+dxpbwi4TrsjnA8CCCCAAAIIIIAAAnMLEHAJuHPXkgVsYbol9/X1SXl5uS15eXkL2FvqfkrATZ01R0IAAQQQQAABBBBAIFkCBFwCbrLqkqv2Q8B11e3kYhBAAAEEEEAAAQQ8IkDAJeB6pKqf2GUScE/Mi60RQAABBBBAAAEEEHCCAAGXgOuEeui4cyDgOu6WcEIIIIAAAggggAACCMwpQMAl4M5ZSby4AQHXi3eda0YAAQQQQAABBBDIdAECLgE30+vwopw/AXdRWNkpAggggAACCCCAAAKLKkDAJeAuagXL1J0TcDP1znHeCCCAAAIIIIAAAl4WIOAScL1c/2e8dgLujDR8gQACCCCAAAIIIICAYwUIuARcx1bOdJ4YATed+hwbAQQQQAABBBBAAIH5CRBwCbjzqzku/xUB1+U3mMtDAAEEEEAAAQQQcKUAAZeA68qKvdCLIuAuVJDfI4AAAggggAACCCCQegECLgE39bUuA45IwM2Am8QpIoAAAggggAACCCAwTYCAS8CdViV4awQIuNQDBBBAAAEEEEAAAQQyT4CAS8DNvFqbgjMm4KYAmUMggAACCCCAAAIIIJBkAQIuATfJVcoduyPguuM+chUIIIAAAggggAAC3hIg4BJwvVXjE7xaAm6CUGyGAAIIIIAAAggggICDBAi4BFwHVUfnnAoB1zn3gjNBAAEEEEAAAQQQQCBRAQIuATfRuuKp7Qi4nrrdXCwCCCCAAAIIIICASwQIuARcl1Tl5F4GATe5nuwNAQQQQAABBBBAAIFUCBBwCbipqGcZdwwCbsbdMk4YAQQQQAABBBBAAAEh4BJw+WMQR4CAGweFjxBAAAEEEEAAAQQQcLgAAZeA6/Aqmp7TI+Cmx52jIoAAAggggAACCCCwEAECLgF3IfXHtb8l4Lr21nJhCCCAAAIIIIAAAi4WIOAScF1cved/aQTc+dvxSwQQQAABBBBAAAEE0iVAwCXgpqvuOfq4BFxH3x5ODgEEEEAAAQQQQACBuAIEXAJu3Irh9Q8JuF6vAVw/AggggAACCCCAQCYKEHAJuJlYbxf9nAm4i07MARBAAAEEEEAAAQQQSLoAAZeAm/RK5YYdEnDdcBe5BgQQQAABBBBAAAGvCRBwCbheq/MJXS8BNyEmNkIAAQQQQAABBBBAwFECBFwCrqMqpFNOhoDrlDvBeSCAAAIIIIAAAgggkLgAAZeAm3ht8dCWBFwP3WwuFQEEEEAAAQQQQMA1AgRcAq5rKnMyL4SAm0xN9oUAAggggAACCCCAQGoECLgE3NTUtAw7CgE3w24Yp4sAAggggAACCCCAgAoQcAm4/EGII0DAjYPCRwgggAACCCCAAAIIOFyAgEvAdXgVTc/pEXDT485REUAAAQQQQAABBBBYiAABl4C7kPrj2t8ScF17a7kwBBBAAAEEEEAAARcLEHAJuC6u3vO/NALu/O34JQIIIIAAAggggAAC6RIg4BJw01X3HH1cAq6jbw8nhwACCCCAAAIIIIBAXAECLgE3bsXw+ocEXK/XAK4fAQQQQAABBBBAIBMFCLgE3Eyst4t+zgTcRSfmAAgggAACCCCAAAIIJF2AgEvATXqlcsMOCbhuuItcAwIIIIAAAggggIDXBAi4BFyv1fmErpeAmxATGyGAAAIIIIAAAggg4CgBAi4B11EV0iknQ8B1yp3gPBBAAAEEEEAAAQQQSFyAgEvATby2eGhLAq6HbjaXigACCCCAAAIIIOAaAQIuAdc1lTmZF0LATaYm+0IAAQQQQAABBBBAIDUCBFwCbmpqWoYdhYCbYTeM00UAAQQQQAABBBBAQAUIuARc/iDEESDgxkHhIwQQQAABBBBAAAEEHC5AwCXgOryKpuf0CLjpceeoCCCAAAIIIIAAAggsRICAS8BdSP1x7W8JuK69tVwYAggggAACCCCAgIsFCLgEXBdX7/lfGgF3/nb8EgEEEEAAAQQQQACBdAkQcAm46ap7jj4uAdfRt4eTQwABBBBAAAEEEEAgrgABl4Abt2J4/UMCrtdrANePAAIIIIAAAgggkIkCBFwCbibW20U/ZwLuohNzAAQQQAABBBBAAAEEki5AwCXgJr1SuWGHBFw33EWuAQEEEEAAAQQQQMBrAgRcAq7X6nxC10vATYiJjRBAAAEEEEAAAQQQcJQAAZeA66gK6ZSTIeA65U5wHggggAACCCCAAAIIJC5AwCXgJl5bPLQlAddDN5tLRQABBBBAAAEEEHCNAAGXgOuaypzMCyHgJlOTfSGAAAIIIIAAAgggkBoBAi4BNzU1LcOOQsDNsBvG6SKAAAIIIIAAAgggoAIEXAIufxDiCBBw46DwEQIIIIAAAggggAACDhcg4BJwHV5F03N6BNz0uHNUBBBAAAEEEEAAAQQWIkDAJeAupP649rcEXNfeWi4MAQQQQAABBBBAwMUCBFwCrour9/wvjYA7fzt+iQACCCCAAAIIIIBAugQIuATcdNU9Rx+XgOvo28PJIYAAAggggAACCCAQV4CAS8CNWzG8/iEB1+s1gOtHAAEEEEAAAQQQyEQBAi4BNxPr7aKfMwF30Yk5AAIIIIAAAggggAACSRcg4BJwk16p3LBDAq4b7iLXgAACCCCAAAIIIOA1AQIuAddrdT6h6yXgJsTERggggAACCCCAAAIIOEqAgEvAdVSFdMrJEHCdcic4DwQQQAABBBBAAAEEEhcg4BJwE68tHtqSgOuhm82lIoAAAggggAACCLhGgIBLwHVNZU7mhRBwk6nJvhBAAAEEEEAAAQQQSI0AAZeAm5qalmFHIeBm2A3jdBFAAAEEEEAAAQQQUAECLgGXPwhxBAi4cVD4CAEEEEAAAQQQQAABhwsQcAm4Dq+i6Tk9Am563DkqAggggAACCCCAAAILESDgEnAXUn9c+1sCrmtvLReGAAIIIIAAAggg4GIBAi4B18XVe/6XRsCdvx2/RAABBBBAAAEEEEAgXQIEXAJuuuqeo49LwHX07eHkEEAAAQQQQAABBBCIK0DAJeDGrRhe/5CA6/UawPUjgAACCCCAAAIIZKIAAZeAm4n1dtHPmYC76MQcAAEEEEAAAQQQQACBpAsQcAm4Sa9UbtghAdcNd5FrQAABBBBAAAEEEPCaAAGXgOu1Op/Q9RJwE2JiIwQQQAABBBBAAAEEHCVAwCXgOqpCOuVkCLhOuROcBwIIIIAAAggggAACiQsQcAm4idcWD21JwPXQzeZSEUAAAQQQQAABBFwjQMAl4LqmMifzQgi4ydRkXwgggAACCCCAAAIIpEaAgEvATU1Ny7CjEHAz7IZxuggggAACCCCAAAIIqAABl4DLH4Q4AgTcOCh8hAACCCCAAAIIIICAwwUIuARch1fR9JweATc97hwVAQQQQAABBBBAAIGFCBBwCbgLqT+u/S0B17W3lgtDAAEEEEAAAQQQcLEAAZeA6+LqPf9LI+DO345fIoAAAggggAACCCCQLgECLgE3XXXP0ccl4Dr69nByCCCAAAIIIIAAAgjEFSDgEnDjVoyFfjg4OCidnZ22ZGVlSX19vRQXFy90tyn7PQE3ZdQcCAEEEEAAAQQQQACBpAkQcD0YcBsbG+XGG2884Up06aWXymWXXTbr7xoaGuTuu++We+6557jt1q5dK6985SvlE5/4xHHfOe0DAq7T7gjngwACCCCAAAIIIIDA3AIEXA8G3D//+c/ywQ9+cO7aMW2LD33oQ3LttddO+/TFt//93/9tw2t7e/uLH8Z5deGFF8rtt98e5xvnfETAdc694EwQQAABBBBAAAEEEEhUgIDrwYB7xx13yJ133ploHYltN1vAffbZZ+U973mP7ZIc/cFJJ50kJ598soyOjsq2bdtk79690a/E6SGXgBu7VbxAAAEEEEAAAQQQQCBjBAi4Hgy4V155pTz22GO2kp511lliSiLLS1/60hm3fdOb3iTbt2+P7ca00JoQO3kxodqE6+hyxRVXyM033xx966g1AddRt4OTQQABBBBAAAEEEEAgIQECrgcD7rnnnitNTU22gnzpS1+a87nauWrS7373O/n4xz8e2yxeuI1+OTnkFhQUyG9+8xtZunRp9GvHrAm4jrkVnAgCCCCAAAIIIIAAAgkLEHA9FnB7enrkzDPPjFWQBx54QDZt2hR7P58X73rXu+SRRx6xPzXh+dvf/vasuzEDVe3YscNuc91118kHPvCBWbdPx5cE3HSoc0wEEEAAAQQQQAABBBYmQMD1WMA1XZNNF+Xosnv37ujLea337dsnF110Uey3JtyakDvbct9998lNN91kN1m1apVtxQ0EArP9JOXfEXBTTs4BEUAAAQQQQAABBBBYsAAB12MBd/IAU+bZ23vvvXdBlej++++fMuXQww8/bOe8nW2n00Ox6bZ8/vnnz/aTlH9HwE05OQdEAAEEEEAAAQQQQGDBAgRcjwVcM/+tCaVmueqqq+RTn/rUgiqRGSTqJz/5id1HcXGxPP744wnt7/TTT5e+vj67rZl6yIzQ7KSFgOuku8G5IIAAAggggAACCCCQmAAB12MB9+KLL5bnn3/e1o7oAFO/+tWv5KGHHpLGxkZbNm7cKGbE5Pr6ern00ktnrUlve9vb5Mknn7TbnHLKKfKLX/xi1u2jX04eddmJUwYRcKN3ijUCCCCAAAIIIIAAApkjQMD1WMDdsGFDrHZeffXV8uc//9mG2tiH016Ybsxf/vKXZ+x2/MY3vlGiz/Gec8458p3vfGfaHuK/fe973yt//etf7ZcveclL5Gc/+1n8DdP0KQE3TfAcFgEEEEAAAQQQQACBBQgQcD0UcKcPMJVovTFdj01r72tf+9rjfnLeeefFArIJu7feeutx28T74Prrr7eDS5nvzEBTf/zjH+NtlrbPCLhpo+fACCCAAAIIIIAAAgjMW4CA66GAe/fdd8sXv/jFKZXFtNCabsjRLskmBDc0NIgZjCo6V675gQm5phuzWU9ezO+7u7vtR29/+9vlM5/5zOSvZ3z9uc99Tn70ox/Z78vLy+Xvf//7jNum4wsCbjrUOSYCCCCAAAIIIIAAAgsTIOB6KOB+4QtfkHvuuSdWY8zATmaAp3iLmS/XhOHogFRmG9OC+81vfnPK5ps3b5bR0VH72fvf/375yEc+MuX7md7cdtttctddd9mvc3JyYvPizrR9qj8n4KZanOMhgAACCCCAAAIIILBwAQKuhwLurl277DO3ptqYAJvICMqTB6Uyv3vggQdk06ZN5qVdtmzZIoODg/b1O9/5Trnhhhsmvpl99ZWvfEV+8IMf2I3y8/Pl6aefnv0HKf6WgJticA6HAAIIIIAAAggggEASBAi4Hgq486kv05/b/eQnPylmcKro8opXvELa2trs28svv1w+//nPR7+adf3pT39afv7zn9ttqqur5W9/+9us26f6SwJuqsU5HgIIIIAAAggggAACCxcg4BJw56xFk0deNs/rmlGVo8vrXvc6OXTokH17wQUXyDe+8Y3oV7OuP/zhD8uDDz5ot1mzZo38/ve/n3X7VH9JwE21OMdDAAEEEEAAAQQQQGDhAgRcAu6ctWhyN2UzqNS9994b+81ll10We3727LPPlh/+8Iex72Z7cc0118ijjz5qNzHdnO+7777ZNk/5dwTclJNzQAQQQAABBBBAAAEEFixAwCXgzlmJrrzySjFdlc0yPeBO/m7ZsmWxZ3zn2qkZsOrIkSN2MxOgb7nllrl+ktLvCbgp5eZgCCCAAAIIIIAAAggkRYCA67GAawaXev7552Xjxo3HTfkzU40644wzpLe31349vYvyf/7nf9o5cqO/ffzxx+fcrzmHM888M/oTufnmm+WKK66IvXfCCwKuE+4C54AAAggggAACCCCAwIkJEHA9EnDNCMqXXHJJrHZMHywq9kWcF5OfwZ0+tdD0/f7kJz+R0047Lc5eXvzoqaeemhJof/rTn8rWrVtf3MABrwi4DrgJnAICCCCAAAIIIIAAAicoQMD1SMA19WJyS+xrXvMa+da3vjVndbn77rvtfLjRDadPE2Q+v+iii2Tfvn12k/e+973ysY99LLp53PVNN90Ue+a2srJS/vSnP4mZKshJCwHXSXeDc0EAAQQQQAABBBBAIDEBAq6HAu4HPvABeeihh2I1I15YjX2pL0xXYhOEzdos05+/tR/qP+666y657bbb7NvVq1fLH/7wh+hXx6137NghZmCq6PLud79brr/++uhbx6wJuI65FZwIAggggAACCCCAAAIJCxBwPRRwp89pW19fb0dENuvpS2Njo3zwgx8U0wU5uswUiPv6+uTNb35zrBX3wgsvlNtvvz36s9h67969ct1114lZmyUnJ0d+/etfy9q1a2PbOOUFAdcpd4LzQAABBBBAAAEEEEAgcQECrocCrqkWd9xxh9x5552xGlJcXCxXX321bZ01A0+ZAahMEDZdk6Mtt2bjq666Sj71qU/Ffjf9hXn21gwWFV1MyD3vvPNst+hwOCz/+Mc/5J577omFW7PdtddeK+aZXicuBFwn3hXOCQEEEEAAAQQQQACB2QUIuB4LuKY63HjjjXL//ffPXjMmfTt95ORJX015+ctf/lLM4FWJLE4Ot+b8CbiJ3EW2QQABBBBAAAEEEEDAWQIEXA8GXFMFTSvtDTfcIE1NTTPWyCVLlthWWzNnbaLL3//+d9uSe/Dgwbg/MQNdmdbgCy64IO73TvmQgOuUO8F5IIAAAggggAACCCCQuAAB16MBN1pFTNA1z9ma7sjmtXke1xQTajdt2hTd7ITW/f39YgaT2r59u12bLsrr1q0TM93Q+eeff0L7StfGBNx0yXNcBBBAAAEEEEAAAQTmL0DA9XjAnX/VcfcvCbjuvr9cHQIIIIAAAggggIA7BQi4BFx31uwFXhUBd4GA/BwBBBBAAAEEEEAAgTQIEHAJuGmods4/JAHX+feIM0QAAQQQQAABBBBAYLoAAZeAO71O8F4FCLhUAwQQQAABBBBAAAEEMk+AgEvAzbxam4IzJuCmAJlDIIAAAggggAACCCCQZAECLgE3yVXKHbsj4LrjPnIVCCCAAAIIIIAAAt4SIOAScL1V4xO8WgJuglBshgACCCCAAAIIIICAgwQIuARcB1VH55wKAdc594IzQQABBBBAAAEEEEAgUQECLgE30briqe0IuJ663VwsAggggAACCCCAgEsECLgEXJdU5eReBgE3uZ7sDQEEEEAAAQQQQACBVAgQcAm4qahnGXcMAm7G3TJOGAEEEEAAAQQQQAABIeAScPljEEeAgBsHhY8QQAABBBBAAAEEEHC4AAGXgOvwKpqe0yPgpsedoyKAAAIIIIAAAgggsBABAi4BdyH1x7W/JeC69tZyYQgggAACCCCAAAIuFiDgEnBdXL3nf2kE3Pnb8UsEEEAAAQQQQAABBNIlQMAl4Kar7jn6uARcR98eTg4BBBBAAAEEEEAAgbgCBFwCbtyK4fUPCbherwFcPwIIIIAAAggggEAmChBwCbiZWG8X/ZwJuItOzAEQQAABBBBAAAEEEEi6AAGXgJv0SuWGHRJw3XAXuQYEEEAAAQQQQAABrwkQcAm4XqvzCV0vATchJjZCAAEEEEAAAQQQQMBRAgRcAq6jKqRTToaA65Q7wXkggAACCCCAAAIIIJC4AAGXgJt4bfHQlgRcD91sLhUBBBBAAAEEEEDANQIEXAKuaypzMi+EgJtMTfaFAAIIIIAAAggggEBqBAi4BNzU1LQMOwoBN8NuGKeLAAIIIIAAAggggIAKEHAJuPxBiCNAwI2DwkcIIIAAAggggAACCDhcgIBLwHV4FU3P6RFw0+POURFAAAEEEEAAAQQQWIgAAZeAu5D649rfEnBde2u5MAQQQAABBBBAAAEXCxBwCbgurt7zvzQC7vzt+CUCCCCAAAIIIIAAAukSIOAScNNV9xx9XAKuo28PJ4cAAggggAACCCCAQFwBAi4BN27F8PqHBFyv1wCuHwEEEEAAAQQQQCATBQi4BNxMrLeLfs4E3EUn5gAIIIAAAggggAACCCRdgIBLwE16pXLDDgm4briLXAMCCCCAAAIIIICA1wQIuARcr9X5hK6XgJsQExshgAACCCCAAAIIIOAoAQIuAddRFdIpJ0PAdcqd4DwQQAABBBBAAAEEEEhcgIBLwE28tnhoSwKuh242l4oAAggggAACCCDgGgECLgHXNZU5mRdCwE2mJvtCAAEEEEAAAQQQQCA1AgRcAm5qalqGHYWAm2E3jNNFAAEEEEAAAQQQQEAFCLgEXP4gxBEg4MZB4SMEEEAAAQQQQAABBBwuQMAl4Dq8iqbn9Ai46XHnqAgggAACCCCAAAIILESAgEvAXUj9ce1vCbiuvbVcGAIIIIAAAggggICLBQi4BFwXV+/5XxoBd/52/BIBBBBAAAEEEEAAgXQJEHAJuOmqe44+LgHX0beHk0MAAQQQQAABBBBAIK4AAZeAG7dieP1DAq7XawDXjwACCCCAAAIIIJCJAgRcAm4m1ttFP2cC7qITcwAEEEAAAQQQQAABBJIuQMAl4Ca9UrlhhwRcN9xFrgEBBBBAAAEEEEDAawIEXAKu1+p8QtdLwE2IiY0QQAABBBBAAAEEEHCUAAGXgOuoCumUkyHgOuVOcB4IIIAAAggggAACCCQuQMAl4CZeWzy0JQHXQzebS0UAAQQQQAABBBBwjQABl4DrmsqczAsh4CZTk30hgAACCCCAAAIIIJAaAQIuATc1NS3DjkLAzbAbxukigAACCCCAAAIIIKACBFwCLn8Q4ggQcOOg8BECCCCAAAIIIIAAAg4XIOAScB1eRdNzegTc9LhzVAQQQAABBBBAAAEEFiJAwCXgLqT+uPa3BFzX3louDAEEEEAAAQQQQMDFAgRcAq6Lq/f8L42AO387fokAAggggAACCCCAQLoECLgE3HTVPUcfl4Dr6NvDySGAAAIIIIAAAgggEFeAgEvAjVsxvP4hAdfrNYDrRwABBBBAAAEEEMhEAQIuATcT6+2inzMBd9GJOQACCCCAAAIIIIAAAkkXIOAScJNeqdywQwKuG+4i14AAAggggAACCCDgNQECLgHXa3U+oesl4CbExEYIIIAAAggggAACCDhKgIBLwHVUhXTKyRBwnXInOA8EEEAAAQQQQAABBBIXIOAScBOvLR7akoDroZvNpSKAAAIIIIAAAgi4RoCAS8B1TWVO5oUQcJOpyb4QQAABBBBAAAEEEEiNAAGXgJuampZhRyHgZtgN43QRQAABBBBAAAEEEFABAi4Blz8IcQQIuHFQ+AgBBBBAAAEEEEAAAYcLEHAJuA6vouk5PQJuetw5KgIIIIAAAggggAACCxEg4BJwF1J/XPtbAq5rby0XhgACCCCAAAIIIOBiAQIuAdfF1Xv+l0bAnb8dv0QAAQQQQAABBBBAIF0CBFwCbrrqnqOPS8B19O3h5BBAAAEEEEAAAQQQiCtAwCXgxq0YXv+QgOv1GsD1I4AAAggggAACCGSiAAGXgJuJ9XbRz5mAu+jEHAABBBBAAAEEEEAAgaQLEHAJuEmvVG7YIQHXDXeRa0AAAQQQQAABBBDwmgABl4DrtTqf0PUScBNiYiMEEEAAAQQQQAABBBwlQMAl4DqqQjrlZAi4TrkTnAcCCCCAAAIIIIAAAokLEHAJuInXFg9tScD10M3mUhFAAAEEEEAAAQRcI0DAJeC6pjIn80IIuMnUZF8IIIAAAggggAACCKRGgIBLwE1NTcuwoxBwM+yGcboIIIAAAggggAACCKgAAZeAyx+EOAIE3DgofIQAAggggAACCCCAgMMFCLgEXIdX0fScHgE3Pe4cFQEEEEAAAQQQQACBhQgQcAm4C6k/rv0tAde1t5YLQwABBBBAAAEEEHCxAAGXgOvi6j3/SyPgzt+OXyKAAAIIIIAAAgggkC4BAi4BN111z9HHJeA6+vZwcggggAACCCCAAAIIxBUg4BJw41YMr39IwPV6DeD6EUAAAQQQQAABBDJRgIBLwM3Eervo50zAXXRiDoAAAggggAACCCCAQNIFCLgE3KRXKjfskIDrhrvINSCAAAIIIIAAAgh4TYCAS8D1Wp1P6HoJuAkxsRECCCCAAAIIIIAAAo4SIOAScB1VIZ1yMgRcp9wJzgMBBBBAAAEEEEAAgcQFCLgE3MRri4e2JOB66GZzqQgggAACCCCAAAKuESDgEnBdU5mTeSEE3GRqsi8EEEAAAQQQQAABBFIjQMAl4KampmXYUQi4GXbDOF0EEEAAAQQQQAABBFSAgEvA5Q9CHAECbhwUPkIAAQQQQAABBBBAwOECBNwMDrh33323fPGLX7RVbPfu3fOqan/729/k4Ycflp07d8q2bdukvr5e6urq5Pzzz5c3vOENUlFRccL7feGFF+TXv/617Nu3T3bs2CEjIyOyfPlyednLXmb3uX79+hPeZ6p/QMBNtTjHQwABBBBAAAEEEEBg4QIE3AwNuI2NjXLJJZdIT0+PrQUnGnD3798v3/nOd+SBBx6YsRatXr1avvSlL8mWLVtm3Gb6F1//+tfFBO/BwcHpX8Xem31edtllsfdOfEHAdeJd4ZwQQAABBBBAAAEEEJhdgICbgQHXhNqrrrpKdu3aFbu7JxJwOzs75T3veY88++yzsd/P9MK04H7lK1+RV73qVTNtEvv8M5/5jPzsZz+LvZ/txSc+8Ql5xzveMdsmaf2OgJtWfg6OAAIIIIAAAggggMC8BAi4GRZw44Vbc+dPJOB+4AMfkIceeshWmOLiYvn85z8vmzdvlmXLltluyqar8m233RZrhc3JyZFvfvObcs4559jfxPuHabn99re/Hfvq2muvlde97nW2u7M558cee0zuuece2xU6upHZ5kMf+lD0raPWBFxH3Q5OBgEEEEAAAQQQQACBhAQIuBkUcE2L7Qc/+EEx3ZOnL4kG3Pvuu09uuukm+3PTBfnLX/6yvOQlL5m+OxtITStrQ0OD/e7iiy+WW2655bjtzAfmOdvJXY5nCq5tbW1y4403innu1yzm+L/73e8kOzvbvnfSPwi4TrobnAsCCCCAAAIIIIAAAokJEHAzJODecccdcuedd854VxMNuCaImkBqlpmCaPQgf/nLX+R973uffev3+20YXblyZfTr2NoEZhOczbJmzRo7wJTZPt7S2toqb3rTm8SszfLVr37VDjwVb9t0fkbATac+x0YAAQQQQAABBBBAYH4CBFyHB9xf/epXNthObrUtKiqSSy+91Hb5jd72RALugw8+KB/+8IejP7HPy8ZrvY1toC9MwDVB1yzXXXedmO7NkxcTVCc/n/vRj340Foonbzf5tQnqJrCb5bzzzpO77rpr8teOeE3AdcRt4CQQQAABBBBAAAEEEDghAQKuwwPuhg0bptzQjRs32m7Fvb29cuWVV8a+SyTgmtbS733ve/Y3pnvwH/7wh9jvZ3px77332md0zffr1q2zrbiTt53cyms+N4H8pJNOmrzJca+nd2n+xS9+Iaeccspx26XzAwJuOvU5NgIIIIAAAggggAAC8xMg4GZIwDWttldffbXtVmxutRm06UQDrvn9P/7xD1tTZnumdnJV+t///V955zvfGfvov/7rv2Tt2rWx95NbY81gVGaAqpm6J0d/FAqF7NRD4XDYfnTzzTfLFVdcEf3aEWsCriNuAyeBAAIIIIAAAggggMAJCRBwHR5wzzjjDBtsTTg1Ix5Hl/kE3NNOO036+/vtLr7whS/Iv/zLv0R3N+PaDAz1ile8Ivb97bffLhdeeGHs/eQuzOb529///vex72Z7cdFFF8m+ffvsJm9729vks5/97Gybp/w7Am7KyTkgAggggAACCCCAAAILFiDgOjzgmil2Jgfb6B0/0YA7MDAgW7dujf5cTNfjs846K/Z+theTu0lPH5jKhOTnnnvO/tw8i/v9739/tl3Fvnv3u98dG03ZnIc5HyctBFwn3Q3OBQEEEEAAAQQQQACBxAQIuA4PuDPdxhMNuNMHg0pWwL3gggvk4MGD9jT/+Z//Wf793/99plOe8vnHPvYxMd2dzWIC9G9+85sp36f7DQE33XeA4yOAAAIIIIAAAgggcOICBFyPBFzTHdh0C44uyQq4Z599trS3t9vdvvWtb5V/+7d/ix5i1rXpkvzTn/7UblNTUyP/8z//M+v2qf6SgJtqcY6HAAIIIIAAAggggMDCBQi4Hgm4ZvCnt7zlLbEak6yAa0Y/HhkZsft9z3veIx//+Mdjx5jtxde+9jX57ne/azfJzc2VZ555ZrbNU/4dATfl5BwQAQQQQAABBBBAAIEFCxBwPRJwn376aTEtrNFlvgHXBFgTZKNLMgJuIBCIPccb3W+61wTcdN8Bjo8AAggggAACCCCAwIkLEHA9EnD37Nkjr3/962M1ZL4B13QtNqMeR5eXvexl0tnZad/Ot4tyeXm5/P3vf4/u0hFrAq4jbgMngQACCCCAAAIIIIDACQkQcD0ScJuamuTcc8+NVY75Btxbb71V3vjGN8b289rXvlaOHDli3893kKnly5fLn/70p9g+nfCCgOuEu8A5IIAAAggggAACCCBwYgIEXI8EXDPd0JlnnhmrHfMNuHfddZecd955sf1cfPHF8vzzz9v3850maPPmzXL//ffH9umEFwRcJ9wFzgEBBBBAAAEEEEAAgRMTIOB6JOCOjo6KCZLR5Rvf+IaYKX7mWjo6OuTlL395bLPpwdh0V37yySft9+vXr5ff/va3sW1ne/GGN7xBXnjhBbsJ8+DOJsV3CCCAAAIIIIAAAgggkKgAAdcjAddUiDe/+c2x0Yo/+tGPyvve974568n0+XbNYFX5+fmx3331q1+V733ve/Z9Tk6OmNGa/X5/7Pt4L0KhkGzZskXC4bD92pyHOR8nLbTgOulucC4IIIAAAggggAACCCQmQMD1UMC988475Y477rA1w7SgmnA61/LjH/84NrftqaeeKj//+c+n/OSRRx6Rd73rXbHPHnjgAdm0aVPsfbwXu3btkksuuST2lTmv888/P/beCS8IuE64C5wDAggggAACCCCAAAInJkDA9VDAnRxGq6ur5Ze//KWY9WyLaV39y1/+Yje54oor5Oabb56yeV9fn7ziFa+QoaEh+/mNN94o11xzzZRtpr+ZHLTNd2aAKTPQlJMWAq6T7gbnggACCCCAAAIIIIBAYgIEXA8FXBNGL7roImlpabG149prr5UPfehDM9YUE2wnd2P+9re/PWUk5ugP3//+98vDDz9s355++uliWn1nWlpbW+VNb3qTmLVZzMjOZr9OWwi4TrsjnA8CCCCAAAIIIIAAAnMLEHA9FHBNdTDPy07umnz77bfLhRdeeFxN2bt3r1x33XVi1maZLYg++uijU1ptZwvOZp9//OMfY8ebKTTHNkjTCwJumuA5LAIIIIAAAggggAACCxAg4Hos4JquxGawqd27d8eqjQm555xzjuTm5trPzEBSn/70p2Ph1nw4VxA1XZMnT/VjQu6ll14q9fX1dp9mxORvfvObU8KtGcXZjObsxIWA68S7wjkhgAACCCCAAAIIIDC7AAHXYwHXVAfzzOv1118vg4ODsdphRj7eunWrbN++XQYGBmKfmxc33XST/Ou//uuUz6a/OXDggHzyk5+Up556aspX5tlaM0VRY2PjlM/NsUxrclFR0ZTPnfKGgOuUO8F5IIAAAggggAACCCCQuAAB14MB11QPM/3PDTfcIE1NTTPWluLiYrn66qtnfU538o9HRkbsIFRm8KrZlle96lU2NDttYKnJ50zAnazBawQQQAABBBBAAAEEMkOAgJuhAddMtfPFL34xVsvuvffe2OtEX5h9mDB66NChWKmqqpLKykrbmnvVVVfJqlWrEt1dbDszSvLkfZrga/ZryuWXXz5liqDYjxz2goDrsBvC6SCAAAIIIIAAAgggkIAAATdDA24C95ZNFiBAwF0AHj9FAAEEEEAAAQQQQCBNAgRcAm6aqp6zD0vAdfb94ewQQAABBBBAAAEEEIgnQMAl4MarF57/jIDr+SoAAAIIIIAAAggggEAGChBwCbgZWG0X/5QJuItvzBEQQAABBBBAAAEEEEi2AAGXgJvsOuWK/RFwXXEbuQgEEEAAAQQQQAABjwkQcAm4HqvyiV0uATcxJ7ZCAAEEEEAAAQQQQMBJAgRcAq6T6qNjzoWA65hbwYkggAACCCCAAAIIIJCwAAGXgJtwZfHShgRcL91trhUBBBBAAAEEEEDALQIEXAKuW+pyUq+DgJtUTnaGAAIIIIAAAggggEBKBAi4BNyUVLRMOwgBN9PuGOeLAAIIIIAAAggggIAIAZeAy5+DOAIE3DgofIQAAggggAACCCCAgMMFCLgEXIdX0fScHgE3Pe4cFQEEEEAAAQQQQACBhQgQcAm4C6k/rv0tAde1t5YLQwABBBBAAAEEEHCxAAGXgOvi6j3/SyPgzt+OXyKAAAIIIIAAAgggkC4BAi4BN111z9HHJeA6+vZwcggggAACCCCAAAIIxBUg4BJw41YMr39IwPV6DeD6EUAAAQQQQAABBDJRgIBLwM3Eervo50zAXXRiDoAAAggggAACCCCAQNIFCLgE3KRXKjfskIDrhrvINSCAAAIIIIAAAgh4TYCAS8D1Wp1P6HoJuAkxsRECCCCAAAIIIIAAAo4SIOAScB1VIZ1yMgRcp9wJzgMBBBBAAAEEEEAAgcQFCLgE3MRri4e2JOB66GZzqQggkLECWT6fZPuyJScrS9dZ4pdsCZi1fpYtvqReV0T3FoqMytBYWIYiIRkeG9VPIvof/WfE/JMFAQQQQMAJAgRc/q3khHrouHMg4DrulnBCCCCAwHECORpkg9n+WCnw+aUgyy+FuvZr0E3GMjm69o+NSFd4UDpHB6VndFjGNNhGImN2nYxjsQ8EEEAAgYULEHAJuAuvRS7cAwHXhTeVS0IAAdcJBLJyJN8flIKcXC1BKcvKjZWght9kLhFfRMPtkDSHerT0SmuoX4OtCbdaxkxL7uQonMwjsy8EEEAAgRMRIOAScE+kvnhmWwKuZ241F4oAAmkWGO9IPLU7cVC7HudqC2zQdjf2iS8rIj4NmNMbZQM52mIbzLOlMDdfyv2FUuYvkvJAoeRmBZJwZeOhNTJxep3DvdLU3yaN/e3SOtApo2Mm3I6XyfHW9FgO649CYz67DusHIQ3CYe3iPHpcd2aicRJuFLtAAAEEYgIEXAJurDLw4kUBAu6LFrxCAAEEkimgcXV8d7oafzXxftJBarTbca0G1NrsgBRn6/O1gTHJ8Y9JtpbJS07AL3mFBVry7bqwsEIKCyu1VEjAnzt50wW+Hg+hfb0d0nGsQdpbG6Wr46iMjUa0TLTgTgquoxpue0PZ0jNRekfDtktzr3Zr7h8LTTuX8X3zf0emsfAWAQQQmKcAAZd/o8yz6rj7ZwRcd99frg4BBNIjMDXcTrzT1trpEXdDTp5s9OfLxpx8qQnowFF5oxLI1ZIXnnLi2bkBCZQVainQUiTBiiUSLNei6+zcginbLuzNeAgdbmuR/oN7pf/QXhlsPCRjYQ24WiKmTAq4YW25bRkKyNEhv123jAxLS6hPWsJ90qnP8E5ezJ7Nb83PzWsWBBBAAIGFCRBwJ/8baWGW/NpFAgRcF91MLgUBBBwjYKOsbbnVV9FgG11POsuXBorkZYFiebmWlXk52jobltzCkOQWTA24WYUBya4ukuyqQsmpLhZf3SrJ0uKrWym+gpJJe1zIy2jo1DDb2CDhndtldJeWvXskEtLPtJi19kCOLSMacA/258oBLQf7gnJgaFAOjnTKweFO+/xubEN9Yf59Ywermgi6k7/jNQIIIIDAiQsQcAm4J15rPPALAq4HbjKXiAACiy5gBoEK2qJdibWrcWF2RIpyInadVZAntmj3Yu1PPOVcNmnA3ahlc7BIaoL+8RbcvDG7nrxhVm6OZJXma9F9leSJr6JWssprxVdeI5qGJ2+6wNe2eVUi7cdk9PBBGTusrbdNjeMttzpb0HgL7ouHCGvYPTqYIy0DOXZ9dHhQWkZ6bGkP97+4ob4a6Q/JUPeQDHVp6R+RQRmTIdHpiHQ9os/shnU6IlNGJyfoKXvgDQIIIIDAZAECLgF3cn3g9YQAAZeqgAACCCxcoEhHNy7W7sZFWiq0q3GtPktbGxzV9ai2uJZLVnWFtsBWiM+E3ElLbbBQ6nSgqDpdlwQCkhOI6HO4EbuetJn4/DrbbZ5fsvIDutZBpQq0FdcWbb31J2OQqejRxltxI319EulolzEtka5O0QxqW24jOory5N7F+liu9AyLdGvpGYpIt3ZR7tFRl03pn9ZFub91QLqP9EjXkW7pbtEuzBLSErbrgVENvFqGwiMyovPvsiCAAAIIzC1AwCXgzl1LPLgFAdeDN51LRgCBpAtUaEit0pbYqmCx1Of6Za0+Q7suPyxr80PiX1kv2auWSo4WX3nplGPnBQskV4tZ+3UaoCyd8ceX7ZOsrGlP65r32jLs02LWkpMjPh1ZWUejEt14yj6T8iYcloiGVRkZ0W7JI+Oh9sUezLFDmH+HhEJhGdESGglJSANqKDSk6yEJ6+vJS9fBLmndfkxaTDmgXZhlWJojQ9Kk627dvjc0aMtgWI/LggACCCAwpwABl4A7ZyXx4gYEXC/eda4ZAQTmI5Clz9Bm6fw95j85mjfNFD9BzZZBfV1ZWCbVReVaKmRpYd54uC0Y1YA7Kv5VOhDUqmUTAXfq87K+QJ52W84Xu87R1lndp50jyKwzYTGDRo3qaMkaZiNhXWsrrEysIzqi8uSl62C3Dbitz2nA3d8uTaP90qzFrDsHtdV3YLz06nO8Q7rfQe2qPKTFPLfLggACCCBwvAABl4B7fK3gEzvoR06gHgkEEEAAgTkE7HO22mIazPLrs7XZUpUjUqUtrqaU1tRIWV2dLZVlxVKrudWUOp3BJ9t0Ua6qsN2Up3dR9mmotV2MTbjVZ3g14epZmJCbIQHX9FceHdXuyxpmda1DLdsSsa/1/aSl/9iA9GgX5e7DWo52S8dgpwbbLrvu6eyVvvY+6W3rk64eDb0akps1LDdpCZmAa/9L0J3EyUsEEEBACLgEXP4YxBGgBTcOCh8hgAACcQTyc4JSoM/aFmqp9PtljWbT1dpDeE3AJ8Xa/bhg3UopXLtCCmt0jtpgjhTqs7hFQX12tkAHh9KBpnxapg8yZfska7D12b7JE12NMybcTiCZQaHGxvQvTKMP6po0OvF6kmPIDjI1LMP60O5Q94AMdrfIQHerXfc3d0t/g4ZcLW2tfbJTuyvvHBmw60Gzb/MfWnInafISAQQQEAKu/ouBv/rkT8JxAgTc40j4AAEEEIgrUKzz1ZYGCmxZGgzKVm2d3ZLrk61BkfyTV0tgy3pbcpbp6Mb6PK1oILbruHvz+IehYRk71iCRtga7Hj7QIQMv9MrA3h45qq28/zvUO16Ge6VXW4Xt/4WhFdfjlYbLRwCB6QK04BJwp9cJ3qsAAZdqgAACCIwLmLlr/dqSaroim5KrgzkV61Q/ZrqfIr+WohIpLC6TwpIyqSoslDU6dc9qLWYdXFEn/jX1+pytDihVVWYHf4oNArUowDbt6Z51bQeEGtQBoYbGS/R49q+17T+in0xdm8GpbNE+1matoTwazBdl4KrJR9cuyJGeNol0j5cRHVV5uLFfy4B0HuuXnYM9skPLzqEe6ekZGm/17dFRlgdCdnqhAZ1eyEwzFDJTC01MMcT0QpOBeY0AAl4QIOAScL1Qz0/4Ggm4J0zGDxBAwIUCJtya/+ZnB7ULspbsXCkL5Ei9zkm7JHfMrvOrqiRPn7XN1VJUpoNK5eZKlSl5QcmpKJXsSi1VpeNTAWlQtt2OTdfjxVhsp6yJbrvDAxLp7RLp65RIX7ceLRp+zYFnC7h6btrV2qcjMuu8RHrxOvVQXpH48ovGR2dejPOO7lODaWSwT0SLWY9qiA11jUi4c1j6ewaleaBbmrQ0D3ZL19E+6WnQ53O1dLUNSrtOLxQtA2NmaiGdX9c8q8v0QlFd1ggg4BEBAi4B1yNV/cQuk4B7Yl5sjQAC7hOIhluzLtFuyOX+AinXaX+W6HyzG4tGZYOWTVpyly0R/wodDVlLoLpagnmFkptXIMHcQskK6sO4QR0oKmACowbHxR4sSp9xtf9aN8/CCW6OAABAAElEQVS69vdIpL15vHS2aKadCLXR9Uy3zATbgHal1uLL1WeEiytjxbTmLupizs2Msmy6H+s6EtLAO6IjJo9oi+ywPqPb3yWDpgzoIFT7uqRtZ4eWTmnV7stHZEgadGqhI3Z6oUHp0+d1+3RqIhNyWRBAAAEvCRBwCbhequ8JXysBN2EqNkQAAZcImKl+sieKX4NoQIuJc2a6n7LCEqnQ6X4qtCvykqJ82Vg8ZgPuxqIxCSytlezl9ZJlirbmSrBQg2GB+HQO23mPemwHY9KwpwMpjYVHZWwobMvo8NQpdqbQ6+YR7Z47HnB1Hto+DYLtjTLU3iBDHc0TjbZmIy2zLKYLdXYwT8N5rmTn5kuwuEpLpV1n+fUB4xkWnx7d9Gj2+SLaSq29m3NNQDZFW4HNF/NZ7LlOtEibwDugoV27KIuuu/abgNsp7c9rwD3cLUfG+qVBpxZq0HWXmVqof7z0Dw3ZbstmaiE7vZA5D93v7ArzOVl+gwACCDhDgIBLwHVGTXTYWRBwHXZDOB0EEFh0gaBO9ZOXFdBnbANSlJ0j5ZrJKkzRgFtaWyUl9XVSqqVCuxvX50W0JVdkSX5EcspLJauyXHxasoqLtXuvhsDoc6umf/N8Fp1Ddnz+2JCEtWvusHkWdaLMtjttt9X5YU2JSK8+p9ra0yIt3UelrbdlIteagGv2MHO8y9ZuyUENuIFArq7zpSKvVMq1VOSVSUCNZlqys9Uie0z8OaM6jpb+ZUFNpZYKW3zaij3vJRpytfuyDA9qi655rnhQBlr6pVefzzWl+1ivtA91S9tQl7QPd0tPe4/06We9rb3SqSMzH9Uuy81qatahiVZus1ti7rzvCj9EAAEHCxBwCbgOrp7pOzUCbvrsOTICCKRHwEzzY0ZELvbnSaU+b7tCexSv0NC2XNcla5ZK4Uad7mfTKimqr5IinQKoyJ9l11l5ufp8qnbl1WK79upcuHbuWg3J810iZmAo7WJr1iOtGtZeaJN+LX0vtM+6y1ENbWaW2VEN1q0jfbJ3sE32DhyTA4PtL4a5OVovgxpw8wN5thQG8mV5ToEsyynUdaHkmzl5Z1hMsA0GwhL067owW/zrV4p/g5b1K3Q6pPwZfpXIxzaJjre6aki1XZh1baYXGtYBpkZ6dd07IP29bTLQN176jnRJ/6Fu6TvYLa0acnep5fNhUwbGW3E15Jq/BOD/AiXizzYIIJBpAgRc/tc90+psSs6XgJsSZg6CAAIOETDtrKX6fG1VbpFUBoulXgPeZs1ym3Wk5E26Lj5lteSducEW/+ol2uV2IsTOe7CoidAWvf6J0Kmf2iUy1C+RIR1oScvQ4XbpeqIxVqI/ibcOabANS5YWnxwZHZSnQx1aOuW5cNd4wLWHjR4l3h7EtmAXa7AtVoNSDfubIrmyQTtrb4oEpVj3PdMS0GCbnxuyJa9UR5A+4yQJnnmK5Oo6q1QHqJq0vPh888SHtqF7nq3dZhf6rO1Y51GJaDHrwT0d0r+rSwa0C3PTkW75x0ivLf830iP92hI8ql2/w7o2IZcFAQQQcJsAAZeA67Y6nZTrIeAmhZGdIICAgwWy9Blbvy/HTgHk15bJutJiWV5RLssqymR5SZEs14GhoiV/VZ0E1tdr0cGkarU7snnI1KdNuyfybKl5rtY8RzoxiJIMD0lEB04SfUZ0eDgkXUNjWiJ2PaYtt6YrbkRbHodadcTg3a3SbcoLrbOI+mKtt6YF99jYsOwL98n+0T45oCXaK3mubrlmKqR87WKdZ0eNDsoy8cvSiN+u83W/My3+nDHJDZhWXB14qzBH8tbrXwps0LJ+lfh1+qRs9c7RgBzQaZYK9fsiLYWFfh2oWbs9+7ULsxmxWZ//HbfV4xjjRBczvZAdLbrDrocbe2XoiE4vdKRP2pu7ZFdXqzzfqUXXRwdHpE2fZW4bHpVeHcTKhNzxYjp4syCAAAKZL0DAJeBmfi1ehCsg4C4CKrtEAAFHCZgBpfI1xNmi0wCtXlIuG1ZUyYblVbKqpkyfO9VRk/N09GQtAZ3qJ6dap/upLpPs4onBo2zInTnwHXexZmRgE1y1tdG0OEZ6dOoeLWbdrc+JHuoalYPdo3Y9Fh7RwaU0tOkIwEPd+oxpc6f0aDHr2ZYxDaCmTdKs+yJhG3LbNOi2azHLXOHWbGNczLO2JugGtYVar1j0yu06EJn5es0g0QFt8fbr3MBBnQM4v7ZGCupq7TpXR2MO6l8mBPUvBQp0mqW6mjypq83Vda4EinRALh15WlOxDsylXZlt67iGW+3qrSnXnNLci5leSKdF0glx7TrcPSThjmEJdQ5J/zGdWqjpkDQ3HpRmXe/T7/Zot+YXtBwdDGtL7nhrrmnRZUEAAQTcIEDAJeC6oR4n/RoIuEknZYcIIOAwAb8GKfPMbUmgwE4DdNLaatmyuVa2bq6TNSurJFBQKkEtgYKS8RGBdcofnylmGh2zaIvkCS1m4KiJbsd2faxVIsd08Cctrfqc7bMtIXmmJawlJKOj5hlRbV3U0DU8Miw9fTrna7+Wvv45DxntdKtxWka01XhY23XNOtHFdB82rdvR4tdQq1ctOtmR/c9M+9GGWcnO0lZaLX41Kiwo0lJs1wX6fHOBzy/5Wsp0mqV1awplrRazztcWc5+OUG2KnXPXDGSlzy/7zDPMiRqbrsYmoJqga4qdXkj9dIqhcJd2Vd7zvAzs1aLrbcf65bH2EVv29umgU9qiPqLFrKN2M10jnyOAAAKZIEDAJeBmQj1N+TkScFNOzgERQGCRBGwss1lUp/3R1slc7Sabq+sC7Q5bVlgkpUWFdr1xfY2cvHmJnKIBd/mKavFpsPXll2opSbwrsglZoRFtqdW5V0PDZjpXDVvaBVbX4VBIRvTZ2hENucPD/RI+dlRCprQ2S4t2Q36uNSzPtoZku4bcUdNtVuPWmAbTEf1xv7b49oW1NdK0/jp08WkYNa2/ZrqlHO26nW9CrbaQF2TrOkvDrSkacEt02qC1qwtlzeoCuy4pL5dcnYYot0inI9K/UMjSlttsDbdmnRXUdXB87QuY555Nt3AtCbXualw1/+3rldF9L8jY/j263ivPaSv4E0f75AkdlXpPx6AM6hy7AxNlWO/fiP7FwrCW8An8pYBDbwmnhQACHhUg4BJwPVr1Z79sAu7sPnyLAAKZIWByrQlc462RWTr1j19qfAGp1qBVlaeDKNUU6xRAWnRdv7JGlq+q1VInlbUV491ldS5bn06Zk/DzoNraGunW50BN6enUuWi1BbFP56TVhtcB7Q7braHXlC4TVrt0VGR9LrSv85i0dfXK4Z5ROaxdlI9osSP86rmbLsUhDV3DpquytgAPm1GEHbqYgPti62+WmGmXctXbrE3X5IAW0005358jtdo1uaY6KLXVuVJVXCpVBZW2lOWVaNdobS02JVtbgktzxV+ZJ/6qfMkp1SeAdeoi0cGv7Frv6+zLeHtsRJ9xjrQ0y5gtR+VwY4vsa2iVvQ0t0qAt5936eHKXLRHpCA9Lhw7O1T6q92fMudazXzffIoCA1wUIuARcr/8ZiHv9BNy4LHyIAAIZJmACV7a2JuZoq59ZL8/KlXVZ+VryZIW23JasLtEpgEp1XSqlS6qlRJ8bNSVfWxVFg5ntJmu6zCbYVTYyoCMfHz0iY1oizUdkuH1UhtojtnT1j+k8rKO2NI+OSkd/h7T3mdIunQP90jMckW4tPcOm7VbD7cQIvybshrVF0Y78q2snL+Mh13BpV2UNtKZFd3yt90Fbzs1AU369D4UFOVKgxazrNdSuzq2Q1XkVOnp1sbb0RnQ+4jHJ8+l6SaHk6r3JW6VdxetNi3qxPq+rRde2JTcRDPMss3bvjvTryNS67jp8WDoOHpSOAwekralNjnVkS2tnlrTq+ohOrXQo1COHtXRoyGVBAAEEMlGAgBv9N2gm3j3OedEECLiLRsuOEUAghQKm5Tag3V3N87ZmvUnndD0tp1i2ZhfJxrISKT65zJYSXWdXVYmvRLsml+jadEuecxnvAms3s2FU21t1wKjwgedl9MBuWwaaQtLfFJH+5oi09UTkoAbuA3pOZt080i3NQ1qGu6RXW3S9uqzKKZJTAhVaymWdX5/b9YWlUJ8btus1JVJ4SrUteeuqJKu4QrKKtGiXZvuXDwZtovt5on5jh/bJ2L6dMrZ3l/QdOiqNrX5p0tLYkiPPD+qIy0PttjSHNBTrTk0r+nhbcKJHYDsEEEAgvQIEXAJuemugQ49OwHXojeG0EEBgTgHTemi7JGvyCeqzmtV52i05L8euV2k4WldcLWuLa2RpZYXkr9BBjlZq0XV2sbYQ6nO3os+B2tF8ZzqSCbNmRGQz3Y8pZrqfwUERLUOdHdJ26PBEOST9bWEZ0FbcgXadAkhbcFv0nFr0/Fp0352hAenQvsudWga0C7JXl5rsfFmZU6ilSJbk5Euehts8n0415BuToiXF2rpeqaVCSlZoqa7U7uQVWiolO6jdlU3ruj5LLTris0+7Nduu5HN0XY7oM89j2ro+1nxYhlq0BV1bb9s7fdLe4ZP9x9plb6t2YdYBwBp7uqQ7EpIe7arcHdHnqu3fZxB1vVpPuW4EMkmAgEvAzaT6mrJzJeCmjJoDIYBAkgWigxxla6ttkT9bNpQEtARlo67rapZITd0Kqa5dIeU1teIvD0qgQouus3QqG9HnbX36jKedk3Wm89JuxhF9jtZO9aPrSLdO3dPZKZGuDulubZcXjhyTvVr2aOnrCclgX1gGe3WgKO163KMBt1f326NZzITa8TKsA0k5u+vxTBTJ+Lw4K6DPRgelQgejKtFndv3aXurXIbb8GnBLyoqkrKZc71WZVNaV6+BfFbJsZaUs1xIo0KmFzP0yUwv5Nezq/baDUM0xAFWk10zNpPdL71u4p0/69Dnp/t4xXY9Kw4FWOby3SQ7va5IjLe3SMNqvZUCOaNEno+3l8n+bknHX2QcCCCymAAGX/6VezPqVsfsm4GbsrePEEfC8gHne1hS/dkmu0PlYX1aVGyvlK1dJ3pqNkqsluGSpZAWyxOfXQai0+Eww0udD7bOds7UCmulkdBRkW3RUZNMiGGk2pVFam9vksca+WOkbCsmQjqg8OKIjKId1ZF69O2ENuWY9qqP0Rsv4U7fevHU5ah3Q53P9ujbFzORrho8y61KdH7dSW9UrC0ukXuciPmljpZy0SYuu80pLx6cVMs/jmjl0TWuu3nO71lbyGZew3j99LteOdq0jW4eHRyQ8pEXXrc81SfPTR+ToU0fk4KEW2RXulp2hLtmpazOqsu2ubLujz7h3vkAAAQTSLkDAJeCmvRI68QQIuE68K5wTAgjMJBAdwdfkmkIdpbdE56s1pa4wV87Sbq5naDlTS9GKFZK1ap1krVwrWTV1M+3u+M9NC6sJtto1eXR4WAa7e2Swp0eGenplpKVJQhpuw1patNXvyWMj8mTrsK6HZUADlBn52MyzGvZwK+3xoIl9UpSTJ+WBQi0FUltcLJvWlcrGdWW6LpOSklLJLSiT3HwtGoJzivLFX1Rg1z7zFxWzhdzo4cc0tOrIyRLWLsg6vVPXrhbpeLZZ2rU0HDgq27vbZEfPMdmuxYyqPKj3fzCic+YyhVBUkDUCCDhQgIBLwHVgtUz/KRFw038POAMEEEhMwLTVZWmgic7BWlfgl5XFQVmhZVV5gaxZXitrl9XImmW1kqfdkn3VtZJVVaODSZUldgCz1cigttgO6PO2A9rduE9baruk5Wi3tB7tkr72VunXMtDeotP9dMsB7ZZ8oDss+3U9rKMlm2BrimmtZTkxgbzsgBSa+XSzg1Kanyf1tQWyRItZ1xTq9EJ5ZfpstXZhLimXgqUVUrisQgq0ZAVy9EBaM2xDrv1H/AObe2L+4kKLWfc3dkvfYb2nhzul9ZB2NT/cZMuew/qXF/rMdItOIdQ6Nii9TCEU35NPEUDAEQIEXAKuIyqi006CgOu0O8L5IIDATAJ2SpqJbsmma/L60qBs1flVt+j8qRtrS6R81Wotq2zJ0VY/X36Bdm0189vqc5sJLpGBHp1iRp+17euSnrZO2bu/Q0un7NnXIR06522nTvfT1dsuXTrdT9fwqHSN6KBS+szt6FhEn9zU/2i3Vv51myD2pM3MFEMB091cB5HKzdFphQr9UqR/gVFYGJAVuSWyJlhuy/KKKik7eamUn6pF19l5ATtV0XjInSXgaqdj0VZcbZrX/47pvMXDEurWZ6J7hqS7sUOOPHtwvDxzQPYOd8vecI/s1SmEjo15d9TrSbeHlwgg4FABAi7/xnVo1UzvaRFw0+vP0RFAIHEBM2JyUMNPUJ/BDOozmFur8+T/LS2w5RTTmrdmky3ZupZEQ200kGpAjZiQ2tshY92ttnQ0H5NtO9vlGS3bdrTL0f5uOTasoUeLl6f7SfyOJWfLtTrd06k6vdCpOr3QhuoaqX35Gqk9e43U6DqgXdPNqMpmwLHx0ZVNa26C3ZYnTm/QtND/7x5pfXSvtD6yR57tb5Ntw3rftTSEB+zzuKZNnkmEknM/2QsCCCRPgIBLwE1ebXLRngi4LrqZXAoCLhSIPnNrw212ltTqVEC1+QFd64jJS8rklJVVcvKKSlmpXZOz6paJr1YHlNK1+AMza5jBg0xLnq7HhvW52Y4BLf229GvLbf9Ap/Rpae3olBcOjpfdhzqlc2hAurX7qimDHp7uZ2bYxflmiZ1eqEjMPLrLysqldvMyqT1pmdTourTIL8W5Pn0OWyRP64avsFhLkS12ELEETsnc+66dDdK1o0G6texuaZHnW1tll04hdKSvW7rN9EFjI9LDFEIJaLIJAgikUoCAS8BNZX3LmGMRcDPmVnGiCHhSwM5zqy1y2frsbaFOBbTJTAOkXZPNevnyOlm6ZoUsWbNcKpctEV9xmX3e1qzFTiEzA5kZcEiflRUt4d5B6d/fJn372uy6TbsoHxvRZ29Dvdpi2yuHW7vlyLFuOXysRweS0kGnNOiYcBsyv2dJiUCJTi9UqVMLVWTl6kjLRVJbXyM1S6ulRtf1pTlSXxSxpbw0VwcU03pQvWR8YDFt7R9fZuu6rONO9Q/JYGO7ljYZaGiXQ/ubZf/eZjmwr1kOHWuz0wc1hM00Qv3aCX18flz+L1VKbj0HQQCBOQQIuPyv8RxVxJtfE3C9ed+5agQyRcAEW/O8rZnrtkwHFDpbn7k9uyrPritXr5L8DRslT0tw6XKd01Zb8Eyo0fWsI+tOGmxouL1Xup48LJ22HJEjOh3QociQLY3hQTk20Ctt/X3SpmsTas0ztmYQKbqrpq4GmSmFAuYZXS0F/qAOOlUmNUWldr2uzCcbK8ZkY7mGXB2QKmv1eluyV60fb8W32Xb2gBsJ6YjZ/f2xcvTZRml6qkHLETlwWKcQstMHdem6O3bv+b9Uqbv/HAkBBGYWIODyv8Yz1w4Pf0PA9fDN59IRyACBfB10qEifuS3SUXZr83Se2xXF8tLlxfKy5SVSsnK5hpmJqYBql8x+NaZbsml90/+GB4Yk1DtgS19zp7RsOyRHnz6k68PSoKMoH/GFpEHL0bFh6dHuyL2hQbs24ZYl9QK+iVGSzTqg9aFCpxOq8GvR9eoSkXVlEVlfNibLaguleO06W4p0nV1QaJ/FtoOMmb/0mGnRv7iI6PRBdgohXXfubLHTB7U/d1QO6hRC23paZJs+l23KiE4fND5S9vhfdsy0Sz5HAAEEUiFAwCXgpqKeZdwxCLgZd8s4YQQ8JVCl08bU6xypy7LzZEVRkWzeVCObtGzeVCsFS3QKoCqdCkgHHpp9KiANpjqAlHnu1pR+HVSor6HDlnadIubQgUbtltpk18e0G3KHb1TaZVS6RedC1blTTZfkQTN/qknHLGkRMM9im8WMtlyk0wkVar0w0wrV5Pt0DmSRugJtwa3Ik1Wrl8nKVUttCeiIy77ySvGVadGuzTMupl5EW/U1wPY3dEvvETOFUJcc0RbcJw8fkScPHZKnDh2WAa0PQzrf8ZDWCeY7nlGULxBAIEUCBFwCboqqWmYdhoCbWfeLs0XAawIrdIChk/xFtqwvLZOlZ6yUpaePl2BlglMBmZZX00pngoyuu/a0SvuORmnb3iRN+pzlCzq37e62Frs2857qTLhaxmRYi53bNjLKM7cOqHimBdc8k+3X7uoBX45tzS3w+6QoYIqGXH0u+/TllXLa8gq7zlumLfxLV9piQu6Mi6kf9i8/xtcjvUN2+qBQz7A0NhyTx599YaLskR6dH7lPW/R7Q7oNc+TOSMoXCCCQGgECLgE3NTUtw45CwM2wG8bpIuABAdslVa/TNNpt0nD70mCpvDRQJqdWVkvJKzbESk5xXmIaZlCpcEgiIS3hsLQ8o89X/t8Bafy/g3Jw9xHZMdIh27WY9bCGWZbMEYgOQubT53Rr8/1ybn2BnFNfqKVAitesk5x1m8S/drNkmy7s0emD9Lnu2RcTdM0WEWlpapfHHt0ujz/ynF2367PYHcP90jnSr6252q2ZBQEEEEijAAGXgJvG6ufcQxNwnXtvODMEvCgQfc7Sr/PcmuctNxcVy1nl5fJSLSfVVUvBqatjJbsgd2Yi2ypnUoqZCmhEho/1aumR4bZeObKnSQ483yD7tRxoaJHDOmLyobCOmKwlZFryWDJGYPI0UmW5ObKlMl9eosWs61YslapVK6RaS1Fd3cT0QWYaoWKRBENuZ0ubvPD4dtn92HZ5QcvBnl452D8gB/tMyNVu6zYLa+d184IFAQQQSLEAAZf/9U1xlcuMwxFwM+M+cZYIeEUgS1vZCnKCkq+lQKeG2VxTKmctq9BSKZuXV0tw1TIJaDHrrFyd/HSmxXZHHn/m1kwF1Lu3Vfr2tEifrvc0HJXnm3V03OajcqCjQzrGhqRjdFg6R4f0yVuCykykTvzctvZrS79ZF+g0UiuLc2V5kXleO1fW1VfI+mVVsn55lZ1aKEunD/LV1NmphF6cRmq2EZYjMnCsXY5u2y4tTz9n18+198lzXQPyTOeANA+agKt/gaJ1jQHInFg7OCcE3C9AwCXgur+Wz+MKCbjzQOMnCCCwaALZGnBLAwVSoqXUXyAnrSiXMzdWyZmbqmTjmmrJrqy1JUvXPr8+eDnTos/a2ududT2ioaTjiYPS8fghXR+SHR2t8sxAu2zTsn94vNU2bJ6z1aBCvJ0J1Nmfm5jq17mPiwNBLQEpDgZla02+nFVXIC9dki9rNOhm6dRBZhohO4WQnUrKXNNsAVcHVm5vk6Gd22Vw+3N2/WhLvzzSOiiPHBuQA30jMqrd303ANWsWBBBAINUCBFwCbqrrXEYcj4CbEbeJk0TA1QIm1JpiRsjN1eBRU1yspcSuN6yskJPWV9myaqWOhltUrl1MtRRViGg35imL7SZq+oxGdCqgYZ0GaFBCfYM6anKXNG87aKcCan76oOzu75Rd4R4t3dI4Omh3wb8ip0hm5BvT+h/UKaWCWoeCWjdOKg/I1sqgnFYZkHVLyuwzucVr1kqJTiGUlV+gUwjliS9Xu7nPMoVQpLtLRg/slbH9e+z6ycYueby5Sx5r7JZ92pLbMzJqS+9IWIckG++qbOoSf1GSkVWIk0Yg4wQIuPzbO+MqbSpOmICbCmWOgQACswkEs/ySlxOQPJ3rtiQ3T1bWlcuqJVrqKmS5dk9eqmWZdlGuqtVgm6tzwuQWjK91NN0XF40UZjAp05KmrbEDLT06DVCnLR2H23Q+00Y5uF+LrhuHem2wNeG2Q+e6ZXGHgHke14ywnKPFr89vLy3MkVVFfllVnCMrK4tk1cqlWurt2l+pUwjZaYR0bebLnWGJDA5IpPWojNnSIvsPN8s+LXu1HGjtksN9ITnUG9J12I60bVpyR7X+0WV5BlA+RgCBpAoQcAm4Sa1QbtkZAdctd5LrQCBzBcwztyX+fC0FUllYKJvXVWuLbbVdV9VWSHGlKeWSX1qirW0B8WkrnVnbYZajl21azXQOUxnVrsk6p2nX/mPSvr1Z2nY0S/PeZtmt3ZJ3t7doaZXO8JD0RcLSZ6YEYtTkqGDGr01nY9OKGx1ZuTiQLaXB8bKsJFdO178oOX1puZyh6+CyFZK1fJVkLVtl58qd8eLN6Nv9/RIZGC+dB/ZL5/790rFvnxxqPCbPtI/ItvZheaZjREa03pkS0jKq3ZZZEEAAgcUWIOAScBe7jmXk/gm4GXnbOGkEXCVgwm11sMiWep3rdstL6mTrliW6XiLFVRXaJblMW9m05M3c0mZab8fMqLYjOnutro/pHLeNjx3UckinAmqQnSOdsiPUoesOGdJQy78SXVWF4l5MNOiaKYTqdAqhc+ryteg0QloK160X/4bN4l+/SXJqdAohM6qybhd/dGXT7d0cQgeU2v+CjO7dJWN7npfDh5rkkaYB+VvToC2DOm3QkAbiodERO39y3JPiQwQQQCCJAgRc/m2exOrknl0RcN1zL7kSBDJRwIx+WxPIk9W5ReOlrEzWnrZC1mlZu3WFFFRqsNUuyaJdk3263UzLmD4DOdzSJcPabdSsG/Y122mA9u9ulANHdCqgcJ+dBsisQ+ZpSfu87kx743M3CEyeQqhcpxB6SblOIVSRJ1u01K5aLjVrV0rVmpVSPDGFkBQU6V+k6BRCZgLmKcvEE7WmF/zRRok0H5Gx5gZpPHxU/r63Q0u7Lb0hHa07NKRlUEZMbwIWBBBAYJEFCLj823yRq1hm7p6Am5n3jbNGwA0C0SleVmlwPSWvSE7Vsknnu609Y63UnalF18Ey7ZasoyX7/DolkOmaPMMy2j8svbubpG93s5Ym2avz2+48elR26nRA+zs7dAognQZIn7c1he6jMyC67ONo/TLrQp1CaHmhTiGkZUVRUNbp1EEbV9bI+pXVUrtUR+Su0umDtJj1jK246hPp6dbSJWbwqeYjrfLEcw3y2LMN8oSW9uE+6QxpGemXQW3FZUEAAQQWW4CAS8Bd7DqWkfsn4GbkbeOkEch4gcnhY5OOZvvy/EI5O79IXqLP2hadtUmKXrrZrnNKtVuy6Tpqy/SWtRcZQt0D0vGPfdL5/9k709hIs6v8P7V6q/K+7/vudu9ud/dMz9bzFwQpIRLhSwhI8CEiRPkUNEOIhAQhQ4QEURIh8gUSECAQDAlfQtIzPcx0u1f3arf3fV/LdnmrKrvqf+7rtqfs8eu23V5qea7nzHnr3e/v3u72U/fec+50ab5Z1to+XJwUm0KnpAJakTWRKs6t8s/H4z69mFshTUD1GpVCyC5flKgUQnZJJXQmy4YLOXbU5dhQmJcm63ElsnJeseY/zZG7DRZZX4uVFfjExoem8PBOOx7eVtaBseVZjLvmxGaxIF+osJAACZDAYROgwKXAPew+FpT3p8ANymbjS5NAUBNQ4laLdCtpgVTU2ypJC3RJpiJfSkrEyYwURNQUIVJMeaMtWr+uKtftqgQBEtHhmp7HcEMnhm91YaihC60zk3gq626fehzoW1nQvwePhAWBtRRCZlhVGiGxs6nRuJguX6qkx8hobhoiSstgLS3VvMEs6afUNGVtqrL+lyrTYw60N7ajrbED7Q860OOYRM/stNgUZpbX0k+FBVxWkgRI4NgIUOBS4B5b5wvkB1PgBnLr8N1IIDQJqOA/0aYIqOjJylelJ6OuIAP1YtX5GbDkpMOSqyxN1t/K1GS9IusdfcsS3da1iMWpGXRKQKnOe/1ifeiemUaXR3KVumcxurKodwfuDxMCqs+pL1XW7WScHecSYzUrkf4WW10Ee3UxYmtKZDq8RSYMSAqq9cBTOozmp2cx0t6DkbZesR48GRzFk6Exzcbm5nWu4m4SIAESODgCFLgUuAfXm0LoThS4IdSYrAoJBAkBk0w3jpeUQAnWGM1XFmbi7Il8nKstQEVZNkyxdhjjbDCKN5j9c91urqBvySkpXBzA/AycE1N48nAITx4Nix/GgKyRHHU7MSLmWOFo2mZy4fdJjcOqUVwVeEr5qug4nLLF46RE5y6VNbjJpwuQfKYQKWLGCElBZTKLyJU130rk6hT3vBPzQ0Nig5gfHkRD6yBuSsTum20D6J+c07mKu0mABEjg4AhQ4FLgHlxvCqE7UeCGUGOyKiQQJAQsMjU5TaImp0fGalZemY/aC2WorS9DSXWeiArT2gianPeZiLZa9OO1VbSrTgdWHGNYdUhu29Fx3GseR+Mz5ccwPufEjAT7mXUvYkHy3rKQgD+BEks8qqyJqBAryUxD1tk8ZJ/LRdb5PJijo0TkRsIQESFfsMh0ZZ2izR6YGYdvZkyzDx/24pqyB73oHHGoWN3wSn/lqm8dgNxNAiTw0gQocClwX7oTheINKHBDsVVZJxIIbAIRMipWYrNvWFFFAQrPVWiWWZEvmvZ5UClt9MxvDaQSt7Le1uf1aF6N2k4PjsAxNIpRiZrc3DuJZ2JNYo5FJWxdmrh1yTpdFhLwJ5BpjkGu2Y4csw35iUkoLMtEUWkWisqyEJWegAhlafEw23dYA+6WKfLOafjmp8Q7cFuE7e3GPjQ09qJLAlA5vW7MSbAp5VlIgARI4DAIUOBS4B5Gvwr6e1LgBn0TsgIkEHQEok1GnJboyKcTxMTnlsvU0JOVSDldjfjSAqmPiFpN5PqJW1VLFQFZRAXU2luxsf5x9HYMo1+st2cU3RMS4GfCge7xacy7XVouUpWPdEUFo2IhAT8CcUYr4o0RSJA14FmS+7YyPVUsTdaDpyGuNBO2cjERvRFpkqZKr6y4oU2TX5Sp8ktzaGrsx5P7fXgqa8C7BicwLCmDRsVGJPcyCwmQAAkcBgEKXArcw+hXQX9PCtygb0JWgASCjoDNbMSVlBi8JnYlOQYZpSpicrVETq6BtahI07fP/7e5biJU14JKzYufR3f7KJoeD+LpowG0d4xiZFECSi1I4B/xbhnpVVND1d9x6oeFBPwJyCR4mOVLFGVp5kicikrC6WixqEQkny1E4oViJIhF5yf7X7Z5W80mUF+2uGWNt3zx0n2/H913+9GlrH9U0lNNo1MieXe6ZJ04CwmQAAkcAgEKXArcQ+hWwX9LCtzgb0PWgASCgYAK7KOCSylBERdhwWtZcXg9RywrFilF+TAVl8FcUgZjTq5+dVRKIEnD4p2TKaFirSJw7z0exv0nI2juGse0jJY5ZN2twz2v5bvVvxGPkMCnBBJlJLdG1uRWW+M1n32uEJmXipFZX4y4wlQYJOCUCjql2aeXAeoLFzX9XY3krngwKlOURxp7MCzW3TeCpxIArWlxBk3ita9Z1Jct2hcu/jfhNgmQAAnsnwAFLgXu/ntPCF9JgRvCjcuqkUAAEbAYzYiU/KORJisSoyJxuTgFr5ak4JXiZCTnZsOYmQNjVi6MKWn6b+1xwTs2BO/4EHxiTzvHcLN1QqLXjuNpv0Nbb6vW3c6vLmvBffRvxCMk8CmBWJmuXGiNRaElFkXWOBSfykVxXT6Kz+UjpUBSVUVEARHRa15Nn18vMmV+TeSuaN7xpBOaPe7QBG7jzBwezIrNOLEq566KIF5R0+zVWnIWEiABEjgAAhS4/Bv1ALpR6N2CAjf02pQ1IoFAJKCErd0SBZtMB02x21BfnYWLNVmaT8yUUbL4FBgTkmGwx+u/vmsJ3r5OePu7xDrxoGcC17sc+Kjbgccjc/D4VuEREaGM05L1MfLIZgLRkg4ozWpDulUie4uvln5ZezobJ05lI0sJ3Jg4sXgYJLXQ5qjeIlSVWPWK0BW/1NKKpWfKWtDTO4Jbkwtii5r3rKp+uQLlvUoYs5AACZDAARCgwKXAPYBuFHq3oMANvTZljUggEAnYzRFIjLAhSXLfZsTF4eyZfJw9W4Az4uNTkmCItAFRNhisW6LWKvGgmQiDxXm4O1s3rLF/EtcHnZo9FiHBQgL7IWCV2QWx0u/ixGIlP/PpijScrc7Auap05OWnwRyfDIt8AaP8RvAzyae7tXilb66KeTtb0CdTlD8eWsAnw4uauWQK87JMZ1YRvRn0bCs5fiYBEtgvAQpcCtz99p2Qvo4CN6Sbl5UjgYAhkGqNREFUDAoiY1CYEI+SM8UoPSsmPiY5QYRtlFgkIELYv/iWRLguzEkqljm4HdMY6+4V69f8s7FZPJpYwGMZKeueZa5bf27c3j0Bs+RdjpZoytHS95RV5CajqiAV1fmpyM9NRYLMMEjISoU208BslT5qkXW5Fi1fs/9TvCOD8I3IFPqRAQz2j+FWxyRud05p5lxZglMCUs15lrTo3v7XcZsESIAE9kuAApcCd799J6Svo8AN6eZl5UggYAjkRUSiNiYGJ8SqkhKQfrYcGWLpZ8oQkSjTkiWIjyYaVDAfv+KbkYBSEyPwii2OjqC1dxytfWLiex0L6J9bQr9zCeNLzDXqh42beyCgAqCpUVyLCF3l85MTUZQquXFTElGQnYLcYhnJLc7QvDFS1uKqL2PUulwlcv2Kb25Wgp/NaDYiKazuPxlEo2YDmJIAaFMS/GxKgqAtrbKv+mHjJgmQwEsQoMClwH2J7hO6l1Lghm7bsmYkEEgEyiWw1Kv2GFyW9bdnUhIQc7YK0WerxVfDFG9/vrZR5b/dPPXTp4JK9XfI2tsOzPb1oWHAidv987glfmx+GfMeN5xuN5ZkCigLCeyXgFH6nfYjPi0qFpnR8cgQK8hMRvWJTFTXZqJKvEly5hrkuCHKDoNl82wDyPpaZT5JHzQ+OInHtzrw5E47ntzuwIhL0lctz2BU/Pyqa7+vyetIgARIYBMBClwK3E0dgh/WCFDgsieQAAkcBgElFtSImMUgJr4yzoZX0uJxOTUeZzJTYKkshrWyRPNGEb56ZXWwHyttbfC0tWC6qwefjC7gxoisbRyV0bBlt5bv1i3rGlVgKRYSOAgCCbION1GCTSWKL8hIwhkJNnVOTHmzXabT2yTglAo6JSO5emV6VHLgNnag62EHOh90oktmInTOTIqfhmOZ68X1uHE/CZDA3ghQ4FLg7q3HhMnZFLhh0tCsJgkcMQE1ImYzRWpRk21qXWNaIi5ITtG6wjSckMi0puxMmHPEsjNkNEzW3uoUj6y3XX7SCteTFky2icCdduLm9DxuiHe41wL2qKA9Kg0LCwkcBIEYWY8bI31WRfzOT0vAxVM5uCSpg5Q3x0mk71gJimYXk9RBemVhSkZr23sw1t6LUem3j4fG8GhwTPNjcwvaZYz0rUeP+0mABHZLgAKXAne3fSWszqPADavmZmVJ4MgImGRdY5KMgmlmsaG8IB1nanJwqiYbleVZMEokZYOY5s2b1936v+RyWz8W77ZgQWy8uRs3JOBUw7yIXAk6NSsjt15JzyKZRZlb1B8at1+KgPn5rAM1+yBfZh28JuL2jVP5mrckSNqguBRJayWprVTkb53icc5hYWgQC8NiQwO40TaEG61i4gem5yStkPqP+XB18HE3CZDALglQ4FLg7rKrhNdpFLjh1d6sLQkcFQElDrKi4pAVuWalpdmoPl+IqnNFKBKha9Ci0UbIOkaJSitieFNRuUWViQBYaO7HbEMrZm62YuRJD267ZnDbPad5J6clb8LGDwdPIDc5FldP5Irl460TebCmZMCUnAGjmCFG1o7rFN/yPHyOMbFRrIp9+KgfHzzs03z36AxUpmY164AzD3QAcjcJkMCuCFDgBrHAbWlpwQcffKA19B/90R/tqsGP6iSHw4Genh50dHTALYFO0tPTUVVVhczMzKN6hZd6DgXuS+HjxSRAAtsQUOtvrUYjymx2lElQnnLxhaW5yDtbirwzpciszNMi0BpUxGQVidY/sJQIW5+MzEIFjZJos9PPhjBypwujtzvR39yHJxKk57GY8gvelW2ezl0kcHAEsmXt+GsFmXi9IEvz0QW5iCjIgVXMLOmu9IrPvQSfc1oz75ykCnrQj1sP+sT3oXtkGk4JNDUnpjwLCZAACeyXAAVuEAvcz3/+82htbdXavk2Cjey2KGH8hS98Ybenb5ynRPTXv/71jc/bbdy8eRM/+9nPNNt63G634zd+4zfwJ3/yJ7BaZXQigAsFbgA3Dl+NBIKQgBK3qkSZjDgj4uB0rA1nxeeW5iHpdCWSTlUgvqJQNK2M2krwKYgQFoWrXaP9T0a1fC4RB24JxCMiYaR1BD33RBTc70V3yxA6lmfRIaO4HSJwlyhwP+XGrUMhkBkVjcspqWuWnIrY6gLE1BQi5kQhrOmJ+s9cccO36IRvyQnv0hye3O/H4/vyBY1Y99AERiVtkLIxMRYSIAES2C8BCtwgFbjvvPMO3n///Y1234vA/a//+i+8++67G9fuduNFAvcf/uEf8N57773wdpcvX8b3vvc9JCUlvfDc4zqBAve4yPO5JBCaBDSBK3o1xmTClcRoXEmIxmviM0oLEHmyBhG1NbCWFUvl5SRN1/qJW4VEph0rUeATUaB8b9sYnj0cQvODIbS1jWJQxO2QpFsZFIHrpsANzU4UQLVKl0BTdZEJuBApQdLEEupKEH+xVKwMkXnJ+m8qqYJ8HpfYsnxZs4xO+ZKm847YvX50DYyiyzWNbpfMABNjIQESIIH9EqDADUKBu51A3YvA/cEPfoAf/vCHe+4zOwlcNWr7x3/8xxv3LC4uhhKyNTU18Hq9aGxsxL/9279tHFf7//qv/xr5+fkb+wJpgwI3kFqD70ICwU/AINON1Y/NYsIbWQmavSk+vTAP5rJSmEvLYMqXKcp6RYSBd3YSvtkJsSl0tI/hQdMoGp+I0O2awKR7XsyJKfEeH1MD6WHk/oMhkGyMQI01DicscagRy7pQgoyLJci8VAp7Qao2C8GgzUSQ2Qj+RX4f0Kbay3R7n4zmDt3rxuBdsfvd6OobQfOSA82LDjxbmvG/itskQAIksCcCFLhBJnC/853v4Kc//elnGnkvAvd3fud3cPfuXe0ev/mbv4kvfvGLn7nfdjuysrKgbGuZmZmBmi49OjqqHVLi9vvf/z6U9y+/+MUv8I1vfGNj19tvvw0ltgOxUOAGYqvwnUggOAlo0lYNzIrItVkteLM0U7O3SrOQlpcNU1aOpAfKhjE1Xb+CHje840Nig/CJNXeN43brBBpaJvCkz4H5lWVt3aLyDNCjj5FHDoZAnNGKAqusIbeIiS+RIGnFdUUouVCM5HyJpGyJACyRa97/kSptlZqNoAKhra5iqrEdk/fbNN/ZN4z7EmW5cX4WDyQaOAsJkAAJ7JcABW6QCNyhoSF87Wtfg1o/u13Zi8A9e/YsnE6ndpvvfve7uxa42z1X7fvHf/xHqPusl//8z/9EdXX1+sdNfqvI/fd//3fU1tZuOicQPlDgBkIr8B1IIDQIrAlc+b8IXHuUFW+eLMZbp4pw9VQx0rLSYYxPhjFB5RDVD84Dmc7pHegW6xTrwqPucfxf1zSudzrwcGgOHpmW7JaRW48SD0yzEhodJ4BrEW20INUas2aWGNSeKcDJs2LnCpGZLymDImIkXZCyrSmDnkcCV0HTZDR34eEzLDQ2a76zdwifzM7jpliDGAsJkAAJ7JcABW6AC9y5uTltxPYnP/kJ1PZ6KS8v3wgwpfbtVuAqofzGG2+s3wb//d//jYqKio3P+9nwD3b167/+6/ibv/mbHW/z1a9+FdevX9fO+fKXv4xvf/vbO55/HAcpcI+DOp9JAqFJYH16slGN4EZH4mp9Jd66UKn59AyZzhlpFyEgFhGtC8C3vARXZwvcYq7OVjzsHcdHA7P4sG8Gj8YXdK/jARI4DAJWo1lmI0TBbomSafdRqJMUV3WSLqj+ZB7y8tJgjE2AKTZe87rPF5HrefQUnodP4RZTAvcDxwKui33kkGBqLCRAAiSwTwIUuAEucF9//XUMDw9vat6vfOUruHr1KtRU4/WyW4F77do1bSR4r9etn7/VP378GF/60pc2dv/93/89XnvttY3P220ocatEriqxsbH4+c9/joyMjO1OPbZ9FLjHhp4PJoGQI3AQAteztITxpmcYb27GhPjmwQk8HJ/Dw7E5dFAMhFyfCfQKmWV9baTJiijJ2xwl/nxBBuoKM1FfmIX8vAxEZKfBmpOu+U3prvwrRoHrT4PbJEACB0iAAjfABW5ZWdlGc6scsn/1V3+F8+fPa2to9yNw/QNMqfv80z/908b997Ohrv+Lv/iLjUs/+uijF4rVkZGRTSJYRVRWo8CBVChwA6k1+C4kENwEDkLgLi8sol2mcnY0Nmm+a2QCPTKNs3vWiZGFpeAGxLcPOgJqNoJFRnEtInTN4s8nJ6NO0gZdECvKy0R0VS5iqvI0o8ANuublC5NA0BOgwA0Cgavyx6rcsf7BoFSQqP0I3D/8wz/EBx98oHVcNRL8rW99a1MnVlOYtwsktekkvw/f/OY3tRFYtUul/WloaPA7qr958eJFTE1NaSf8/u///qYIzPpXHd0RCtyjY80nkUCoEzgIgTvvXMT9hqe4e/Op5gcnJjG9vIBp1wLmZH0uCwkcNYGN4GkSHfxcZLykDVIpgxJQnJeFuPpSxEnaIOVh3JLyav1FOYK7ToKeBEjggAlQ4Aa4wFUpgfyF7Xr771fg+k95VoGh6urqtJRBd+7cgRK3qqhpw2qNr1qbq1IDqc965bd/+7fx6NEj7fBeRoT9IzlfuXIFP/7xj/UecSz7KXCPBTsfSgIhSSDKYEKcyYxYGelKiYnBhfqK51aJpLRkLSAPZP2tQaLObipaxFlJqyKBo+bnFnC7oRm3bjaJf4bhyUnMuhdF3C5iQSIns5DAcRI4Y4nHOWsCzlsSUCICN+FSCRJfKRNfCoPJKK+mhRHf/IoicFfaOrDS2g6P+B6JovzxyCw+GZnDjdFZLWCayums0l4xMvhmdPxEAiSwMwEK3AAXuHrNtx+Bq4JUnTt3buOW61OdN3Zss6FGc9977z1tWvQ2h/G5z30OnZ2d2qG33noLP/rRj7Y77TP7VERotR5YlaqqKighH0iFAjeQWoPvQgLBTSDZZEGeOQq5pkgUyIycMhG45fXlKL9YAXtqopZKxWCWtCqynnFTkdy3KlcoxJwyFfn27VY03GrR/PDUtCZulcBdXHFtuowfSOCoCZwSYXtGBO4ZayJKcjORdEnSBYnITRZvMEkuXIOIXM02j+auDg5CM/mCvb9vFLe7JnGnexJ3xdZSX0n6K/kCRwldFhIgARLYLQEK3DASuFtF8dZOsjUys/9xNUX6d3/3d/13adtq9HU9/63KqavE8G7KO++8g/fff187NScnZ0Ps7ubaoziHAvcoKPMZJBAeBHLNkai12FBrtaFKosumXyxHen2Z5iNTJDWQjOwaZIQXsp5xUxFh63MtwedegnNmFrfutuPWnQ7Nj0w5MOeR/RS4m5Dxw/EQqBWBe1LE7WlrEopF4KZeLBQr0gxm6d9GEbiqfyuR61e8M9PwiSk/1D+Oh09H8KBpBI+ejWDS7Xxu81halS96WEiABEhglwQocMNI4KpUQ3/5l3+5qWsoUfr1r39907pblWtXBaNaX6u7fsF2KYXOnDmD+fm1fHVKACshvJui3kO9jypqCvS9e/d2c9mRnUOBe2So+SASCHkCpZJG5VJknFgszsYnIUZGb20XymCTEVxzUqyWH3e70S3v0iK88054nXOYm5zGrUfdaHjYjdviRxyzWPAsY15E7pIa5WUhgWMkUCFTlKtE5CorlujJWRcKkF2/ZgaLzE6wWGFQMxS2fInjcy3KlziS5kr8aP8knt7vx9PGfjQ9GMDw8gxGXDOaX1jlLIVjbF4+mgSCjgAFbhgJXP9RU9VT1XRiNa1Yr6hpw+++++7GYbUmV4lc/+If5VkJZbVmdzflhz/8oSai18/dbZqj9fMP21PgHjZh3p8EwodAWUQkXrXF4hWbHecTExF1vgLR5yrFV8KU+FzgbrNG0TM5C9fQOFyD43AMjMn0zUHc6hrQ/IR8sbgso1rK3DKVmYUEjpNAtikGuWYbcswxKMpMQcXZPFScy0O5mDFG+niU5HmOtovQFbHrV3weEa5iyo+LwG2624Pme71ovt+LIZcDgyJyh5YdmKfA9aPGTRIggRcRoMANI4Gr1uC2trZCeVV2ErfrHcc/GJTap9ICqbW76+X06dNYWJBvX6XsdwRXRYm+f//++i0DwlPgBkQz8CVIICQIVERH4rU4m1iMpFJJQMTparEqRJyphilBBfHbJgCP7F3un8B8cz8Wmgcw0T6IOxOyRnF8TPyYRE9ewooEn/KIMQBPSHSToK5EnNGKeM0iUJgmAadO5aBO7LyYMT4FhrjnFhm9uZ5qnblaX7u6qgncZ7c78exOF1rEBkTgDoi4HRCR61xlILXN4PiJBEhgJwIUuGEkcHfqCHrHVGTlN954Y+OwGqFVI7Xr5dVXX8XY2Jj2cb9rcFV+3+vXr6/fMiA8BW5ANANfggRCgkClLQJvJkXjjaQY1Msv/5baGs3MtSfkl/843ToutAxhpqEDjoZ2jD7uwd3ladxxTWt+1uuBBKGFT35YSOC4CRjlSxqT5MZVviDFjjdrsjbMnJINw7pFb83KoHVieX0fJmQEt+VmO1pvid3uQJ+I2z7p8/3i5yhwj7uJ+XwSCCoCFLgUuC/ssP7TkLeK2F/7tV9Dd3e3do/9RlEuLS3F//zP/7zwPY7yBArco6TNZ5FAaBOoUgI3OVqz+vR4mE+cEFMi94SMbOkL3PnmQTg+aRdrxYisu73rcayZewazPk9oQ2PtgpZAfooNb1dniWXiqnhTmozipuTCkJoDQ4x+f1cCt/VmG1rlC53W2+0bAlcJXQrcoO0OfHESOBYCFLgUuC/seP7TlLfmuv2t3/otPHnyRLvH1mM73dj/nipQ1b/8y7/sdPqRH6PAPXLkfCAJhCwBCtyQbVpWbBsC+clK4GbibRnFvSrelJoLoxK34ilwtwHGXSRAAgdOgAKXAveFncpfjG4VsWq68i9/+UvtHikpKbhx48YL76dOuHz5MiYmJrRzv/zlL+Pb3/72rq47qpMocI+KNJ9DAqFPgAI39NuYNfyUwIbAldFbTeCmUeB+SodbJEACR0GAAjdMBO56gCnVqVSgqTfffHNTaqCdOpv/FOWvfOUr+Na3vrVx+n/8x3/gT//0Tzc+f/zxx0hLS9v4vN2GWrOr1u6ul+9973v4/Oc/v/4xIDwFbkA0A1+CBIKWgOH5ekTlK+0yRTk1Bq+nRKM+IwHm6uoN4xTloG1ivrgOgU8FrpqiLCO4msBVU5R3HsGdkinK7Q1t6BRrlynKPTI1uUusW2x2hUGmdHBzNwmQwDYEKHDDROBuDRal8tWqqMcvKkoYnzt3buO0rdd1dnbic5/73MbxH//4x7hy5crG5+02VECpr371qxuHfv7zn8NfRG8cOMYNCtxjhM9Hk0CQE5CYyLAYzTBLzk/lKxOi8FqWDVcyYnAuWwRuaTlMpRUwlVXAIKmD9ArX4OqR4f5AJrBfgTs3MIGBhhYM3W7FwJ02NC/NoHlxVvwsplYklRADqgVys/PdSCCgCFDghonAVb3u9ddfx/DwsNYBt8tpu13P/M53voOf/vSnG4c+/PDDz4z8KoGrhK4qX/rSl/Dnf/7nG+dvt6HE7XrU5PLycvzsZz/b7rRj3UeBe6z4+XASCGoCBokkG2W2ItJk1XyFjNy+kmvH5Tw7zuQlwJhXAlN+CYwFJZIb1KZbVwpcXTQ8EMAE9itwFwfGMXX7GabutGBS7P7inGaNi06MisBV+pYiN4Abnq9GAgFEgAI3jATuO++8g/fff3+j+333u9/FF7/4xY3PWzdaWlrwhS98YWP31gjK6wf+7u/+Dn/7t3+rfUxISMA///M/o7i4eP3wJv+LX/wC3/jGNzb2vfvuu/i93/u9jc+BskGBGygtwfcggeAjoKYl2y1RsJkjYRNfkWHDxaJY1IudWC2RzgAAFKlJREFUKkyEIbMAxowCGLLEImN0K0iBq4uGBwKYwH4FrmdwHIt3msSaMX/vGW4szONjsRsLTgx5JC3WmsKlyA3gtuerkUCgEKDADSOBq6Ypq7WuTqdT63+xsbH40Y9+BBU4amu5du0alPhUU5RVsdvt2khrVlbW1lMxPz+vjdx2dXVpx5S4/f73v/8ZkbtV3Kanp2v3jI+P/8w9j3sHBe5xtwCfTwLBS8AoAjfRYkOCNQaJYuUyLflcZTLOViSjujQFhqQMGJPSNQ9r5JaKrucFBZySJmj6RjumJVWQShN073maoHtuSZvCNEFbuPFjoBDIT47B1coM/L+qDM2b0vNgTMuDQbzBpv/v/er4NFzNXXA968KS+P8bn8RHY5P4P7GBxSXJ+6wkrvyoBNAsJEACJLADAQrcIP2b8u7du1DRjddLW1vb+uaOXgnXr33ta5vOUflr6+rqoKYLq/uqkVt1nn950Wjvv/7rv+LP/uzPNi5RIlet3a2trcXKygoaGxs3jR6rE9977z2oUeFALBS4gdgqfCcSCA4CJoMRadZYpEXYkS6+tCAVJ09moVasXH7xhy1O0qXEyy/7khPUbNlcKe2XdyVyfZhrHsLUjQ6xdgw/6sF9Ebj3PdO4T4G7mRk/BRSB/CQRuBVpeFtZeRpM6zMW1KwFu77A9c464RkYxsrACFzir3cO4HqHmPj+mTl4lcD1eTUfUBXmy5AACQQcAQrcMBO4qgf+5Cc/wQ9+8IONkdydeqUauVWBpXaayrx+/a9+9Stt/a2Kkvyi8s1vfhN/8Ad/8KLTju04Be6xoeeDSSDoCZhF4OZEJIjFa1ZSko3KukJUni9AUW2ORKCywiBrdJWHnLupyC/w2j9L4ueahzF5sxMTn3Rg+HEPGkXgNorAfeCe5gjuJmj8EEgE8hOjcbUsVcRtiubNWYUyLb8QxqwiGGITdF/Vt7wM7+wMVmdn4Zlx4MMH7fjgQRs+fNiGvrFprHrXxK1X/mywkAAJkMBOBChww1Dgqg6hpisrkeu/JndrR1GphFRKoO2mJW89d/1zf38/VNofNRI8K/9IbS1qirSyS5cubT0UUJ8pcAOqOfgyJBBUBJTALYhIRH5kovgklJTnovRSKcrE8k/l69dFjd6uylpDmfWi/NSzYQw3dGnW/6QPTSszeOpR5sC8T85hIYEAJJATL1HDi5LEknGlMBlR+cWIzCtGhARXM8cn6r+x6vsumYrsXsTK8gI+aGjCtZtPcU1839AEVkXYrolcClx9iDxCAiSgCFDgBqnAPcjuq8SoWmurpiardbkqwrKarqy2X6Y0NzejqakJq6ur2npcNW05MXGHf9xe5mEHfC0F7gED5e1IIIwI7Fvgelfhk4ixviWJkyB+oGUYrfd70Xq3Fx0tQ+hbWUD/6gL6xJZ9q2FElFUNJgKptkjUZsTjZGYCTopPLy9DWkUZ0ivKYUtO1q8KBa4+Gx4hARLYEwEKXArcPXWYcDmZAjdcWpr1JIGDJ7Bvgbu6At/MhNi45tvahnDv0SDuij1tH4XD68aMmMPnxgqnaR58w/GOB0IgLsKKvPhY5CfYkR9vR9mpKpSfrkTZ6SokZ6ToP4MCV58Nj5AACeyJAAUuBe6eOky4nEyBGy4tzXqSwMET2LfAXXHDOz4A31g/fOP9eNgxhA+aR3GtaRj3uqcgq3PF1tYhMo7swbcb73gwBCJMFsRHRIvFIN4ajfOXalB3sQYXLp9Adm6a/kMocPXZ8AgJkMCeCFDgUuDuqcOEy8kUuOHS0qwnCRw8gZcSuGN98I32wSsiVwncXz0bwS9F5N7tmZTIymvvqlKlsJBAoBKwisCNlfzPsSJu7ZZo1F+uETuBi6/UIocCN1Cbje9FAiFFgAKXAjekOvRBVYYC96BI8j4kEH4EXkrgirj1icj1imkCV8TtL0Xk3pURXFUobsOvPwVbja0msyZslci1i8itlxHci5dr1wRuHkdwg609+b4kEIwEKHApcIOx3x76O1PgHjpiPoAEQpbAgQhcEbrrI7j/2ywCt2dN4IYsNFYsZAhYjSJwrSJulcAVq1fiVkZwL6kR3Lx0/XpyirI+Gx4hARLYEwEKXArcPXWYcDmZAjdcWpr1JIGDJ/DSAne09/kI7rA2evtLCtyDbyTe8dAIKIFr2yRwRdyKyKXAPTTkvDEJkMAWAhS4FLhbugQ/KgIUuOwHJEAC+yVAgbtfcrwuFAhQ4IZCK7IOJBDcBChwKXCDuwcf0ttT4B4SWN6WBMKAAAVuGDQyq6hLgAJXFw0PkAAJHBEBClwK3CPqasH1GArc4Govvi0JBBIBCtxAag2+y1EToMA9auJ8HgmQwFYCFLgUuFv7BD8LAQpcdgMSIIH9EqDA3S85XhcKBChwQ6EVWQcSCG4CFLgUuMHdgw/p7SlwDwksb0sCYUCAAjcMGplV1CVAgauLhgdIgASOiAAFLgXuEXW14HoMBW5wtRfflgQCiQAFbiC1Bt/lqAlQ4B41cT6PBEhgKwEKXArcrX2Cn4UABS67AQmQwH4JvJTAHeuHT9l4v5YH91rzKK5JmqB7kgfXCx+8Pq+Yb7+vxutI4NAJRJgsiLNEI14szhqNuks1uPDKCVyQXLjZeWn6z2ceXH02PEICJLAnAhS4FLh76jDhcjIFbri0NOtJAgdPYP8C1wPv5CB8E2v2pHMYH4nAvd40isbuKXi8K3CLKU+Re/DtxjseDIFokxWpVjtSrDbNn7pUBWWnX6lCRm6q/kMocPXZ8AgJkMCeCFDgUuDuqcOEy8kUuOHS0qwnCRw8gZcRuL7pEXinhuGbHkZz5yhuiLj9ROxh1xQWV11YWlHmxqqM5LKQQCASsJsikB0RLxaHbGs8qi6Vo+qi2OUKpOYm678yBa4+Gx4hARLYEwEKXArcPXWYcDmZAjdcWpr1JIGDJ7Bvgbu6Ap9jFN6ZMfjEWjtGcatpTLPHXRNwupfg9IiJX/GtHvyL844kcAAE4k2RKIxMQlFEovhElNSXoPhiKUoulSIpN0n/CRS4+mx4hARIYE8EKHApcPfUYcLlZArccGlp1pMEDp6AJnDlF/t8+QW/QHxxeR7K5Jf7Uvklv+BUvv4DvavwzTs2rLd9FE8eDeLJw0G0tI1h1D2PEc+C5l0UuPoceeRYCaRERqM6MRnVCSmazz5ZjMyTRcg6VYTY9ET9d9ME7iJ87kWsLC3gg4Ym/EpM+d6hCW39+apXrUHn7AV9iDxCAiSgCFDgUuDyT8I2BChwt4HCXSRAArsisG+BK7+4+5YXAZf8ku8SIds6gu57vei624Ou5iF0eubWzO3Eom9lV+/Ck0jgqAlk2GNwPjsNdWLKJ5bmI760AAliUUkJ+q+z4tHErU/6/8rS/IbAvSYCt294Aqve9SBrFLj6EHmEBEhAEaDApcDln4RtCFDgbgOFu0iABHZFYN8CV6IkY1WmHksQKZ/4mWdDGGvowNjNDgw+6cMjz8yauWfgpMDdVVvwpKMnkJtow2tlGXi9LBOvlWYgMjsPEVm5Ynkwxcbpv5ASuPLFzrrAvXarCUrcXmto3hjBVcHVOIKrj5BHSIAE1ghQ4FLg8s/CNgQocLeBwl0kQAK7ImAyGJHzPMiO8iXF2ag6X4hKseITuYDFClitMChvNOrec755EI5P2sVaMfKoG3c9jjUTgTvr8+hexwMkcJwE8lNseLs6S7OrNZkwpebAmJILg3hDjL7AXXW54JmbFZuDa2YWHzW24npji+b7xyRNlohbH9NkHWfT8tkkEDQEKHApcIOmsx7li1LgHiVtPosEQouA0WBAisWGJEsMksXKclNwpioTp6ozUSUjW4bERBgSkmAUU0JXr1Dg6pHh/kAmkJ/8XOCKuL0qfd6UmgujErfidxK4rtkFzA2MY25wHDP947jd2YPbHd2aH3bMavnpReJqPpDrz3cjARI4fgIUuBS4x98LA/ANKHADsFH4SiQQJAQMMMBmtiJG0qUoq0iz42JBomanCpJhzM2DMSdfM0N0tG6tKHB10fBAABNYE7iZeLsmC1flix1T2u4E7vzYLMaa+jHWPICR5n48Hh/GIzHlJxbn1QR+iLpd8wFcf74aCZDA8ROgwKXAPf5eGIBvQIEbgI3CVyKBICJgkqnHJoMJylfFWfF6WjReT4/Chcw4mCpqxKphqqyGwa4/ZZMCN4ganK+6QWBD4MrorTaCqwlcNUV55xFcR/8Uem+2o7ehEz23OtDumkLr8hTal6cxvbq0cX9ukAAJkMCLCFDgUuC+qI+E5XEK3LBsdlaaBA6MgFHW4aqpysorgftGqgjcVBG4GfEwV4m4raoRXwPDDkF3KHAPrDl4oyMksF+BOy0Ct0sEbrdYlwjcTtc0OkTkdojAnVldPsIa8FEkQALBToAClwI32Pvwobw/Be6hYOVNSSBsCBhE3KofJXIrY614MyUab4hpArdaxO1zM8RxBDdsOkWYVHS/AneqfxIdIm47GsRE4HaLsO0WkdslfpYCN0x6D6tJAgdDgAKXAvdgelKI3YUCN8QalNUhgWMgoASu+q/KHoE3k0XgitWnywhujQjcEzWwnDgBCtxjaBg+8lAJ7FfgTorAbRWB2y4Ct+2WTFUWcdsj4rZ32YE5CtxDbTPenARCjQAFLgVuqPXpA6kPBe6BYORNSIAEhECVbU3gKpGrCVwRtprArd1Z4C48G8TsjVbMiI0+7sYdSQ902zWj+VmVB5cBd9i/AoSAmrFgVHMWxCuB+9bz9bfKa2mCVBTllJ3TBE1oArcNrSJwW2+3o0+EbZ8IXOUpcAOkofkaJBAkBChwKXCDpKse7WtS4B4tbz6NBEKZwH4F7lLLAJy3WsSeYfxxF24tz6Fh2an5Ga9H6VstZQrjyoZy7wmOupmNJmgma87zU2PxRnWGWCZeF29KyYYxOQuG5GwYomN1K0SBq4uGB0iABPZIgAKXAnePXSY8TqfADY92Zi1J4CgI7Ffgutr6sXinWbOJp124KalS1m16dQVeUbhen1cTuUdRDz6DBPQIWE1mRJgssIoViMC9IsL2NcmD+6oSuEmZMIoZlEXZ9W4BClxdNDxAAiSwRwIUuBS4e+wy4XE6BW54tDNrSQJHQWBd4L6RpKYoJ8BS+3wN7gumKHs6+uC63wTXvSZMNXXgk/klfDy/KH4RUytK4Hqx6vVq/ijqwWeQgB6BKMn7HGWOQLQlAgVpcbgswvZyjZgSuInpMCakw5CQIQLXpncLClxdMjxAAiSwVwIUuBS4e+0zYXE+BW5YNDMrSQJHQqAkOhIX4+2oj7fhdGoiYk9WwH6qArGnKmGJlyjKkisXMrVTFjBuep+VoXEoketp74WjewA3hyfxidjNkUlMLC3BLaO47lUPPN7VTdfxAwkcNYEUcxTSLMqiUZiRiNpTOTh5KlfzRnsiDLYEyfksZo3a/GquJfjckuPWvYzRvgk8vd+LJmWNfRh2zWJ4eUbz86uuzdfxEwmQAAnsQIAClwJ3h+4RvococMO37VlzEjhoAnmR0Thpj8NJWxyqkxKRdqYEqadLkHa2FJGJSuCaYJApnsr7F++ME6vjU5rNDk+gobUfN8UaZOry2NwcFldcmrlE5LKQwHESKLTYUPzcirJSUXS+AIXnC1F0rkBGbWNgiIgWiwHMlk2v6XNOw+d0aDbSP44Hj0fw8MkwHj0dwYTLiQm3mPjFVfem6/iBBEiABHYiQIFLgbtT/wjbYxS4Ydv0rDgJHDiBDGsMyqISUBqViNL4ZOTLL/2aiQiISRaBK+sWDTLFE0rk+hWfZwU+lxu+ZTecjjncvteKhrstmh+enoZTRr6cnkVN5Ppdxk0SOHICtZZYnLLE4ZQ1DsU5mUi9KF/iXCrVvEGJWvXljUlMzVTwK76pYXgnh6H8oAjcuy1TuKesbQoz7gXNHOL5JY4fNG6SAAm8kAAFLgXuCztJOJ5AgRuOrc46k8DhEEgyRyMnIh451njkxyWiQoStZnUFiE2Jh0HWLUJME7k6rzDvXMTdm02488lTzQ9NTMLhntcEgNMjUzxZSOAYCKznej4vwvaCZvEoyctC7KUyxF2uQNylchG3m6fe+7+md6gH3uFezfr6RnGraxa3umdxW2zesyy2pHmPV9JisZAACZDALglQ4FLg7rKrhNdpFLjh1d6sLQkcJgG7KQLJlhgkmWOQIVOVz9QV4XRdMc5cKEFCqlqXGA3I2kRN6Oq8yIJzCY03m9F4oxkPxA9MTGDy+fTNWRnFZSGBoyagct5qP+LrIuy4GBmrWUluJmwXK8QqYa+v2EHg+rDa3SnWoVmPCNwbA3NiTtwcnMOyTL1flqnJrhUPVnxcZ37U7cvnkUAwE6DApcAN5v57aO9OgXtoaHljEgg7AhFGM6KNVsSYrEi0xeByXRkuXSjDK/VlSE5LXlubKOsTPxOAx4/Uogjcxw0teHSjRfP94+MYlSA8yqY9C35ncpMEDp/AurA1KpErVi/RkS+JXRYrlhHc6LpKxNRXaV53BFfSXK20tGLl2TPxLejqG8ZHY/P4WLMFrIqoXZEAakrcqpRYLCRAAiSwWwIUuBS4u+0rYXUeBW5YNTcrSwKHSmB9pEuJAZtEVL5aX4m3LlRqPj0jFYi0w6BMAvHolSURuE232tB8sxXNDW3omRjDkESYHVx2SCCeeb3LuJ8EDoWA6tNGWU+r+rTyl2LkixuxV8WK8zIRea4KkefXbGt08I0XEtHqefQUnodP4Rbr7B3CB44FXBf7yMFZCRucuEECJLBnAhS4FLh77jThcAEFbji0MutIAkdD4CAErmtxGX2Pu8Q60fukCx1DI2idmkTr5AT652aPpiJ8Cgk8J2ASUWuV4GgREhjNarRIfudkXMxIxuXMFBTmZcBamgeLmLU09zPprzYgUuBuoOAGCZDAwRKgwKXAPdgeFSJ3o8ANkYZkNUggAAgchMBdWXZhqqtPrFezpt5hNMqaxXt9I2gbmw6AWvIVwomARaIiR5sjEaNZBOpKc1Bflov68jzk56XDJPmezWlJmpeFutsXCtztuXAvCZDASxMId4H7/wEAAP//rmORnQAAQABJREFU7J0HeKRXdf7fkTQz6r1Lq9X25rXXvYAxNqY5hd7yxCZAEgg1CQ+dwD90AoRmTCAEQnkgPIBNS4KfYEyzjfsWby/aVe+9zkia/3u+2RlGWo12Vitpvhm9dzm+M1//fvfayzvn3HM8ITaoicA8AjYtsnx187bqqwiIgAhcOAGPxwP7k8E+Pzcbz75+J269bqfTV9dUAtkF8Jj5c+NefDYYQKCzFVNmXW148lgLfn2oFffT9p7uiXuedojAShDwZ3hR6MtFsS8Phd5cXHPVVlx79XbHGhqrOZd9NK/Tx70//54N7j2A4JMHEKCdON2G+wbGcD/t1wPjcU/TDhEQARE4H4FvfP3zuOP2l53vsLTd75HATduxvagXk8C9KHw6WQREIIaAI29N5JrAzfbjmZdvxc17aJdvQ01dFbwlJfAWFyOrsDDmrHkfp4OYHexCaLCb1oX9R1rxmyebaWew93gXJkMzmDprs9DvtvPo6esyE8jzelGTW4Da3HzU5OVj99W7sPvaXbjsuktQ3VAV/27mUwjN0kLsZjDy5EGMPPEUhp98CifOtOPBwXE8NDSGPwxJ4MaHqD0iIALnIyCBKw/u+ebImtwvgbsmh10vLQIrQsBjVz3rxc31eXHDxsawbWpEXWMtChqrkL++Grk1ZfHvPzON0NggQqMDjh0/3IYnHj+DJx47g0NHO9A7M4memQn0zk4iaAJCTQRWkEBJtg/bSwqwo7QA20oK0XjZDqzfsxPrL9+FktpFBO4sf36ZCQL8wSY0HUDrE0fQ+vhh9odxsrkDB0fHHTvMXk0EREAElkpAAlcCd6lzJ63Pk8BN6+HVy4nAqhMwL679LyczC1eU1+DKMhr7hi3rUH7ZepTvbkDx1pr4z2XCYGoMoclxp2871I4Tj5zGcdqJQ204NT2CpuAw+2HHmxv/QtojAhdPoDrPh2trCmlFuLa6EKU7dqDYsZ3IqWTYfbxmP9QEJhEK0qYmcOjxY3jqsWPsj+NkSxdaJ8bRZsZ5riYCIiACSyUggSuBu9S5k9bnSeCm9fDq5UQgaQT8nkxc4ivDLn8pdrNv3Lke9U/bgrqnbUbl5Q18Lsff63h85zykhXSa54sWmp5GPwVu50On0fFQE1oOtmDfVB/2B/ppfRgLTc85VV9EYLkJNBT6cWtjEZ7TWIxb1xfBt2k7MjduR8bGHfCUVsS/Hb22oYlR/lAziln2f3jsFB587KTTn2rrxnBgAiOBcYwEJ+JfQ3tEQARE4DwEJHAlcM8zRdbmbgnctTnuemsRWGkCPgrcTb5ixzb7S7BpSy02XbMem69ej3W7awFfDuDPgceXDWRk/vFxbO0i1yzaukXQCzZIr23PQ6fQ8+AJtB5oxhMUt08GBvDEVD9GJXD/yE2fVoRAQ3EOnr2lHM/ZUoFb2fvWbUKGWcNmeIrih9qHxscw29eN2d4ezPR24wEmSfv9wTb2bWjqHsD49BQtgAn2aiIgAiKwVAISuBK4S507aX2eBG5aD69eTgSSRiDLk4E6X2HUtm6sxK49Nbjkshps2snss/kltGKnR5Z37nNamLKtr2U/Qq/twEPH0f/AMbQdOI1HA4N4dGoAj7AfnZUHdy44fVtuAg2leXj2zho8Z2ctrQbemgZkVK+Hx6ygOO7tQkODmDlzBjPNpzFN+21TL35zqtfpmwZGEeDcDfIHHOvVREAERGCpBCRwJXCXOnfS+jwJ3LQeXr2cCCSNQCYFbilLq5T58tnnY3tDMa7aWY6rdpRj59ZyhnfWOJbBNbrw+uc9p2WgtU0hjD3VguEHj2D4gcPo2N+Eh6YGaUN4KDCEEYmDedz0dbkJNJQX4DmXNeA5e2iXNsBbUQcP56ynrBae3PjZwGd7ezF96BCmD9MOHcb9XSP4VecI7qedHpvCLCMVZvkjjvVqIiACIrBUAhK4ErhLnTtpfZ4EbloPr15OBJJGwKmF681BAS2ftoMJeq7bVILrNhTj0g3lyKxrCFttAzw5DFeOrMmd98STx9owxgQ9Y48dR/fh03hoeAAPjVDkDg9ikCGeMxQJEZt3qr6KwAURCK8K98DPH2eyGWJv1lhZjBuvWI9nXLkBz2CfVVzJ0OSKsGXnzb2+I1btx5kQAl3dGN37FMb2PcX+IB5gzdvf94/hAVrrJNeXS9jOZadvIiACSyIggav/mi5p4qT7SRK46T7Cej8RSA4Bq4WbneljNmWv01uZletri3E9s9HuqS+Hd/MG+LZuhG/LRmTknRUKPGd+C7R2YerYGUwePYO+k614pLMPj3T042H2vRMTmJjhOkba1CwTU6mJwBIJ2HyNCNzyDD8qMrJRSdtQXYo9V63Hnqsb2TeyhjND6/MYWk+DrR+PbU5oPdeOsx/t6EYXywJ1sixQJ0sE7RseoY06fddUIPYsfRYBERCBJROQwJXAXfLkSecTJXDTeXT1biKQPAImFjKZPCqLXrAs9jvycvG0kiLcUFyEyyvLkbNnC7Iv2+r0GYX5Vj6Xjf+YJ3Jn+vsx3dGB6fYODLZ14rETPVHrGh3FYHAcQ8ExjClZT/IGOw3ubALXog7sT2NmPjZl0TILsKm2AhuvacSma9c7fUYu56o/Fx7z3mb55r65lQaysHn2/W09LG91DCdYGuj4o8dwanwEJ8dZ3mpsGANBJZaaC07fREAElkpAAlcCd6lzJ63Pk8BN6+HVy4mAawhsY5jy03IKcUN2Ia4oKUX+dTtQcMMO9tuRVcq1jCYuGBo6X+CGJoYRGumn9WGkpxd7D3RFrXVgEN2Tw7QhDLLkipoILIWAiVoTtxmcf9bv8pVgj68Ul7HfXF+NimsaUEmBa32Gn+vFuWbcY+I2Nvs3bxwKsjSQiVf2nS092PvwSex79BT2PnIS3VPD6OLacbOxGQncpYyTzhEBETiXgASuBO65s0JbnHVAWb46kRABERCBFSVQn+XHDl8uLQfbiorRcO12rLuedu025JQz5JP7PV6KBoY0x7bQFIXrxAhrio5gYmgIp4534dSJLpw80Y2TnT04TtF7gtbOfWoisBQClhAtm/POz5D67AwvdpdXYU9ljWMb11WhaFslirZWOL3Hy/mZkQWPzdMM/iAT02b6BlgSqJ/lgfrR2tyNx1gayLHDrU6kwSAjDSziYFLh9DHU9FEEROBiCEjgSuBezPxJ23PlwU3bodWLiYCrCBRTFNTQ61VNW1dQgN3XbsVlFLe7r9mGosoyhn0y5JNhnx6rjxvbmEgq7BWbRGBsDL1tXeht7UZPWzcOnu7A46fa8URTO05wTa6aCCyFgJdzszAr20mIVpCVg0s3NeDyLY209WhcX43sqgLkVNLYIzMzHGlg3lt6e2NbsKkVwVNmLWg+04GHKHIfoif3D7Txs2vFrZ8OcZ2umgiIgAgsAwEJXAncZZhG6XcJCdz0G1O9kQi4kYCXXjInOy29XiV5Objpmq1hu3oryqqZmfZs4h5Pdv7cxz9bD5eLGzEbmEKgvxtTtEBfNx4/2oL7953Gr/efxr6mrrnn6ZsIJEjAvLdlvgKnpJX1l12+GVdcvQ2X0xo2VCPDl8XQ5Exksg+L2nPXitutpvYdxdRe2pNH0HS6Db8ZGMLvHBt2Mn1bWaAZZk+2P2oiIAIisBwEJHAlcJdjHqXdNSRw025I9UIi4FoC4Uy1HhTk+HHz7o24ZfcmPJN9dX0NvOUVrDFawTIszE4br82wvArX4kZs78Fm/PaxU7Qm7D/WgYnQNCbpHZvEjOqLxmOo7VECNh+tFTCqoD6vAOtY17YhrxDbr9yGndfuwI5rd6KaHlzLfRZu0Q/hr1bqh/MtxKzJljl56LHDGKQNPXIIJylw/8AkaA+PhS1yBfUiIAIisJwEJHAlcJdzPqXNtSRw02Yo9SIi4HoCEUGR7/PhhvXr8PTGdezrUbuhHvmbapG/sQ45dRXx32OWYmJ8iMbEU7TjB1vw5CNN2PtoEw4fbUfPzCS6ZyecPgiKDtMf8pbF57mG98RmTS71+7CjpAA7i/NpFLqXbkP95TsdK2aSqXCbJ25to81HhtCDiaWsb338OFpZr7mFmZNPMkT54PgoDtMOTYyevYY6ERABEVheAhK4ErjLO6PS5GoSuGkykHoNEUgRApaxNjcrC1eVVOHq0mpcVVqFddsaULqnEWWXb0Dhlpr4b2J1RpktOTQ1AbBve6oNJx5uwsmHT+PU4TacnGYplulhp58yz5r9MS+bmgjMIxDJmJzBkPnqXB+uqcx37Fr2pdu3oXDXThTt3InsmkXmo0UUMAla2MZw+An+0PJ4Ew4xquBkcxdapkbROjmKFpqaCIiACKwEAQlc/S2/EvMq5a8pgZvyQ6gXEIGUI5DD2ri7fWW4lKVYLvWWYv0ljah92mbUPH0Lyi9bx/eht8zCR+cl8aFaZUQoPWbTFBa0gUMd6Hr4DLofaUYLBe6+qT7sn+rH/sk+jDFTra15pCSWyE25GbLyD+ylsPUyUZTZugI/bqrPd+yZ6wqQvXErMjbvQCbNw4zK8ZolP3MiCsYsqmAIjz7ZErYnmnGytRcDgVEaMyezVxMBERCBlSAggSuBuxLzKuWvKYGb8kOoFxCBlCPgp8Dd7CvGFtpmbzE27ajDxmsaselaCt1L6lguKBvwZYf72FIs5o2dnabIZRZa9iPN/Rg82o3BY93oPNWFfV2d2N/dgX20QXp5J2cDmKSXLcBj1UQglkBZlhdVLEtVyfW3jaX5uGxzBa0Se7ZUwFdbD0/NOmTQPIXx14SHJsYw29OJ2d6w/eFwJx6iPXioEye7BjEanMTY9CRGaWoiIAIisBIEJHAlcFdiXqX8NSVwU34I9QIikHIEvBS4dcxWa1brLcS2LVXYdUU9LrmCQnd7DTMqF4Utt4hlWZi5NtpM4NInezaz8tTAGCa6WB+3e4Tlg/qx7/gZ7DtGY98zOoyh6XEMBSdYomUqegV9EAEjsIk/oGzLZk1mfzY2V1oUwXqs393g9JklpfCwVrOnsAQeHhOvhYaHMNPchFma9b871YffNfXjN+xP9Y9hilEEgZlpp493DW0XAREQgYshIIErgXsx8ydtz5XATduh1YuJgGsJZLJkUKkvDyVm3jzs2liGqy7hmtzd1dixlSWDimlFlchgD3rY5jYncxQ3hTAbnMbMlFkQw33DTDZ1HPseO4F9jx5D21A/eqaG0RMYocgdn3sJfVvzBK7IycV1Ofm4Ljcf2+qqUHTVdhRdHTaP3w8P14mDXl7ERhDMoxbq78P0kUOYOWv3tw/jVx2juK99BKdGppwQeVsHPqt14PPI6asIiMByEZDAlcBdrrmUVteRwE2r4dTLiEBKELAEP/kMQ87Lynb6XXUluG5zOa5jeOjujRXIrK5DVk09MmsYrkwPW9xmwsHW5dKjOz40iiMPH8HRR4/i6MOH0dTbh9NcF3lmbBjdTAREnWGrceNeSjvSm4AlN8uiWM1k9EAW59/VRQW4saQQTytmBEFDDbL3bEP2Zdvgv3w7xW3meWCEf2QJ9PRgdP9TUXuwdwQP9I451jzOteJqIiACIrDCBCRwJXBXeIql5uUlcFNz3PTUIpDKBKxES3amF/5Mn9PvLCvE9bVluKG2FLvrK+Hfsp62AT72GbkWIrpAiRYHQFjgmsidHBlD+5OHaIcdO9LVhwODIzhIOzM2wUNM3poYlshN5bmz1Ge3qIEczjfHsvy4sqqI860Y19E2N1Rxrm2E15lzGxkWv4jAdeZPWOCOdvWg/QnOucefYn/QmW8H+EOLWdekBO5Sx0rniYAIJE5AAld/qyc+W9bQkRK4a2iw9aoi4BICJlczmb3WREcWPWo78/NxQ3EJrRiXVVUgd89m5F6+BTl7tiCzIPesvl1M5DKx8ugoRg4exPDBQxh56hD2tffjoe5R/KFnFEeHJpwwUfvvnWVWVlt7BLwZWSjy5qDQm+vYFY0luGZTKa6mbWisCkcM1NYhs5ZZvBcJS7YfU8A5ZHOpv6MXRx85zMiBg05/muu+T4/ZDyojGAxK4K69WaY3FoHVJyCBK4G7+rMuBe4ogZsCg6RHFIE0J7CdouM6fyGtCJeVlKHo+m2OFbL3lhSEBQcF8WLCIzTOjLbHuR7y+GGnf7ylH79uG8VvuB5yf98EppmcKjhDc5JUGVAFLKf5tKLfn3/4u4j1FjFQnlOIiuwCp9+9tQxX7CzHnh1laFhfEV33beu/wR9e5rawx9a2WQbv2WnWWKZ1tPXiCYbFP/4Hs6PonRxGP9d8902NMLGZBO5chvomAiKwEgQkcCVwV2Jepfw1JXBTfgj1AiKQ8gTquRbXRO4OJpzaUlSEhkuZzXZPA9Zd1oCcqnJ4CphVuZCWmxf/XacmMdvectaacaKlGweau7G/uQfHWLKlZ2IG3RPT7KeZ2XYWM/TCOXVynZDT+JfVntQl4KPX1sxPcVuYk4OG8hKsqyhlX4qN62kbSrGpsQwVVSVAHrMmO9m7WRYotv6y47G1slT02s7OYLJ/HBN9Y5iktbb0YO+RJjx5+BStCcNMZjbMrN0jNMugrCYCIiACK01AAlcCd6XnWEpeXwI3JYdNDy0CaUWghAKkOtOPaq6NrM/LxW4mm7p0S6XTF66rZT3SOhprk5ZVxH/v6SBCQ4O0Ace6W9rQ1nQG7U3NONPahWODQYYqB9kHMMbsy0GKlSDr485QuKilJ4Fczqd8/nhSQKsoYjKpDRXY1liJrRsqUVldQmFbijKK2wImmoIvBx6WDrJ+rsClsOXcAsv9gDWVh1gGaJBlgMzOnOnC/o527G1vxf72dkzQazvpWBDTIYpiNREQARFYYQISuBK4KzzFUvPyEripOW56ahFIJwI+hoT6GYKcTW9bebYXT69jhtv6fKcv27gBGVu2I5OWUdcQ/7XN02Yid5pChP1Uy2lMHj+CiRNH0XW6BQ93T+HhLhr7QZYVmqJYmZoOOEI3/kW1J5UJFDEqoNSfz5JU+ain93bP7lpcdkmN0+eWlMDHOre+gmJksWSQE/7O9eDnhMHzh5BQkHWUOVes797bjq4n29D1RBuaznTiwFgv9o/14Cn2JmqtJJBFBygAPpVnjp5dBFKHgASuBG7qzNZVfFIJ3FWErVuJgAgsSMCyKlvCqQz2Bd4sXFOeTctxrGZDA4q2bnEsr4EC108PG0sHOeWDzkkGFFkryWRSne2YbT5Ja8JASyuebBuiDTvWMTqBPma57Z2YYjgpvXPOafyHWkoTCJcCCpcBsuRllQUFqC0oRE1hIdbXlGHnzlpsp+3YVQdffiE8XI8L1sL1sGRVvDY7xR9BmIk7ODjs9C0H29B8IGyn27pxYnoYJ4JDOEkzWau5FI+ktouACKwEAQlcCdyVmFcpf00J3JQfQr2ACKQ8ARO49scEbk5WBrYU+mnZTr+BZYMaN9bR6lG1rgYZpUwIVMJ1uaXlQJZ3gXcPC9XQIEOV+7ox29uNsa4unG7uRNPpDjSxP9E/ihNDk451sl6p/XfQ+WNeYLWUJWA/kuQy1D0ny+f06ysKsbG6mFaC9fVlqNtQc9ZqkUmvrQlbJyyZIfLxWnB4HGNnWO/2NOcR7QS9tifOdDh9c/8AumbGaRNOb9NHntt4JLVdBERgJQhI4ErgrsS8SvlrSuCm/BDqBUQgLQiERS41K72y5dk+J1TZ+p3VhdizrhSXN5Rgy7oKZNQzZLm+ERnrGrleMr7nDUw6FZoYR2hyHMGBAa6ZPInBk6doJ7GvcxiPdY/h0Z5xitwplRBKixkEWCmgYoYlW2hykS8P2xqKsWtjKXaxFFBjQzkKqquRTyuorqG49TFZMkOSM7MWyJr8RyCTPSPo33cG/Xtp+5pxiD+aHBrowUFa6zizJYemw8b13BK3f+SmTyIgAqtDQAJXAnd1ZlqK3UUCN8UGTI8rAmlOwISuj6LDR6+a9ZeVZePGmlw8ozYXl9WXIGvrTq7H3YGsLTvhsbWTTnnceDVyw7BCrEs6e/IIZk6whNCJI3iUJYR+0zqC37aN4KleCmAmmrLMyk4JITtFnriUmWWO7z+mFFBlbhEqrBwQ7ZLNZSwDVIrLdpRjPbMle4qqWA6IEQDsz1lrG/vGjiffJkEIY20D6HjgONp/f9zpD0z04UCwH/sC/eik51ZNBERABJJJQAJXAjeZ88+195bAde3Q6MFEYE0ScNZRZnIdJb1rZjuLcnFtWT6uKy/AJTWlyN+1DXk7t7Dfioy8vLAXztbiMjw1XgtNTiDU2YrZjrAdZ5jyU2dYRoh2vHPQKR/UPRkuI2RC18oHhcsIKWQ5HlO3bDevrZ/my/CiiKWA1leyDFBFmdNvaCjFBpYD2tBYyqzJLP+TGykFVLTofIkklAKTSg229eHkw6dw8g9hOzE56Ky3PREYQt/MpFsw6DlEQATWKAEJXAncNTr1F39tCdzF+WivCIjA6hIwX2yGJZyiaM2kN3dzbj6uYG3cywuLsbOyHGV7NqLsMtqeTfAWsC4uPb0eW4tr4abxmmVXHj5bQoh995lWtJ86gzZaM0sIWfkgx1hKaJxZmJ0SQiwLYyJXzd0EbM1tPtfSWjmgisICbN9YxXJAldjGvqqaZYAqi2lWCogJpeKVApr3iqHJMWBihOHto+ht7cGBx89g/6Onnb59cgQdgVG0B0cwwpJAaiIgAiKQTAISuBK4yZx/rr23BK5rh0YPJgJrloATcOwkngIafYXYlVOKS7JLsa28AnVXrUft1Q1O7y/O58JLP9dT+h2hGxeYhZxSuIZYGsj6wJlTmDh2xCkj1Hm61Skd9IeegNMPBVRCKC5HF+4otFJALANUwjW3Vgro8kvrWAYobPmlJfwRpMixrBz+GGJefrNzsm/PfbHQGBOUjfQ71sEfQB7eyzmyl6Wm2A9Q/A4FJxybtPmkJgIiIAJJJCCBK4GbxOnn3ltL4Lp3bPRkIiACQHVWHjZ4i7DRV4QNRQw3vaSeVocNFDF59Mx5SwrhpXcuK5/rcRdtzsJaHsESQhaqTJE723wK/S1t2NvO8kFmHSMYGAtgjOHKo5NMHhSYxgSTCE0wgZD1ClheFPCK7owmIeMPH/ksAZRPkWpWnJePYpYCKiksQk1VKUsA1WPHzjr2tfBT3Hqy+SMIzfkRJN4Tmqd+hvVuOc6g5368vx/jPT0Y62UiqZZuPH60g9bu9GOBKXr5pzDh1FDm8WoiIAIikEQCErgSuEmcfu69tQSue8dGTyYCIgAUMwS1IjMXFVm5qM0twNaGambHrcbW9dUoXV+FfIaj5jVWIruKayzP28ISNTRA79zZEkKjXd0408ISQi0sJURvXf9AEAPDIQzS+sen0c1EQj3T407v1Dk97z10wHITMHFrJaTsTy5D0esZkr7OMR+KywtRyLEvZChyaZ2VAqpFLc36LCsFxEzb5/XwWwbkANfTBrhWe2oC3W296GzupvVwbnTjcFsPjrSG+0mGuwcoggP03iqEfblHWtcTARG4UAISuBK4Fzpn1sTxErhrYpj1kiKQsgT89NblMIlQjseLUq613F1SgV3MhLubVr2jHqV71qOEVrCpMvF3jJYQmmAJoX4MnW7CIM363u5p9PRmoLvHg/ahaZwKDoVtehjTWpObOONlPNLEbWRddjEza19K0XqpPwe72Zcws3Yek0jlbmACsnXlThmg/Koap89wSgGxDBCTli2WhMxJKjUxjNB42E6d6MGxI104frQbJ1t60Myays2D/Y5NM+O2CVsz/d+qZRxkXUoERGBJBCRw9V/iJU2cdD9JAjfdR1jvJwLpQyDPQ3HjLaWwKWFfgnWXNKL6hs2ouX4LSnbWMs9UBhNOMUEVe1AUJVxC6PQxzDbR2Pd0zKCrMxOdtOb+IA6N9+LQRC8Osp8KzcDSToXNqp7yjxP5rODl5ZxltgY7HJIc9tp6OZ4+mvWVXi+upSc/YiUUtv4tpcim+RqsFFBl2Ir5g8diicecgbNxY8g6vbbTw/0I0qaH+nDocDf2HejCgYPdONHah96pYfQ4xsRT/KMmAiIgAm4hIIErgeuWueiq55DAddVw6GFEQAQWIZBNb25jVj7WZ+azL0BjYy3W71yPxu0NqN5Ug+zyPFousstYPsiXRZFEz50lFDpfCaHudoS62zDLfrhvGgP9HtBph67eSZzs6MTJzrANzQbBirqOjWPGCVUNMrw1YGs31S6agIlaa5kcLyv942fpH+uL/RkozclAWY4HNfnZ2FZagW1lzJbMPq+GSaRq8uGr5TrsikKWAuK62zwa+0WTSXENbSjILMhcTzs5Moq+zl5aD/o6enHiTC+ON/Xh2OletPUMYWh6AsPBcRpDmCVwL3qcdQEREIHlIyCBK4G7fLMpja4kgZtGg6lXEYE0J5BF4VOW4UepGdfmbiyj0KmtwdaaGjTWVaFwczmtzOkzc8KZlT0MaV3Uk2clhEaGEBqljQxjcpQJpcZmMD46i8GeMbQebUXbsVan76QY6sI0Oj3T6A8FmGjIEg4FnKRDEj4XN/kcX6053SlysyyJFMv+FJhl5qCuIAPrqVfXF3qwriwXVbUNqKprdHp/ST4yC/3ILPKzLjLHPNFSQFNWCmjMKQU03DeIU01daDrVjVMnu9HSPYCWngG09gyih+LXsiVP8seNSZUFurhB1tkiIALLTkACVwJ32SdVOlxQAjcdRlHvIAJrg4CJIC9Frglds83+IlyaU+bY1ooKVFy1DuVX1qPi6nXwFrIsTJaPIcsmdCly4zULVZ2dCWfRZSbdWQreWWZPng0GMdE1hJ5HTqOXNVB72TfRg9fkCeAkrX12MuzVC4xjiCaBGw9wYtsjIcm23tZHr62V/imjlXrzsbUkA7srgF0VIWyoKYB/03bHfBu3IyOHSaQsJD2Ts8Px1lMln8drb08UGrMfNZhsbHQAvfTa7j3Yib1PdeJJWjd/8OhhHdxerskdDU5ilnPE/livJgIiIAJuIiCBK4HrpvnommeRwHXNUOhBREAEEiAQEUJ26DqWENqaWYgtWYXYVFSC+kvrUbe7nv065DKrrpUPSqyEUMyNmSE3Ui4m0DeCoQMMW6ZZ30avX8vsBFpmxp3P3cMjcGxoBFMMU56mUA5yna6y68bwTPBjDtdX51HY5jMsuZBe2PLSUpSXlKKC/YaSTGwtBbaUhFBXkYeMdRuQ0bDR6cFEUgk1pxSQ1UL+Yymgsb4+lgLqQwezJB841o39x7qwn4mlBp1atxaSPC6vbUJwdZAIiECyCEjgSuAma+65+r4SuK4eHj2cCIjAPALmxQ0nj4ITrlydkYMqC2Nl4qFNLB20aX2N05ecLSGU75QQYnyr08JrPOddcu5XZskNUaSaV3dmdBLjLYOYaB3ABPt+ZtrtC4ygb2oEXcPDON0xgDPtgzjTMYgRlpkZnZnC2PSkI3bnXlTfzkfAQs9rWQqqhiWhqvMKUbGhBhUbaeyriryoZjnbKjrlSwr88DA03cP1txnsF/XOx97Ufrigpx1MKBWaYtmnNgpbZkjubOlFcyvX3PL7ifZwP8qxnGA4spmtsVYTAREQAbcSkMCVwHXr3Ezqc0ngJhW/bi4CIrBEAiZ0rYRQHi2X3r8ylozZxcy5O1lGaCdLCFXtrEcZyweV7mlAAWvlRkRxzIeF7+yEoTIUlf1skF7ZkSlMj4Ztcoxid4xid3wAPVyjeeR4L46c6Mdh9r0To+gP0gJjGKfQVbswAg2ZedjmLcK2rCJsLClDxeWNqKRV7GlEQaEPuV7WwPUCfl8mPNk5AM3pGaqeULOkUhaWzDG0/tQplgI6SjvWg1MUuS2Dg2gd4rpb9pY0zLzxVhZq1jy/aiIgAiLgUgISuBK4Lp2ayX0sCdzk8tfdRUAElodAPuvkWvmgS1g+yPq63etRed0mVNFKttWA1YO4btcDW67pYV1UM8f7Z+s1E2yOOBrhus2RPvR39uGpgz04eKiHfS+6xofQPcW1mywnMxqYoAOYqzYds5qpXOLLNZz0CzMHc3g9p+lo+5TOzX6EsMTI4Z7s+dkZh4zw5/BaWTvAg03eQta3LePYlWJbRRXKr92Eius3ofy6jcjKyz77u0QCHvjoOln+QDFN2jTrnVJAHLfps3aEwnY/x+/AIWZNbu1HLz3zVg7Ieq21TedZqXcTgfQiIIErgZteM3qZ3kYCd5lA6jIiIAJJJRApIdTAMkJWQqiysRrlO+pQsb0e5ayPWspcU2V+D40iq7AAnsJi1kul5ebyuRMQTjwqxLWZYPKh0OQIRvqG0Hy6D2dO9+MMS8oMcfsQQ5fNxsbGERwMIDAYdPphytohytsh9uMMf7aw16Ct103D8FeHJAWr/bGEUV6uq/WyHq2PXvaibCv3wzGgFWbzRwYf18/6mQiMfXV2ERqzy2ilqGP4cSF/lCjcUev0mdk8LnzhxeeYiVty5SJq/m8GUwNcQ9trRq/64AiGJwZpAxhh38Sw85NnwtbWO4xhpxSQlQNSKaDFIWuvCIiAmwhI4Ergumk+uuZZJHBdMxR6EBEQgYsgYNmVrXxQydkSQiXlJSitKXesivVRN3IN54Z8DzYWMLq1uhoZtfWOeRgOm5B4smdzaqcy/Dg4hanRMfSznMxA14DTT1D8Tk6ypAwTUU0MUlC1jnP9Lo19RyiINpYXavcE0c9yM876TpYYmuD10q1FkoCZuLV6tjnMYp2byRBjlnWqK8jEhuIMhiBnoIbraj15XFRL8+TnoTC3GKV5/CEitxRFhaUcoxJasdNneOltDw/S4rhM2FoSKWbCBkv7jFDADp/sxdAJ87gPoDMwjK7gCDqDw+joH0EHk4h19o6gf9SSSYVLAU1x3W16+9UXR6i9IiACqUVAAlcCN7Vm7Co9rQTuKoHWbURABFaUgHkMI+WDrC/w56I4Jx9FufmoZYjr5aUeGrCnhJpq00Zkbt3hWEZNHZ+L7sFEPYRObDFDXoMBrs0dcixoNXQnxxkGy3JBtMnuUQwfplfw8BCG2J+YncJRlhY6jim08fMIs/OOMIx5hN7CdGsmcDPIP+K9LfTmsJ5tDgq9udhe5sWeqkxcXp2JzZX03BbTg07LKClGZkEpsmhOn8dtfta1zc52eieUORFQliCMPz6APx5Y33+gAz2Pt6LnsRa0N3GtbWgsbLPjGOQ4DU/SY0sb51ieDRxXeHIinHWMCIiAawhI4ErgumYyuulBJHDdNBp6FhEQgYshEPEe2jVy6TnMy8pGPq2CIa47mEh5Z7GHvYeZeRtQsnULSrZsRl59PTw5DFPOzg33FGgJNcvKS49tiB5bJ3SZmXfNswv2wf4JjJ4axcjJUadvnmH9XJYXOs3auZ309I6wrNAQQ2att/W55jGcpcIO8J9jDFseD4UtoedIwkFhERsWsll87lxL9IUMx3y2vpbLmjPZ+3xZKCguQUFRKQrZb2B8+PbyDOwoy8R6il1PQSFDxS1cnG51Zk725HKQctnn0LObyYxSrF/sYYizs5B30fcMQ5wNBBmWPMzQ8BEE2Hce7kDrU61oO9CKVmZKbsWkYy0hy3ZtHvSwF92SSqmJgAiIQCoSkMBNEYF7991345577sHIyAgOHz4cnWvXXHMNCgsL8epXvxr2+ULaxMQEvvnNb+JXv/oVurq60NnZGT39RS96EZ7//Ofjpptuim5L9MOPf/xj/OAHP0Afa+l1d3dz3RXXZ7HZ873kJS/BC1/4wkQvlbTjJHCThl43FgERWGYC5sUNe2IBH4VRNkNj/U5d1SyWEfKcNYbINlRi44Y6bKJVr6th2ZlKeMqrWHaG2ZYt+VQijWs8HW8hRW2IQskJi3VCY6cxMxagF3eSxlDmnkkmLhpHz/QYeoMMax6kZ5frP4db+jFEm+YDmwVpIxS2HRTDXayz28nerc1Cj70Un1lcW5tDzlVgGR8m+apCFkORue42K+SYP8eLvPV1yG+oQx6tsiQbNfkZqC3IQFke1+DmWDbkbPZMIuVnVmTWv7UeXi6U5rU9tLD3drEfHUzchgVucGwSw03dGD7djZHTPTjT3IlTZzpwin1bH0PJGSreT9JmVrc4wB8pAgwZn6HnV00EREAEUpGABK7LBe4jjzyCL37xi7D+fO3WW2/Fe9/7XtTVWWjZ4u3//u//8IUvfIGlAI4teuCHP/xhvPzlL1/0mMjOlpYW/PM//zN+97vfRTYt2L/mNa/Bu9/97gX3uWWjBK5bRkLPIQIisFwEIgmOTIhlWoIjZkou8Gag0Odx+ktrinDVulJcva4EmxsobBs20jY5Pbz0HCbSziY0smRGkcRGMKFk60CDrKE7wTIzNOsn6OmdYGKqCSagGuVa0KHDFGGHup0+EPJgis85RQ9oD8OXjwWHcHx6GMfZu7VZ4ih/lhd+elkL+CPCFo+flo3NtGI6XH3eGfi9s/AXepFzyRbk0nJ2b0FeUa5T6iePJX+yaZ4sHmw/KDi9faaZsHV+ZLB01/aDxWLiloQcccsAY3Kf4trnnr3N6NnXwr4Fx3u6cGSwB0cGetDKLNeT9JBP0ayf4fGWLdl6l//fI7dOAz2XCIiACwhI4Lr4v+DmqV3I27l9+3bHa9va2or29vY508i8uffdd5+zf86OmC9PPPEE/vqv/zrqWbVdPmZr3LNnDw4ePDhnu+175zvfide97nX2MW4zz/LrX/96PP7443OO2bBhA2ZmZtDc3Dxnu3lyP/axj83Z5qYvErhuGg09iwiIwEoQcAQvRW6mGcXklRU5eHp1Lm6k7ayvQOam7cjaTLOeHsXMLK7npScy06kpZCLrrNiil9Vp5xNd817CCWWeGEaImZan2voxsr8Lw/u6nH5y1kPBFRa45r19aqoPB80CvfOuMu8rnZaOuGM3Mxti3dYQqKudPnqkHbNIs9fI4Ds5fHicvbeFFpu+tFeO13z0imd7fchmGHgRbRdr2O7KyMNO9qW8ht83HbYietCv2IHsK7Y5fUaBZaxeQjMRa4Hcjpi1RFL8IYF/3/LFHe9rkHHe0/xxYax3FO0Pn0L7I02OHR1hneIg6xQHBtBOD7qaCIiACKQbAQlclwrc4eFhR9y2tbVF59yb3/xmvOUtb4l+tw92nHlDTdRGmoUCf/vb3458ndNbyPAdd9yBpqYmZ7sJ4o985CN45jOfCT+TV1jbu3cv3ve+9+HEiRPOd/vHxz/+cbz4xS+Ofp//4a1vfSvuvffe6GZ7zpe+9KWoZlZOa6dOncLnP/95/OIXv4ge8xd/8Rf44Ac/GP3upg8SuG4aDT2LCIjAShAwWeqhYsugeLMESFuK/LikJAeXlGajkdmWs2sbaOvhr1mP4pJclBQzGzPFWV4+y9NQwIHeynDYLOUg15uG67cuogDnvUSICaVAsz7YT2/u6UFMNA1inH2Qui1A4WZ9P0OZm8d60Dze7fTzLjP3q3mLTeixH52aQe/otGN9Y1wbfPbIcB/5Nvd0++ZFJqy8kpmFGhcUZqKAmY4LGEKcRQ9rvJZFT6svy0dPLbMje7PR4C+iFWMd+wJmPPZmzdApOwtvHo/bWA/vpjp42Xtywn/3xrtu3O223plZji0zMgIMCR/huudRrn8eGWVZplkMMEK8n9bLtc+dR9vQeYTGvm1iCC3To2il9c9wjbSaCIiACKQZAQlclwpcE6225jbSTLAutsb2ox/9KL71rW9FDo8rSO+8804n5NkO3LhxIz7xiU/gsssui54X+WDi9m1ve1tU5N5444342te+Ftk9p7///vvxhje8IbrNxK2J8YWaXTMicouZJfLnP/85KioqFjo0qdskcJOKXzcXARFYJQKRBFTWV+X4UJfPsjV5flQV5DN0tgL5xbSiStTXFqChPo+Wj/JyJjvKNmMCKuudxEdMjnQ2lDbhR6cwC50tXTMzHkBwwIQubWDS8UDaGtBphjpbKPPAUBcGhmnsF23TVg4nbD3DAZzoncLx7gBO9VHpsdl/288ncHNYm7bQ40MRSysVUbBWVXMd7VnLZs3aeC2TLt5MittMCn8f180W55ehJL/cMT9DvDMzZvkbQAiZPnrMy4qQWVrE9c1F8HgZgryUZuucrT4tE3iFxliHuLsHs1207l60j8zgzJiHloHWwSl0d/Sgu7OX1oMB/qAwxLDvwZkpJ3HXUm6tc0RABETAzQQkcF0qcG+++eZo+LElfDIher52vnPMe2uhwdZb+8d//EcnrDjedecL1+9973u44oorzjncxK0da23Xrl2whFjx2vxnsDXDliDLbU0C120joucRARFYSQLml8ymMMujEMulSCugB7LYl49iL0sKsd++qQi7tpfgku3FqFvHMjb5tDxm92XpGo8lP6JH10Mx6KwXTfRBoyG2JjzN80rxSe9ryOnNO0lj0qOZsWHM9Hdguq/D6eNfnuczYzACrKNLa+mbxKPNE3iseRxPtlIIOuLW1qVaYG9Y5i50rQKK24qMHFRkZqOSQnXDRj8tGxs2+ZGfT091vEaB63G82hT7PC+rpBpemvXGyPH9enhf/pjgcVIq27paCuYLDO2O3N5KL8EyVnMd8+xgP2ZPt9DOYIb98f5pHBjKxIHBTJwYoRd7fJg2hF6GhFt25BlCcNbbLsIhch/1IiACIpBqBCRwXShwLSz5lltuic6l83lvIwfGen137NgBy2Yc20x4vuc974lu+t///V/HixvdsMCHWPF6++234/3vf/+coyzU+XnPe15024c+9CG84hWviH5f6EOsF9nW/X7/+99f6LCkbpPATSp+3VwERCAJBLxMZGRZgMOZlr3Ip8ArOGuN9Nxu3lDIDMsFqK0uQm5eCXJyS5zesgL7s5mdmZZFL/CSygvNf1/Lxmxlarim1MoNhYa49pYWGu6bf+Tc70EKXFooOI1Oei4PdU7iYMckjnTR22l/ziNu7WK59OCWZlDgM0lUGYVp3Tofaut9qKfl5Mb34FoiqGhyKBO0hWXIKChzepj4X0pzHtjEOJ+dnunZUQr1sQn2k5iYGMcY6wybjQ8PItDahkBbq9OfHpqhsM3A8dEMtIzPYog1hiNmwtZ07WIifymPqnNEQAREwC0EJHBdKHAtY/Ib3/hGpySQTRQr45NIZmTLtmziMdKOHj0a+ej0luH4u9/9rvN59+7d+OEPfzhn/0JfTFzbGl1rZWVlzlrfHCthcLZZiPHb3/72yFf8z//8DzZt2hT9vtAHS2QVu57361//Op72tKctdGjStkngJg29biwCIpAkApHsyllMOuW1NaiWNOmslXNdblU5PZpMRFVZnI+K3FKU55Q4fTFL3BSxZGtRAWu/FrG8jZUWKmeJISsvxGstqVkWX1tPa2LMQnHHR4CJ0bDFvSAlm62/nbZESzMYGp9G21DQsQ721kzUmWZcrPm5HjmP5X1yafkU/CWlWSimlZYw87R/kfdxslOdXYtsGZCz8yn2aewvyLMd+3AOB76PCf6JKUy392KGNt3Ri14K3c6pAGsIB/h5DOO93Y6N9XWjh6K2a9LjWH8ghPHpACYsJHkmEPVkx95Gn0VABEQgnQhI4LpQ4MZOMPPmJiJu7RwTxbHJpuYLXEv6dODAAefyiSZ4euCBB/Da1742+kgmik0cR9onP/lJmEC1lp+ff04W5chxsX2Qv66b53ba1kmxJZKlOfb81fgsgbsalHUPERABNxGwdbhO9mDraZn8ZqI3i5btZ8IlemhzcjJRks2w3ewyrM8uZV+K6uIQqkpnUF0yjaKqfGSsZ2mh9eESQ45Hcykv6ahQczPSKHQja3WdurqLXc8EMTMn23mBaWYQDoRtnCIvLG8XOzm8j4HDrFwbfm8v393vZwZkClvrM5hFOm4LxyCHQ45N2HNtshOybGuUTfwupZmwdRJJ0Xs7PIrAkTNRax6ZxHEmkzoeYKUCityh0UEaawmzHwvOUtDy94AZlltiyPc0uUyHWKLJWPKPmgiIgAikMwEJXJcL3AuZfLFrcJ/1rGfhrrvumnP6tm3bot/N0/vsZz87+j3eh97e3jneVVsLbGuCI83CliM1ei+55BL86Ec/iuxatL/ttttw8uRJ55hE1xgvesFl3imBu8xAdTkREIG0IVCQwRqv/lJs8pWwL0Fd6SzqyoK0AEprClhaaAeyNm6HlyWGMn1eZg6OLS9E4Wdiz/HsnhV9SxV/6UI0Vszzc+isB9qSZdkPwWb2w3BwcBgT+09gYt8JTB44gZPDkzgc9OAQndOnKHIHA6O0McecMOR04aP3EAEREIELJCCBmyYCd3548vzkTaMsHXDllVdGp0ei63rthFhhPD9DsonTQ4cOOdd95jOfia985SvReyz2werw/u53v3MOseeKhE4vds5q7pPAXU3aupcIiEAqEbDSOTVZ+ahhAirrywtCqCicRTmtuCwPOTWNyKldz57lhYqzWV7Ih+IiL3LyuD7XElJFjGtWPSZ0GQ69ZA9nKoGL96yOl9bWG9NY7md2mBmRzYZGMDI5jYFJK/kTwuDQOEaaWjByspl9MzqYebpl2oNWemo7KYrHpqdok47NOqI53g21XQREQATSm4AEbhoI3MOHDzu1ba0mrrXa2lr85Cc/gdW4jbTOzk7cdNNNka9OndzFyg5FD+SHxQSueYGbm5udw//sz/4Mn/70p2NPjfvZMjj/93//t7N/8+bN0c9xT1jlHRK4qwxctxMBEUgZAha2W8ASOoWZzLZMb24hS+cU5ngcK8jPQVFxFQpYWqiouBJ1tXlYV5frWImVF7I1qY5x0a6VFbIwXgrmJa/VTRlqizwoSyWFgiz146w1HsVsexdmO7ppXegaDrL+LxNFTXjQzrJH/T1d6O9muaSebnpqgyz3AwzSRhmWbdmRHbPs0wpDXgS4domACKQ7AQncFBe4JmrvuOMOmMiNtC996Uu49dZbI1+d3ura/smf/El023J5cK+//nr09/c7133Vq16F//f//l/0Hot9+OAHP4j/+q//cg6prKyMenMXO2c190ngriZt3UsERCCVCFhgsa3VtXW61vuZUMksm5bH8kLlvgKU0spo2zcXYse2QuzcWojq+mImayiFp8Cs5Gx5IXp1LcOwZSBeo83ELZgJOTQ1htmhQcycaKKddvqm/iAOjWTh8GgWMyKH0D0xiO7xAaefoueX2tZZcmy9iVpz3ErcrtGJpNcWARGIEpDATWGBu5C4NbH7vve9LzrAkQ979+6dU75nuQSuJZwKWM1Btr/927+dk1E5cu+F+s985jP46le/6uzy+/3Yv3//QoclbZsEbtLQ68YiIAIpRiCL4tTKC1mZoRx6dYtYWqgok57crBw01udhQ2M+NjTkobqqiA7cUlqZ02f7KIx9zNbszUTWvORNnlxmY87NoWUDXMfrMQFMz3HKCGFTmuaVZcixkwWa3tbQFBNGBRiGHGRMcUwb59+hI5MTGJmYwBhDkwNnWhBoZrmf5hZmgJ7GqfEsNI1n0osbwkBwDP20Aa63tcRRaiIgAiIgAucSkMBNUYG7kLhdLFnTcglcKwlkQjbSlkPg+ny+aHbnyHWT3UvgJnsEdH8REIFUIRAuLxTOuOxluHEuSwvlMHTZ+vJSPypYXqiizI/yYnp1rbwQrSyvFMVcjlvsD6GIlpM1N7NvRkUpMirPWgHL7NDL67FsxEutJ7vaMG1dLbMZm4E2OzLOtbWTjoW4dja29UyxnBG3tdK6WOd2guHHEz09mKT1sdRRTyADPVMZFLbAGEv9OGttZ3gtrbONxajPIiACIhAlIIGbggLXwpHf9KY3wUoIRdpi4taOWa4QZQtBtlDkSIsNUX7lK18Jq7WbSIsNUbb6ug8++GAip63aMRK4q4ZaNxIBEUhxAlZeyPnD2OXY0kKx5YWyszNRms21uCwr1JBDs/JCOdOozg6iKieIAu9cr2bWhjpkbqxnNuZ1rKnLkGYv66/76NX1/bEOu6ux2bra/g7M9nWw78RsD0OPe0bDNjgx59HPMInUobEZHKSdHAtgdGwYY6PDTj9Bb+8kS/1M0FlLBzCCVupH5X7m8NMXERABEZhPQAI3xQTu/IRSNqDnE7d2zHIlmbIkUpZMKtJik0zZGt9//dd/jexatI9NMtXY2Ih777130eNXe6cE7moT1/1EQATSlUBY/DIJVaYfjb5ibGBpoQ3s63ICqM2ZQm32JIq84broEQa+rRvg29pI24Csqkpk+HLh8TNkmX1sY9Aya/WGKKzDvYfrgD0MeWbMdDhDc+zBF/05hNnpEGYoOh1jnV3zO0d8z5Heuc10gGK2NWy9LZju7EewaxjBziHM9I3NeZKTjGLeNxbCvvEQjlLJjgYnztokrNxPiv3flDnvpi8iIAIikAwCErgp9DfH3XffjY9//OOIZEu2CRNvze38ybRcZYKsDJCVA4q02DJBN954I772ta9Fdi3ax5YJsjDnH/7wh4sev9o7JXBXm7juJwIikK4ETODa/yxkuTIrL2zePCahmkaJL8iEVEHkZs5dT5pfXwezApq/pJTJlv1Muhy2WE4+itv8jFkUeGbZh5BRxjq8tIxSWjaTVy1bo3zl/yZHpzDaM45RitSxAQpQbjTfs/WxAneWGY2nhrppDDW2fmAQk/2jNK6xHR6f81RdwRBOU+Q2sRRQ+9QsPbZBWgCTJpK1znYOK30RAREQgUQISOCmiMD95je/iY997GNzxtTE7otf/OI52xb7Elvu5wtf+AKe+9znLna4s88yJFsYcqTdc8892LlzZ+Qrbr/9djzyyCPO961bt+JnP/tZdN9iH8wLfOzYMeeQZz3rWbjrrrsWO3zV90ngrjpy3VAERCCNCZjItfJC+UxClc/1uXm2RjdrlsJ2hompZpmgaq7ALS2tRGlZJcrY5+VRtHL9ra3vtT625VHYVmTMoILXqciagbexyjHfhipkFM719saed2GfTdyGbbh7DD0n+9Fzqh99zUMIUmAzGNmxWYr4SJvlGtzRiaGojY2NMOx4DOMjo5hgMqnYNkqFPEAH9gC9w8MzvBbPtTBk61Pk/6LEvo4+i4AIiEDSCUjgpsDfHu9+97thwjLSCgoK8IlPfOKcUkCR/fH6v/mbv8Fvf/tbZ/c//MM/4A1veEO8Q6PbTbyaiLWWnZ2Nffv2RffZh3//93+P1r7NYmiYJbPyeuf+H5A5J/BLMBjEnj17MD0dDkl7xzveAfPouqlJ4LppNPQsIiAC6UDA9J8JXSsvFP4TAj/ys1ms/xNcn1tCK3Z6y8bsozj2sSiRieTYVkxhvD4ziIasINZxHW/2pRvgv6zR6TMr/lgLPvacC/58VtyayO07PYAzT7Sj+ckOtB2iZ5YCl7mSnd68uJE2w2MHZycwyGRQA7ThwLhjIywFNGZlgWKaSXvHTEPzs3MVnv/Hq8UcrI8iIAIiIALnJSCB63KBu5C4tRI/O3bsOO/gzj/gP//zP50QZ9tuHlRbT3u+9t3vfjeaOOqGG27AN77xjTmnzM/O/OMf//i8z2briF/4whdGr/P1r38dT3va06Lf3fBBAtcNo6BnEAERWKsESn35KHPCmPPp9fWDK2vhpcC1PrYVUOBW03tbnTmNKnqEfZtr4N9SB9+WGmQWM/vycjQTuJSb9vfCUPswOo72ovNoD3qaBhDg9gBFrvWxPmhbnTsSYvmf2SBG2Y9OT2GcZuLWwo/VREAEREAEVo6ABK6LBe4Xv/hF3HnnndHR3759O0zcFhYu7VfpWDFaWVmJH/3oR7B+sWZe3vvvv9855HWvex3e+c53nnP4M57xDHR1dTnbTZC/5jWvOeeY2A32TvZukfbAAw+gvLw88tUVvQSuK4ZBDyECIrBGCeRR1OZzzW0+a+r6GZrMlFGUtx4mlJoLJJvisohhykUUukWZISakKoG3qphWgoxc1iFahub4Uh13agjjzIA82DFCG8Zw75iz/naaYtbikdXwsgsAAEAASURBVEJ8lkgzTTwZmqZ3l1mQ2U/NTCNAsWt9kOtz1URABERABFaOgASuSwVubGiwDf/FitvIFHr5y18eDTN+y1vegje/+c2RXef0Jmxjw5gtydWuXbvOOc5KB33ve99ztl955ZUwr2+81t3djZe85CWw3torXvEKfOhDH4p3eNK2S+AmDb1uLAIiIALI8mRyzW0m+3B93XAYswU2z21Z/GqJpnzcYZZJUetYDksKZVlu5eVoZ8OFqVqDAYpVlvKZZM3awKStvg17bk3a/lHehu9pCaLCSaiYiIqfZ+27088/cjmeUdcQAREQARGIEJDAdanAvfnmm9He3u6Mk625/clPfoK6urrIuC25/+lPfwpb8xppH/3oR/HSl7408jXaP/744zBvbHNzs7NtMSF68uRJmHC2TM3W4nl6+/r68N73vhe//vWvnePsH/FEc/SAJH2QwE0SeN1WBERABC6QgCN7KW6td9b3cmFvBoXxfDF8gZeNHh6RoyZm7e+GWVpIQjXKRx9EQAREwG0EJHBdKHBN9L3nPe+JzhULSTYP7oU2C2deqMUmm7L95sm1eraWZbmtrQ333XcfPvvZz2J8PFzKwIT1v/3bv8GyJMdrn/vc5/DlL385utvW+N5222245ZZbnG0mrC0T9FNPPRU95vWvfz2sHq4bmwSuG0dFzyQCIiAC5xKI+nXnidxzj7y4LRZ2HBG5kf7irqizRUAEREAEVoKABK4LBe4LXvACHDly5KLH++jRowte48yZM85aWluTG9uuueaaaMmfyHbLiGy1ba+77rrIprj9hz/8YXznO9+Zs7+srAwzMzMYHBycs93KG1mZI7c2CVy3joyeSwREQAQWJhDryXW8t8vowo14ce3OJm4to3LstoWfSFtFQAREQASSQUAC14UCN7Ze7cVMingC1645MDDghCDHhgvPv5fVv73jjjuiXtj5+xf6HpupeaH9OTk5ePWrXw0rU+TmJoHr5tHRs4mACIiACIiACIiACIjAwgQkcF0ocGMzDC88bIlttdDjxZp5Vm1t74EDB6Jm4trCoa+++mq87GUvW+z0uPt+//vfR69n156dnXXCn+26Vh5osVDnuBdd5R0SuKsMXLcTAREQAREQAREQAREQgWUgIIHrQoG7DOOqS1wkAQnciwSo00VABERABERABERABEQgCQQkcCVwkzDt3H9LCVz3j5GeUAREQAREQAREQAREQATmE5DAlcCdPyf0nQQkcDUNREAEREAEREAEREAERCD1CEjgSuCm3qxdhSeWwF0FyLqFCIiACIiACIiACIiACCwzAQlcCdxlnlLpcTkJ3PQYR72FCIiACIiACIiACIjA2iIggSuBu7ZmfIJvK4GbICgdJgIiIAIiIAIiIAIiIAIuIiCBK4HrounonkeRwHXPWOhJREAEREAEREAEREAERCBRAhK4EriJzpU1dZwE7poabr2sCIiACIiACIiACIhAmhCQwJXATZOpvLyvIYG7vDx1NREQAREQAREQAREQARFYDQISuBK4qzHPUu4eErgpN2R6YBEQAREQAREQAREQARGABK4Erv41WICABO4CULRJBERABERABERABERABFxOQAJXAtflUzQ5jyeBmxzuuqsIiIAIiIAIiIAIiIAIXAwBCVwJ3IuZP2l7rgRu2g6tXkwEREAEREAEREAERCCNCUjgSuCm8fRe+qtJ4C6dnc4UAREQAREQAREQAREQgWQRkMCVwE3W3HP1fSVwXT08ejgREAEREAEREAEREAERWJCABK4E7oITY61vlMBd6zNA7y8CIiACIiACIiACIpCKBCRwJXBTcd6u+DNL4K44Yt1ABERABERABERABERABJadgASuBO6yT6p0uKAEbjqMot5BBERABERABERABERgrRGQwJXAXWtzPqH3lcBNCJMOEgEREAEREAEREAEREAFXEZDAlcB11YR0y8NI4LplJPQcIiACIiACIiACIiACIpA4AQlcCdzEZ8saOlICdw0Ntl5VBERABERABERABEQgbQhI4Ergps1kXs4XkcBdTpq6lgiIgAiIgAiIgAiIgAisDgEJXAnc1ZlpKXYXCdwUGzA9rgiIgAiIgAiIgAiIgAiQgASuBK7+RViAgATuAlC0SQREQAREQAREQAREQARcTkACVwLX5VM0OY8ngZsc7rqrCIiACIiACIiACIiACFwMAQlcCdyLmT9pe64EbtoOrV5MBERABERABERABEQgjQlI4ErgpvH0XvqrSeAunZ3OFAEREAEREAEREAEREIFkEZDAlcBN1txz9X0lcF09PHo4ERABERABERABERABEViQgASuBO6CE2Otb5TAXeszQO8vAiIgAiIgAiIgAiKQigQkcCVwU3HervgzS+CuOGLdQAREQAREQAREQAREQASWnYAErgTusk+qdLigBG46jKLeQQREQAREQAREQAREYK0RkMCVwF1rcz6h95XATQiTDhIBERABERABERABERABVxGQwJXAddWEdMvDSOC6ZST0HCIgAiIgAiIgAiIgAiKQOAEJXAncxGfLGjpSAncNDbZeVQREQAREQAREQAREIG0ISOBK4KbNZF7OF5HAXU6aupYIiIAIiIAIiIAIiIAIrA4BCVwJ3NWZaSl2FwncFBswPa4IiIAIiIAIiIAIiIAIkIAErgSu/kVYgIAE7gJQtEkEREAEREAEREAEREAEXE5AAlcC1+VTNDmPJ4GbHO66qwiIgAiIgAiIgAiIgAhcDAEJXAnci5k/aXuuBG7aDq1eTAREQAREQAREQAREII0JSOBK4Kbx9F76q0ngLp2dzhQBERABERABERABERCBZBGQwJXATdbcc/V9JXBdPTx6OBEQAREQAREQAREQARFYkIAErgTughNjrW+UwF3rM0DvLwIiIAIiIAIiIAIikIoEJHAlcFNx3q74M0vgrjhi3UAEREAEREAEREAEREAElp2ABK4E7rJPqnS4oARuOoyi3kEEREAEREAEREAERGCtEZDAlcBda3M+ofeVwE0Ikw4SAREQAREQAREQAREQAVcRkMCVwHXVhHTLw0jgumUk9BwiIAIiIAIiIAIiIAIikDgBCVwJ3MRnyxo6UgJ3DQ22XlUEREAEREAEREAERCBtCEjgSuCmzWRezheRwF1OmrqWCIiACIiACIiACIiACKwOAQlcCdzVmWkpdhcJ3BQbMD2uCIiACIiACIiACIiACJCABK4Erv5FWICABO4CULRJBERABERABERABERABFxOQAJXAtflUzQ5jyeBmxzuuqsIiIAIiIAIiIAIiIAIXAwBCVwJ3IuZP2l7rgRu2g6tXkwEREAEREAEREAERCCNCUjgSuCm8fRe+qtJ4C6dnc4UAREQAREQAREQAREQgWQRkMCVwE3W3HP1fSVwXT08ejgREAEREAEREAEREAERWJCABK4E7oITY61vlMBd6zNA7y8CIiACIiACIiACIpCKBCRwJXBTcd6u+DNL4K44Yt1ABERABERABERABERABJadgASuBO6yT6p0uKAEbjqMot5BBERABERABERABERgrRGQwJXAXWtzPqH3lcBNCJMOEgEREAEREAEREAEREAFXEZDAlcB11YR0y8NI4LplJPQcIiACIiACIiACIiACIpA4AQlcCdzEZ8saOlICdw0Ntl5VBERABERABERABEQgbQhI4Ergps1kXs4XkcBdTpq6lgiIgAiIgAiIgAiIgAisDgEJXAnc1ZlpKXYXCdwUGzA9rgiIgAiIgAiIgAiIgAiQgASuBK7+RViAgATuAlC0SQREQAREQAREQAREQARcTkACVwLX5VM0OY8ngZsc7rqrCIiACIiACIiACIiACFwMAQlcCdyLmT9pe64EbtoOrV5MBERABERABERABEQgjQlI4ErgpvH0XvqrSeAunZ3OFAEREAEREAEREAEREIFkEZDAlcBN1txz9X0lcF09PHo4ERABERABERABERABEViQgASuBO6CE2Otb5TAXeszQO8vAiIgAiIgAiIgAiKQigQkcCVwU3HervgzS+CuOGLdQAREQAREQAREQAREQASWnYAErgTusk+qdLigBG46jKLeQQREQAREQAREQAREYK0RkMCVwF1rcz6h95XATQiTDhIBERABERABERABERABVxGQwJXAddWEdMvDSOC6ZST0HCIgAiIgAiIgAiIgAiKQOAEJXAncxGfLGjpSAncNDbZeVQREQAREQAREQAREIG0ISOBK4KbNZF7OF5HAXU6aupYIiIAIiIAIiIAIiIAIrA4BCVwJ3NWZaSl2FwncFBswPa4IiIAIiIAIiIAIiIAIkIAErgSu/kVYgIAE7gJQtEkEREAEREAEREAEREAEXE5AAlcC1+VTNDmPJ4GbHO66qwiIgAiIgAiIgAiIgAhcDAEJXAnci5k/aXuuBG7aDq1eTAREQAREQAREQAREII0JSOBK4Kbx9F76q0ngLp2dzhQBERABERABERABERCBZBGQwJXATdbcc/V9JXBdPTx6OBEQAREQAREQAREQARFYkIAErgTughNjrW+UwF3rM0DvLwIiIAIiIAIiIAIikIoEJHAlcFNx3q74M0vgrjhi3UAEREAEREAEREAEREAElp2ABK4E7rJPqnS4oARuOoyi3kEEREAEREAEREAERGCtEZDAlcBda3M+ofeVwE0Ikw4SAREQAREQAREQAREQAVcRkMCVwHXVhHTLw0jgumUk9BwiIAIiIAIiIAIiIAIikDgBCVwJ3MRnyxo6UgJ3DQ22XlUEREAEREAEREAERCBtCEjgSuCmzWRezheRwF1OmrqWCIiACIiACIiACIiACKwOAQlcCdzVmWkpdhcJ3BQbMD2uCIiACIiACIiACIiACJCABK4Erv5FWICABO4CULRJBERABERABERABERABFxOQAJXAtflUzQ5jyeBmxzuuqsIiIAIiIAIiIAIiIAIXAwBCdwUEbjDw8M4cuQIHnnkEdjnw4cP49prr0VhYSG2b9+Oa6655oLmgV3nQltdXR3MEmn33XcfmpqanOcMBALOeVdccQWe85znJHJ60o+RwE36EOgBREAEREAEREAEREAEROCCCUjgpoDAvfvuu/Hxj3/cEbbxRtiE5yc+8YmEhK6J29tvvz3epeJuf/Ob34y3vOUtcffbjnvvvRff+ta38Nhjjy143O7du/HBD34Q1ru5SeC6eXT0bCIgAiIgAiIgAiIgAiKwMAEJXBcLXPPU3nHHHY4XdOHhO3fri1/8YkcMn7vnj1u++c1v4mMf+9gfNyT46XwC984778QXv/jF816tsrIS//Iv/4Lrr7/+vMcm6wAJ3GSR131FQAREQAREQAREQAREYOkEJHBdLHDf/e5345577omObm1treNBra+vd8KSLWT54YcfhgnWkZGR6HHvfe978epXvzr6ff6Hj370o46Xdf72831fTODOF7fPe97z8PznPx979uxxPM8/+9nP8I1vfAPBYNC5jd/vx6c//WnXhixL4J5vNmi/CIiACIiACIiACIiACLiPgASuSwXuL3/5S7zpTW+KzpgXvehFMOFqa27nt7a2NrzxjW901uhG9v34xz/Gjh07Il/n9BaeHFmDu5honXPSIl9OnDiBF7zgBZiennaOMnH7+c9//pwzfve73+H9738/Ojs7nX22Jvd73/veOce5YYMErhtGQc8gAiIgAiIgAiIgAiIgAhdGQALXpQI3VoSa5/b+++9fdGQt6ZSdE/HkWmjz+973vgXP2bZtW3T7l770Jdx6663R70v58KlPfQpf+9rXnFOLiorwk5/8BDU1NQte6uDBg7Aw6ki766678KxnPSvy1TW9BK5rhkIPIgIiIAIiIAIiIAIiIAIJE5DAdanAjRWhlmAqVhTGG13z4lr2YmuWVfnb3/72OYeaEH7hC18Y3f6rX/0q4czI0ZNiPoyNjTlhxr29vc7WxYR15LQPfOAD+P73v+98jeftjRybrF4CN1nkdV8REAEREAEREAEREAERWDoBCVwXCtz5WY5NqCZSBsgSPNlaWGsWyvzoo4+eMzNiQ58LCgriZjs+58Q4G+Y/q4UcW+jxYu2JJ57Aq171qughP/zhD12XVVkCNzo8+iACIiACIiACIiACIiACKUNAAteFAtfW1JqZt9UyKZ+vNE9kts1PHnX06NHIrmgfK4LjeXmjByfw4etf/zo++clPRo80wWthyou1oaGhOYL9wx/+MF7+8pcvdsqq75PAXXXkuqEIiIAIiIAIiIAIiIAIXDQBCVwXCtyljqolerLMyta2b9/urIWdf63Ytb2xCaZMSEfOtZq6Zom0t7/97fj5z3/uHGrnWMhzIu2WW25xRLwd+1d/9Vd4z3vek8hpq3aMBO6qodaNREAEREAEREAEREAERGDZCEjgponAnR8qHG8t7FVXXRVNRGUJpkzYWlizeYznN0s+ZSI4XjZmO/4Vr3gF9u7d65x6ww03OKWA5l9noe+vec1r8OCDDzq7brrpJnz1q19d6LCkbZPATRp63VgEREAEREAEREAEREAElkxAAjdNBG6s99Zmw0LJo0zMXn311dHJYut0bdv5moVIm9BdqN122204efKks+u5z30uvvCFLyx02Dnb3vrWt+Lee+91tu/atQt33333Occkc4MEbjLp694iIAIiIAIiIAIiIAIisDQCErhpIHDf/e5345577onOgHje2/le3sgJlmzKvLTWW5khO25+M2+ueXzntxtvvBHd3d3O5pe97GX4yEc+Mv+QBb9bPdwf/OAHzr4LCW1e8GIrsFECdwWg6pIiIAIiIAIiIAIiIAIisMIEJHBTXODGJo2yuWJrby3rsnln57f5x5qgfe9737tgCaL5x9q1FsrmfPnll2N8fNy51Wtf+1q8613vmn/bBb9bYipLUGUtPz8fjz/++ILHJWujBG6yyOu+IiACIiACIiACIiACIrB0AhK4KSxwLaw3NjmTCVYTofHWzMZ6es93rE2p+TVzzdP64x//eI543rlzJ2ZmZpwZ+Hd/93f4+7//+4Rm4+c+9zl8+ctfdo7NzMzEoUOHEjpvtQ6SwF0t0rqPCIiACIiACIiACIiACCwfAQncFBW4sWLVpkMigjUybUy4moc3kUzJ80sPWZiyhStHmq3pjazj/cu//Ev80z/9U2TXor2VBvrOd77jHGNlhRYKi170Aiu8UwJ3hQHr8iIgAiIgAiIgAiIgAiKwAgQkcFNM4JqY/PjHPz4nKdOFiNsLnUPzE1PFlhaya918881ob293Lvvnf/7n+NSnPpXQLd7xjnfgpz/9qXOs1uAmhEwHiYAIiIAIiIAIiIAIiIAInIeABG4KCVwTm5ZAyjywkWZrbu+6666EvLGRcy60jy0t9KxnPcu5X+Qaf/qnf4rjx487X5/5zGfiK1/5SmTXov3rX/96/PrXv3aO2bZtW1TsLnrSKu6UB3cVYetWIiACIiACIiACIiACIrBMBCRwU0Tgmqi19bbzxW28hFLLND+cy9x+++3REOJrrrnGWecbuf4rX/lKPPnkk87XSy+9NJoZObI/Xm8Zl/fv3+/svvLKK/Hd73433qFJ2S6BmxTsuqkIiIAIiIAIiIAIiIAIXBQBCdwUELgmas1zG1nraiP+ohe9yMmAvFC25IuaEQucvJjAjS33Y6HSjz322AJXOHdTrFf41a9+tfMu5x6VvC0SuMljrzuLgAiIgAiIgAiIgAiIwFIJSOC6XOAuJG7j1bldbBK0tbVFa+WaUDaBHC/b8vzrWAhxpM1fg/uLX/wCb3vb2yK7ce+996KxsTH6faEPp0+fxnOf+9zors9+9rO47bbbot/d8EEC1w2joGcQAREQAREQAREQAREQgQsjIIHrYoG7kLi1BFMvfvGLL2yUebQJ3FtuuSV6XqIief55VjfXPK6R1tnZiZtuuinyFVbf9oUvfGH0+0Ifvv/97+MDH/hAdFciojh68Cp9kMBdJdC6jQiIgAiIgAiIgAiIgAgsIwEJXJcKXPOymlA0gRlpSxW3kfNf8IIX4MiRI87XRDMXv/GNb8R9993nnGMhyL/61a/m1MG1Ha94xSuwd+9e55hnP/vZuPPOO53P8f5hAv3gwYPO7qc//en4j//4j3iHJm27BG7S0OvGIiACIiACIiACIiACIrBkAhK4LhW4scLSRvdixa1dY35N2/nhxnZMbPvlL3+JN73pTdFN8Y6/5557YHV5I+3zn/88nve850W+zulN/H7xi1+MbvvMZz4Dy8TstiaB67YR0fOIgAiIgAiIgAiIgAiIwPkJSOC6UOA+8sgjsMROkWaJpGLDgiPbz9ebII1t5hU2L26kbq3te8tb3oL5x9l2E6Gxnth43ls71tprXvMaPPjgg+Ev/OdCIne+uL3kkkvwox/9KHqOmz5I4LppNPQsIiACIiACIiACIiACIpAYAQlcFwrc+d7bxIby3KOOHj16zkZb12vieWRkJLrPwpWvvfZap5au7TeLDY02cWvliBZLSmWhy+9617vmZHq25FQ7d+7EzMwMDhw4gKampug9i4uLnZq5e/bsiW5z0wcJXDeNhp5FBERABERABERABERABBIjIIHrQoEbW0InsWFc+KiFBK4daR5iE6OxntyFrwDU1tbirrvuWlTcRs5tbm52kkxZaPNirayszAmXvvnmmxc7LKn7JHCTil83FwEREAEREAEREAEREIElEZDAdaHAjQ1PXtKonj3JvK6LtW9+85u4++67o4mnYo/dvn27k615KaHRFopsHluzvr6+2Ms69XztmvX19XO2u+2LBK7bRkTPIwIiIAIiIAIiIAIiIALnJyCB60KBe/5hW/4jLCQ5EpZs4tbW/S5Hs7Dk0dFRlJaWOpaTk7Mcl13xa0jgrjhi3UAEREAEREAEREAEREAElp2ABK4E7rJPqnS4oARuOoyi3kEEREAEREAEREAERGCtEZDAlcBda3M+ofeVwE0Ikw4SAREQAREQAREQAREQAVcRkMCVwHXVhHTLw0jgumUk9BwiIAIiIAIiIAIiIAIikDgBCVwJ3MRnyxo6UgJ3DQ22XlUEREAEREAEREAERCBtCEjgSuCmzWRezheRwF1OmrqWCIiACIiACIiACIiACKwOAQlcCdzVmWkpdhcJ3BQbMD2uCIiACIiACIiACIiACJCABK4Erv5FWICABO4CULRJBERABERABERABERABFxOQAJXAtflUzQ5jyeBmxzuuqsIiIAIiIAIiIAIiIAIXAwBCVwJ3IuZP2l7rgRu2g6tXkwEREAEREAEREAERCCNCUjgSuCm8fRe+qtJ4C6dnc4UAREQAREQAREQAREQgWQRkMCVwE3W3HP1fSVwXT08ejgREAEREAEREAEREAERWJCABK4E7oITY61vlMBd6zNA7y8CIiACIiACIiACIpCKBCRwJXBTcd6u+DNL4K44Yt1ABERABERABERABERABJadgASuBO6yT6p0uKAEbjqMot5BBERABERABERABERgrRGQwJXAXWtzPqH3lcBNCJMOEgEREAEREAEREAEREAFXEZDAlcB11YR0y8NI4LplJPQcIiACIiACIiACIiACIpA4AQlcCdzEZ8saOlICdw0Ntl5VBERABERABERABEQgbQhI4Ergps1kXs4XkcBdTpq6lgiIgAiIgAiIgAiIgAisDgEJXAnc1ZlpKXYXCdwUGzA9rgiIgAiIgAiIgAiIgAiQgASuBK7+RViAgATuAlC0SQREQAREQAREQAREQARcTkACVwLX5VM0OY8ngZsc7rqrCIiACIiACIiACIiACFwMAQlcCdyLmT9pe64EbtoOrV5MBERABERABERABEQgjQlI4ErgpvH0XvqrSeAunZ3OFAEREAEREAEREAEREIFkEZDAlcBN1txz9X0lcF09PHo4ERABERABERABERABEViQgASuBO6CE2Otb5TAXeszQO8vAiIgAiIgAiIgAiKQigQkcCVwU3HervgzS+CuOGLdQAREQAREQAREQAREQASWnYAErgTusk+qdLigBG46jKLeQQREQAREQAREQAREYK0RkMCVwF1rcz6h95XATQiTDhIBERABERABERABERABVxGQwJXAddWEdMvDSOC6ZST+f3v3AT9Fcf9/fP4GuyH2EEWNioiiQRTEAlawix3FDiKowd5iJ1hQiVjAID7sJXaxxF6xR1FB0ahRECu2YMcAPvjfe/3NOrffvb29+973e3uzr3k84Hu3O7u385wt97ndmWE7EEAAAQQQQAABBBBIL0CAS4Cbfm/JUU4C3BxVNkVFAAEEEEAAAQQQ8EaAAJcA15uduZYFIcCtpSbrQgABBBBAAAEEEECgdQQIcAlwW2dPa7BPIcBtsApjcxFAAAEEEEAAAQQQKAgQ4BLgciDECBDgxqAwCQEEEEAAAQQQQACBjAsQ4BLgZnwXrc/mEeDWx51PRQABBBBAAAEEEECgOQIEuAS4zdl/vF2WANfbqqVgCCCAAAIIIIAAAh4LEOAS4Hq8e1dfNALc6u1YEgEEEEAAAQQQQACBegkQ4BLg1mvfy/TnEuBmunrYOAQQQAABBBBAAAEEYgUIcAlwY3eMvE8kwM37HkD5EUAAAQQQQAABBBpRgACXALcR99sW32YC3BYn5gMQQAABBBBAAAEEEKi5AAEuAW7NdyofVkiA60MtUgYEEEAAAQQQQACBvAkQ4BLg5m2fT1VeAtxUTGRCAAEEEEAAAQQQQCBTAgS4BLiZ2iGzsjEEuFmpCbYDAQQQQAABBBBAAIH0AgS4BLjp95Yc5STAzVFlU1QEEEAAAQQQQAABbwQIcAlwvdmZa1kQAtxaarIuBBBAAAEEEEAAAQRaR4AAlwC3dfa0BvsUAtwGqzA2FwEEEEAAAQQQQACBggABLgEuB0KMAAFuDAqTEEAAAQQQQAABBBDIuAABLgFuxnfR+mweAW593PlUBBBAAAEEEEAAAQSaI0CAS4DbnP3H22UJcL2tWgqGAAIIIIAAAggg4LEAAS4Brse7d/VFI8Ct3o4lEUAAAQQQQAABBBColwABLgFuvfa9TH8uAW6mq4eNQwABBBBAAAEEEEAgVoAAlwA3dsfI+0QC3LzvAZQfAQQQQAABBBBAoBEFCHAJcBtxv23xbSbAbXFiPgABBBBAAAEEEEAAgZoLEOAS4NZ8p/JhhQS4PtQiZUAAAQQQQAABBBDImwABLgFu3vb5VOUlwE3FRCYEEEAAAQQQQAABBDIlQIBLgJupHTIrG0OAm5WaYDsQQAABBBBAAAEEEEgvQIBLgJt+b8lRTgLcHFU2RUUAAQQQQAABBBDwRoAAlwDXm525lgUhwK2lJutCAAEEEEAAAQQQQKB1BAhwCXBbZ09rsE8hwG2wCmNzEUAAAQQQQAABBBAoCBDgEuByIMQIEODGoDAJAQQQQAABBBBAAIGMCxDgEuBmfBetz+YR4NbHnU9FAAEEEEAAAQQQQKA5AgS4BLjN2X+8XZYA19uqpWAIIIAAAggggAACHgsQ4BLgerx7V180Atzq7VgSAQQQQAABBBBAAIF6CRDgEuDWa9/L9OcS4Ga6etg4BBBAAAEEEEAAAQRiBQhwCXBjd4y8TyTAzfseQPkRQAABBBBAAAEEGlGAAJcAtxH32xbfZgLcFifmAxBAAAEEEEAAAQQQqLkAAS4Bbs13Kh9WSIDrQy1SBgQQQAABBBBAAIG8CRDgEuDmbZ9PVV4C3FRMZEIAAQQQQAABBBBAIFMCBLgEuJnaIbOyMQS4WakJtgMBBBBAAAEEEEAAgfQCBLgEuOn3lhzlJMDNUWVTVAQQQAABBBBAAAFvBAhwCXC92ZlrWRAC3Fpqsi4EEEAAAQQQQAABBFpHgACXALd19rQG+xQC3AarMDYXAQQQQAABBBBAAIGCAAEuAS4HQowAAW4MCpMQQAABBBBAAAEEEMi4AAEuAW7Gd9H6bB4Bbn3c+VQEEEAAAQQQQAABBJojQIBLgNuc/cfbZQlwva1aCoYAAggggAACCCDgsQABLgGux7t39UUjwK3ejiURQAABBBBAAAEEEKiXAAEuAW699r1Mfy4Bbqarh41DAAEEEEAAAQQQQCBWgACXADd2x8j7RALcvO8BlB8BBBBAAAEEEECgEQUIcAlwG3G/bfFtJsBtcWI+AAEEEEAAAQQQQACBmgsQ4BLg1nyn8mGFBLg+1CJlQAABBBBAAAEEEMibAAEuAW7e9vlU5SXATcVEJgQQQAABBBBAAAEEMiVAgEuAm6kdMisbQ4CblZpgOxBAAAEEEEAAAQQQSC9AgEuAm35vyVFOAtwcVTZFRQABBBBAAAEEEPBGgACXANebnbmWBSHAraUm60IAAQQQQAABBBBAoHUECHAJcFtnT2uwTyHAbbAKY3MRQAABBBBAAAEEECgIEOAS4HIgxAgQ4MagMAkBBBBAAAEEEEAAgYwLEOAS4GZ8F63P5hHg1sedT0UAAQQQQAABBBBAoDkCBLgEuM3Zf7xdlgDX26qlYAgggAACCCCAAAIeCxDgEuB6vHtXXzQC3OrtWBIBBBBAAAEEEEAAgXoJEOAS4NZr38v05xLgZrp62DgEEEAAAQQQQAABBGIFCHAbLMCdO3eumT59upk9e7ZZfvnlTdu2bWMrtpKJ3377rfnqq6/MF198Ydq1axf8W2CBBSpZRZO8s2bNMjNnzgz+zTfffDXb1iYf1EITCHBbCJbVIoAAAggggAACCCDQggIEuA0Q4H7++efm1ltvNY8//rh55513zJw5c8JdokuXLmbHHXc022+/vVlyySXD6WleTJw40Vx33XXmoYceapJ9/fXXNz169DBDhw5tMi9pwkcffWSuvfbaYL3RfB06dDA9e/Y0J510UnRW5t4T4GauStggBBBAAAEEEEAAAQTKChDgZjzAHTNmjLnllluMgtyktOKKK5oBAwaYvffeOylbOG/cuHFm1KhR4ftSLw4//PDUQe6ECROC4FV3g5PSNttsYy6++OKkLHWfR4Bb9ypgAxBAAAEEEEAAAQQQqFiAADfDAe7DDz9sFGC6acsttzTt27cPJulu6WOPPebONsOHDzd77rln0bTomzvuuMOcfPLJ4eTFFlvMrLPOOqZr165mypQp5o033igKqNMEua+99poZPHhw8EiyXXHnzp3NWmutZX7++WczadIk8+6779pZJutBLgFuWFW8QAABBBBAAAEEEECgYQQIcDMa4L799ttm0KBBRYGm7noqMHTTgw8+aI488kh3krn33ntNx44di6bZNwped911V/vWdOvWzZx11llm5ZVXDqfphdapddt0zjnnmN12282+bfJX69S6bYrbVt2NHj16tM1i+vfvb4YNGxa+z9ILAtws1QbbggACCCCAAAIIIIBAOgEC3IwGuJdddpm58MILw1q88847je6IxqVp06YVBb66k3rsscfGZTWnn3568MizZm666aZBwLngggvG5nWD3A022CBoWxuXUY9Qa702xQW3dp4b5C666KLmnnvuCe9I2zxZ+EuAm4VaYBsQQAABBBBAAAEEEKhMgAA3owHugQceaJ5//vmgNtM8zqvHiPVIs9Kaa65pxo8fH7x2/4vevT3zzDNNv3793CxFr6P5r7jiCtOrV6+iPHrj3r3dfPPNjYLzpOTmVxB92GGHJWWvyzwC3Lqw86EIIIAAAggggAACCDRLgAA3gwHuSy+9ZPbdd9+wYs8++2yz++67h+/jXpx//vnmyiuvDGYttNBCZvLkyU2yqcdkrUtJd0/VfneJJZZoks+d4N7x7du3rxk5cqQ7O3gs2X3kWcGtgtyk5N7x1aPRuovb3GGJkj6vmnkEuNWosQwCCCCAAAIIIIAAAvUVIMDNYIBrdwn1nPzcc8+ZnXfe2U4q+dd9nFjj42pIoWg64YQTzN133x1M7t69u7nhhhuiWZq8v+2228ypp54aTtddZXc4IjdYVSZ9rj4/Kb333ntmu+22C7PoseU+ffqE77PwggA3C7XANiCAAAIIIIAAAgggUJkAAW6GA9xKqlLtaWfMmBEsUuox4W233dZMnTo1yHPAAQcU9aRc6rNeffVVs9dee4Wzr7/+eqMxcm1y7/C2bdvW6O5zmrTeeuuZ77//PsiappfmNOusZR4C3Fpqsi4EEEAAAQQQQAABBFpHgADXgwDXDTK128Q9JqyhetQ216ZLL73U9O7d274t+ffHH38Mhg+yGc4444yisXY17u7LL78czF577bXN7bffbrMm/lWPzBqSSClNG+PElbXATALcFkBllQgggAACCCCAAAIItLAAAW4DB7h6XFhDAmlcW5tK3Q395ptviu68Ru/E2uXj/q6++urh5Oj61S5XQxopbbbZZmbcuHFh3qQXQ4YMMU8++WSQpUuXLubWW29Nyt7q8whwW52cD0QAAQQQQAABBBBAoNkCBLgNFuCOGDHCvPDCC+azzz4zM2fODHcAPR48dOhQo0eP49LHH39stthii3BWrQJcrVPrVorrhCr8wMiL448/PuhcSpPV0ZQ75m4ka13eEuDWhZ0PRQABBBBAAAEEEECgWQIEuA0W4O65555m0qRJTSp9l112MYceeqhZaaWVmszTBN1lVQBqU60CXLXH1d1hJfX8fNppp9mPSPyrIYpsJ1fqtMoOiZS4UCvOJMBtRWw+CgEEEEAAAQQQQACBGgkQ4DZYgKvHhdVLsf4p0J09e3bRrlCqPavayaq9rE21CnDVrlfte5UUYB911FH2IxL/XnTRRWbs2LFBnjZt2gTDDSUu0MozCXBbGZyPQwABBBBAAAEEEECgBgIEuA0W4L7xxhumc+fOQdX/73//M88++6y5+uqrzYsvvhjuDnFB7uuvv140lm61Aa6GGjrooIPCz1pnnXXMrFmzgvcDBw40J554Yjgv6cV5551nrrrqqiDLIossYtRbc5YSAW6WaoNtQQABBBBAAAEEEEAgnQABboMFuKWq1Q0YlWf48OFGjzPbNG3atKC3Yvu+2gBXjxb369fPrsb07NnTfPHFF8H7PfbYw5x11lnhvKQXGltXY+wqLbvssubpp59Oyt7q8whwW52cD0QAAQQQQAABBBBAoNkCBLieBLjaE/bbb7/wTq7u8t55553hDqIgVMGoTdUGuHq0WOPp2qS7xQqelbbeemtzySWX2FmJf4844gjz0EMPBXlWXXVVc//99yfmb+2ZBLitLc7nIYAAAggggAACCCDQfAECXI8CXD3yqzu5NumuqO6OKukxYj1ObFO1Ae4VV1xhevXqZVcTPPasx5+VNtpoo+Bx6XBmwosBAwaY5557Lsih7brlllsScrf+LALc1jfnExFAAAEEEEAAAQQQaK4AAa5HAe59991njjnmmHCf0B1c215XE3v06GG+/vrrYP75559vdtpppzBvqRfR4YUeeeQRs+KKK4bZNS7uww8/HLxfYYUVzKOPPhrOS3rRu3dv8+GHHwZZtB3aniwlAtws1QbbggACCCCAAAIIIIBAOgEC3AwGuHqc+Msvvwzatk6dOtUceOCBqWrziSeeMIccckiY99577zUdO3YM37tjzyrf0UcfHc4r9WLChAlm8ODBwexlllnGPPPMM0VZ1Y5W7Wlteumll4zG5E1K3377renevXuYZdiwYaZ///7h+yy8IMDNQi2wDQgggAACCCCAAAIIVCZAgJvBAFcdNekRYpsmT55sFlpoIfu25N8xY8aY0aNHh/PVM7F6KLbp9ttvN6ecckrwVndQL730Ujur5N8rr7wyvLvap08fo89w07vvvmu23377cNJNN91k1l133fB93ItXXnmlKKC9+eabTdeuXeOy1m0aAW7d6PlgBBBAAAEEEEAAAQSqFiDAzWCA+9RTT5mDDz44rNRRo0YVBZHhjMgLDd9j77DGPS4cDUajjzBHVhe83XXXXcMxavU48tChQ5tkU4CrdSsNGTKk6DHpJpkLE04//fSwza3aCKuzKTcQj1umtacR4La2OJ+HAAIIIIAAAggggEDzBQhwMxjgqlq32morM3369KCGdXdTdzmTkjppUuBoU6k7tG6bWQ0jpOGESiV3nQpE77jjjrDTKneZsWPHGvWurLTKKquYBx54wJ1d9Frj+CpotqlU0Gzn1+svAW695PlcBBBAAAEEEEAAAQSqFyDAzWiAq96KR44cGdashgBy27qGMwovokHj0ksvbW644Qaz8soru9mC1y+++GIwnJCdsf/++4ePLdtp+qtHjdU21qakQPT7778PxsZ97733guwbb7xxMB7ucsstZxcP/j7//PPmpJNOMp9++mnwPiloLlqwDm8IcOuAzkcigAACCCCAAAIIINBMAQLcjAa4qld1vKT2qjapR+S+ffsG49kuvPDCZuLEiebll18OH/e1+S644AKzww472LdN/ipQVudQNm2yySZG/xREjx8/3mh4IfXIbJPGzx03bpxp06aNndTkbzQgVudWW2yxhdE4ubNnzzbq8Ep3oefMmRMue+6555pddtklfJ+lFwS4WaoNtgUBBBBAAAEEEEAAgXQCBLgZDnBVhVtvvbV5//33U9Vm+/btzcCBA80+++xTNr/bDjYp8+qrr250N9mOp5uUV48wn3zyyUlZwnnq0XnQoEHh+6y9IMDNWo2wPQgggAACCCCAAAIIlBcgwM14gKsqVOCox4V1J7RUUmCrfxrKJ23Snd7LL788Nvv8889v9Piy/rVr1y42T9xEPYasbS0VlHfr1i1YpwL3LCcC3CzXDtuGAAIIIIAAAggggEC8AAFuAwS4qrq33noraGs7bdq0oPMpBaCdOnUya6yxRvBP7W6rSVqf2vDq35QpU0yHDh2CsXO7dOli1lxzzWpWaX744YdwfVrv3LlzzWqrrWZ0N1hDDTVCIsBthFpiGxFAAAEEEEAAAQQQKBYgwG2QALe42njX0gIEuC0tzPoRQAABBBBAAAEEEKi9AAEuAW7t9yoP1kiA60ElUgQEEEAAAQQQQACB3AkQ4BLg5m6nT1NgAtw0SuRBAAEEEEAAAQQQQCBbAgS4BLjZ2iMzsjUEuBmpCDYDAQQQQAABBBBAAIEKBAhwCXAr2F3yk5UANz91TUkRQAABBBBAAAEE/BEgwCXA9WdvrmFJCHBriMmqEEAAAQQQQAABBBBoJQECXALcVtrVGutjCHAbq77YWgQQQAABBBBAAAEEJECAS4DLkRAjQIAbg8IkBBBAAAEEEEAAAQQyLkCAS4Cb8V20PptHgFsfdz4VAQQQQAABBBBAAIHmCBDgEuA2Z//xdlkCXG+rloIhgAACCCCAAAIIeCxAgEuA6/HuXX3RCHCrt2NJBBBAAAEEEEAAAQTqJUCAS4Bbr30v059LgJvp6mHjEEAAAQQQQAABBBCIFSDAJcCN3THyPpEAN+97AOVHAAEEEEAAAQQQaEQBAlwC3Ebcb1t8mwlwW5yYD0AAAQQQQAABBBBAoOYCBLgEuDXfqXxYIQGuD7VIGRBAAAEEEEAAAQTyJkCAS4Cbt30+VXkJcFMxkQkBBBBAAAEEEEAAgUwJEOAS4GZqh8zKxhDgZqUm2A4EEEAAAQQQQAABBNILEOAS4KbfW3KUkwA3R5VNURFAAAEEEEAAAQS8ESDAJcD1ZmeuZUEIcGupyboQQAABBBBAAAEEEGgdAQJcAtzW2dMa7FMIcBuswthcBBBAAAEEEEAAAQQKAgS4BLgcCDECBLgxKExCAAEEEEAAAQQQQCDjAgS4BLgZ30Xrs3kEuPVx51MRQAABBBBAAAEEEGiOAAEuAW5z9h9vlyXA9bZqKRgCCCCAAAIIIICAxwIEuAS4Hu/e1ReNALd6O5ZEAAEEEEAAAQQQQKBeAgS4BLj12vcy/bkEuJmuHjYOAQQQQAABBBBAAIFYAQJcAtzYHSPvEwlw874HUH4EEEAAAQQQQACBRhQgwCXAbcT9tsW3mQC3xYn5AAQQQAABBBBAAAEEai5AgEuAW/OdyocVEuD6UIuUAQEEEEAAAQQQQCBvAgS4BLh52+dTlZcANxUTmRBAAAEEEEAAAQQQyJQAAS4BbqZ2yCxtzF+H/y1Lm8O2IIAAAggggAACCCCAQBmBnXfa1nTp0rlMLn9n/79CfDvP3+JRMgQQQAABBBBAAAEEEEAAgbwIEODmpaYpJwIIIIAAAggggAACCCDguQABrucVTPEQQAABBBBAAAEEEEAAgbwIEODmpaYpJwIIIIAAAggggAACCCDguQABrucVTPEQQAABBBBAAAEEEEAAgbwIEODmpaYpJwIIIIAAAggggAACCCDguQABrucVTPEQQAABBBBAAAEEEEAAgbwIEODmpaYpJwIIIIAAAggggAACCCDguQABrucVTPEQQAABBBBAAAEEEEAAgbwIEODmpaYpJwIIIIAAAggggAACCCDguQABrucVTPEQQAABBBBAAAEEEEAAgbwIEODmpaYpJwIIIIAAAggggAACCCDguQABrucVTPEQQAABBBBAAAEEEEAAgbwIEODmpaYpJwIIIIAAAggggAACCCDguQABrucVTPEQQAABBBBAAAEEEEAAgbwIEODmpaYpJwIIIIAAAggggAACCCDguQABrucVTPEQQAABBBBAAAEEEEAAgbwIEODmpaYpJwIIIIAAAggggAACCCDguQABrucVTPEQQAABBBBAAAEEEEAAgbwIEODmpaYpJwIIIIAAAggggAACCCDguQABrucVTPEQQAABBBBAAAEEEEAAgbwIEODmpaYpJwIIIIAAAggggAACCCDguQABrucVTPEQQAABBBBAAAEEEEAAgbwIEODmpaYpJwIIIIAAAggggAACCCDguQABrucVTPEQQAABBBBAAAEEEEAAgbwIEODmpaYpJwIIIIAAAggggAACCCDguQABrucVTPEQQAABBBBAAAEEEEAAgbwIEODmpaYpJwIIIIAAAggggAACCCDguQABrucVTPEQQAABBBBAAAEEEEAAgbwIEODmpaYpJwIIIIAAAggggAACCCDguQABrucVTPEQQAABBBBAAAEEEEAAgbwIEODmpaYpJwIIIIAAAggggAACCCDguQABrucVTPEQQAABBBBAAAEEEEAAgbwIEODmpaYpJwIIIIAAAggggAACCCDguQABrucVXEnxZs2aZWbOnBn8m2+++czyyy9v2rZtW8kqyIsAAikEvv32W/PWW28FOddff/0US8Rn+e6774Lj9auvvjK/+93vgmN2wQUXjM+ccirngZRQZMuFwIsvvhiU87e//a1ZY401ml1mXWP/+9//Gh2zusbqX3NTS5wHmrtNLI9APQR0XL333numXbt2wb8FFligWZsxd+7c4HjVcfvTTz8Fx+vSSy/drHVqYfc8UKttbfZGebYCAlzPKrSa4nz00Ufm2muvNdddd12TxTt06GB69uxpTjrppCbzmIAAAtUJ/OUvfzHjx48PFn777bcrXsnEiROD4/Whhx5qsqwC5h49epihQ4c2mZc0gfNAkg7z8iLw8ccfmzFjxphHH33U6IeoaFKQe8ABB5hddtklOivx/X333RdcZydPntwk3zbbbGO23XZbo7+VpKTzQJcuXcx6661nTjzxxEpWSV4EGk7g+eefD66H//73v82nn35atP1bbbWV6dOnj+nbt2/R9HJv5syZE6xT34tnzJhRlH3xxRcPvhdrvZUes0nngWqv3UUbx5tQgAA3pMjniwkTJgTBq371Sko6iC+++OKkLMxDAIEUAnfeeWfRD0aVBrjjxo0zo0aNKvtJhx9+eOogl/NAWU4y5EBg9OjRQXCbpqj6MnryySenuqt79NFHm/vvv7/sanWNTfuFOe15gGt3WXYyNLDAqaeeam677bayJdDxOmDAALPFFluUzasg+bDDDjNvvvlm2byVHLNpzwOVXLvLbmCOMxDg5rjyX3vtNTN48ODgUQnLsM466xj9+/LLL80bb7xhpk2bZmcFF16C3JCDFwhULKDHHffbb7+i5SoJcO+4447gS7VdwaKLLmo6d+5s1lprLfPJJ5+YSZMmFf3anOZCGXcesOv8+eefg3W+++679iM5D4QSvPBJIC641ZfiTp06BU11dHdI/3Sc2aQmPI899lhiU54RI0aYa665xi5ill122fCYffXVV4Pj6/vvvw/np/nCHD0PaGGu3SEhL3IiMGzYMHPTTTeFpdXx2KtXr+AxYj198cEHH5jnnnsunL/QQgsFx2LXrl3DadEXegz5kEMOMborbJMeIdbxtdxyy5kpU6YE341/+OEHOzu4+VPuh6noeWCxxRYL1qltsev8/PPPw3WmuXaHmXkRK0CAG8uSj4m77rprcKDa0sZdWPWoli78NvXv39/opEJCAIHKBPTIox71jz72mDbA1Q9OOmZtUvMBHbP666YjjzzSPPjgg+Gkc845x+y2227h++iLNOeBK664wowcOTJclPNASMELDwSiPzwpqD333HOb3J3VsavroducR0Hw9ddfH6twyy23mNNPPz2cF3c3VT8e6Zh1f0S65557zOqrrx4u576IngeWWmopc9ZZZzW5MxW9du+zzz5F2+Kuk9cINJrARRddZMaOHRtudu/evYMnlqLt5KPHwdprr21uv/32cLnoCx2vOm5t2mOPPYLjy77X37hj9oEHHjCrrLKKmy18reZIapZkU7du3YJ1rrzyynZS8LfSa3fRwrxpKjCPlEuBm2++eV7Hjh3Df4WDs6RD4YIe5iv82jTvww8/LJmXGQgg0FSg8AU0PIbc406v06bTTjstXEehXfy8//znPyUXPeKII8K8+++/f8l8lZwHChfpcJ2cB0qSMqMBBQrt88J9u9Budd4333yTWIro8fzII4/E5i+00w3XO2TIkNg8mqhjebvttgvznn/++SXzRs8DhccoS+Z1r92FO1vzCneKS+ZlBgKNIlBoUjdvww03DI+Xwg+u8wqdI5bc/MIPtGFeXXMLfVfE5i3cSS3Kp+OnVIoes5dddlmprPMOPvjgcL06DxTuEpfMm/baXXIFzAgFuIPbNObPxRT3rs3mm29uCgdnYrnd/PqVSe0TSAggkCygO0P65VYd19ik3ljV66lNae7gRu/alHt8KZpfd2D16FY0ucd1mvOAOq4qfJkPVsN5IKrJ+0YU0F3Z7t27h5uuRwl1XCQlLaO2fPY41nGhY9JN0bu3usbqGCuV3Px6jFl3cZdYYomi7NHjutx5QI9RqvOqzz77LFjPeeedZ3beeeeidfIGgUYT+Oc//2mOPfbYcLN17OgR4lJJd1y33377cPa+++5rCj8Uhe/tC/furY5BNQXQ31LJbQf/pz/9KbYt8Ouvv2523333cBXlzgN6NPrAAw8M85e6docZeFFSgAC3JI2/M6IXyXIHnCTci68eq9DFt7ndr/srTMkQMEFbWzvEiPXQ44zqgfXPf/6znWTSBLh6JPLss88OltEwQHrcOenCq4zuxVo9SLqPGGt+NeeBu+66K+yVlfOAFEmNLqBjyT0eH3/88VRD96gtvT2+4x5TPuaYY4x6TFXaaKONzNVXX12Wyv3BSR1Y6VzhpmrOA8OHDzc33nhjsBr1+qpHNkkINLKAmvqos0YltY9Vk5yFF144sUgKcG0zAP3Yq8AxmvQDlG1jX+7HIy07derU4Ackux61tS/cWbZvg7/uMZv2PKDHotU3hlLctTuYwX9lBQhwyxL5l8ENVtu0aRM0pi833q3GFSs8QhVi6CKpiyUJAQTiBdw2dLprqwumvrBG2/ulCXBPOOEEc/fddwcfpDa39otz/Cf/MlU9S6qHSZv0y/CSSy5p3xb9aKWJab7Ycx4I+XjhiYC+KNshu3RspjkeVXQ9xaQOppTiAlxdH9XJjdKee+5pFGihS6NQAAAVAElEQVSWS+7wYep8ptCEoGiRljgPFH0AbxBoIAEFrOpEqtAMp+xWK/DU+NNKGuJLbezdpA5V3Y6i0j7toGGIpk+fHqzqoIMOMjpG3eQes2nPA/ox223nr84jywXw7mfy+hcBAtwc7gnunZ1Sj1XEsWhMPdvbY5pft+LWwTQE8iJgA1xdTHW8LL/88kHRqwlw9Zihfi1WSvMosfKph9a99tpLL4OkjnD0Rdwm9zygH7heeuklOyvxL+eBRB5m5kTAvdsTDXDVG6rbJEBfcvXlt1zS01QXXnhhkG2RRRYJjmF3mZY4D7jr5zUCPgpo7Ol+/fqFRYv7/hp97FkdUalDqnKp0L7WPPXUU0G2jTfe2Fx11VVFi7jHbNrzgIYU05BCNqX58dnm5e+vAgS4v1rk5tXee+9tXn755aC8uqOkR6HSJPXEqu7MleJ6g0yzDvIgkBcB3Y1xA1tb7koDXA3Vs+aaa9rFgy/K0V+Jw5nOix9//NHoLpBNZ5xxhtGxb5N7HijXs6RdRn85D7gavM6jgIYLctuy6g7SKaecElJE29FdfvnlZtNNNw3nl3rx5JNPmkInNOFsPalhe0lvqfNA+GG8QMBDAQ37ozat+sFXqVTb2mivzGnvmhY6hDNXXnllsO6ll17aPPvss8Fr/Rc9ZtOeBwqd3BX9GJ022A4/mBeBAAFuDncEPdNvH8OK+yWrFEm5NkellmM6Agj8KlBpgBu92J144olm4MCBv64w4ZUCXAW6StFj3T0PbLbZZkYdZqRJ+gKuL+JKXbp0Mbfeemvwmv8QyIuAey1UmdU23R2eRB2xqeMpm9RZjcaqLpf0A7I7pJfbwUytzgO643TccceV2xTmI9DwAnpqSXdX7R1WFShuOExN11BbdrivuKcnlCcu6Y6tHme2SW1n1U+GUvSYTXse0LL2CTC9ds8Dek9KJ0CAm87Jq1zq/dH26hr90ptUUPeiHn0kK2k55iGAwK8ClQa4OlZ1zNqkC7E6oUiTdNdoxowZQdbose6eByrpyOL4448POpnTStXRlDvmbpptIg8CjSygNrvq5MamuPZ80XEvH374YbPSSivZRUr+VVs+temz6YILLjA77LBD8LZW54G07QDtNvAXgUYRUK/hhxxySPD91n7Htdu+7rrrmkGDBpktt9zSTir667Z/V8dVEyZMKJpf6k20r4unn3467AAyesymPQ/os9wA1z0PlNoOpjcVIMBtauL9FAWn+mVJKfqlN6nwBLhJOsxDIJ1ApQGunrZQAGrTJZdcYrbeemv7NvGvvhwXxusL8kSPdfc8UGrYhLiVn3nmmeaGG24IZqnTKj2OSUIgDwLR4Fadx6nzN9u+3hroTpB+iLLphRdeaDLkj53n/p05c6bZYIMNwklus4JanQdoXhTy8sIzgU8//dToaaRo0vGp659+jCqV3CHwVlttNaM2uWlSYUxdUxi7NszqNiuIHrNpzwNamRvguueB8IN4UVaAALcskX8Z1J5PbQOUol96k0pLgJukwzwE0glUGuCqvbzbdlbDjWi4gTTJbWcbPdbd88Chhx5qjjrqqDSrNG5bJfXCruGGSAj4LqB2t2prqzFwbYp23Ganjx07NjhO7Ps333zT/OY3v7FvS/6NttnTMaljU6lW54G0Q5WU3EhmIJBRAQWU6kxKT0vMnj3bqGdkNynQ1ZBgbjMAO1/tdO2PtepI8R//+IedlfhXvTgPGDAgzKPltLxS9JhNex7Qsm6A654HNI+UToAAN52TV7k0IPasWbOCMkW/9CYV1A1wK2mzl7RO5iGQN4FKA9zoQPGlvlTHObodQkV7cHTPA2rTq7a9aZLaG9meIitpq5Rm3eRBIIsCunM7YsSIouBW7zVubVxSpzPqfMYmdXCjY6VcinYM5x6zGhJFY3napDbzcXer7Hz3r3se4NrtyvDaJwGNBPCHP/zBtG/fPiiWmuc88MADZtSoUUHAa8uqHor1KLObBg8eHD6WrPbyai+bJkU7hnM7hIpeu9OeB/S5boDrngfSbBN5fhEgwM3hntCzZ0/zxRdfBCWvNsDdcccdzd/+9rcc6lFkBJonUGmAGx2fr5IA1x2jT48Wu0MluOcBtel1H6lMKqHG1lW7IyX1SKk2RyQEfBWIPpasciYFt5rvjjWv92rPp3Z95ZK+kLu9LbvHrIbos3eGtJ6RI0cWNV1IWrd7HuDanSTFPF8F3D4nVEYd1507dw6Le8wxx4Tjy+sOsNrLpkn33HOPUb8UNumR5T/+8Y/B2+i1O+15QAu7Aa57HghWzH+pBAhwUzH5lUltcOyjG9UGuP379zfDhg3zC4bSINAKApUGuPoxSsGoTZUEuGrPp3Z9Snq0WGPy2eSeB9SmV2170yS1N9JFXGnVVVc1GrOPhICPAm7HMyqf2txqWL1Sd26tgdrh6QuzTWrPp3Z95ZLay9tOpZQ3esy6Y1CfdtppRm3n0yT3PMC1O40YeXwTiA7dFe1szR0XfoklljBqL5smqT8KBaA26ZHlpZZaKngbvXanPQ9oYTfAjZ4H7GfxN1mAADfZx8u5u+++u9GjE0rVBrh6nOPYY4/10odCIdCSApUGuGpOoMeJbaokwHXb2UaHGnDPA5W0y1N7I13ElbRdultFQsAnAbWz1V1a3eWxScGtjj13OCA7L/pXd2p0jbTJbZdnp8X9jbbZix6zekRZjyorVdIuzz0PcO2Ok2daHgT69OljPvjgg6CoHTt2NPfee29YbHc8W7WXV3vZNCna3l7frRdYYIFg0ei1O+15QAu7AW70PJBmu8hjDAFuDvcCBbX28Qu1zTnnnHNSKfTu3dt8+OGHQV4tE9dQP9WKyIRAjgUqDXBF1aNHD/P1118Hamnv3ESHKNDFXBd1m9zzwAorrGAeffRROyvxr3se2GmnnYraGiYuyEwEGkBAwa06k1KnUjZ16tTJnHvuuamCWy0T7T1VX551rJRL6pFZ7e1s0ni6K664on0bdDj1+OOPB+/TXruj5wGu3SEnL3Im4PaUrB+sJk6cGAroxyu3mY6Os2jv6GFm54We6LDtddX+144Rb7O4T12kPQ9Ezx/R84BdN3+TBQhwk328nOuO26WxwW666aay5dRFv3v37mE+tTtwf2EKZ/ACAQQSBaoJcN2xZ3UXR51mlEvRu0jRDi7c84DWpQ462rZtm7ja6HlAzRT0yCMJAR8ESgW3+vJb7tiIln+TTTYxn332WTBZHdqoY5ty6cILLzSXXXZZkG2ZZZYxzzzzTNEi7t2itNfu6HmAa3cRKW8aUEDHlf2nYFCBa5rkdpAYDUajnbhdfvnlRe3hS61f179XXnklmB13bXafeEp7HrjxxhvN8OHDg3XGnQdKbQvTiwUIcIs9cvHOPZDTtjXQAWy/yKZdJheYFBKBCgWqCXDVM+Mpp5wSfFL0wlzq492eXOPu0LrnAa1DP3TpS3NScs8DynfzzTebrl27Ji3CPAQaQiAuuNW4mbpzW03S8arjVklPPVx66aVlV6MhTOyTFHqccsyYMUXLPPHEE2Hvr2mvw+55IO0yRR/KGwQyJuDeXNHj9+PHj0+1he5IIHHBqNsZW9qei9327XHLXHDBBUbBslLa84B+DLN9W8SdB1IVlkw8opzXfcBty6NfitTgPim5DfA333zz8FfmpGWYhwACTQWqCXCjwai++OrCl5TUEY4do7bUMeueB4YMGVLUMU7cunXnWMOTKKkHZXU2lWb4k7h1MQ2BLAnoEeK33nor3KTmBLdaifuj1KKLLhoMV/L73/8+XH/0hY5Vt/OquP4xPvroI7PllluGi6a5drvje5Y6D4Qr5AUCDSDgtpfV5upHIf2Im5TUsaoe6//hhx+CbHHBqPuj1IYbbmiuueaapFUaPTrs3j3W8Hkbb7xx0TLRXpajvTcXZS680Z1pdQZptzPuPBBdhvclBOaRcinw97//fV6hPV7wr3AhTzSYMmVKmFfLFNomJOZnJgIIlBb417/+VXQ8lc5ZPKdwIQ2XK1yci2dG3hXurIZ5k45Z9zxQ6FU5spamb5XHnjdGjx7dNANTEGhAgULbu3C/1v5dGBO62aX48ssv5xUCynC9hd5WE9dZaFsf5i30mj6v8EU3Nr97Hih37Z48eXK4zqTzQOwHMRGBjArcddddRft14SmLslta6HG8aJnC4/9Nlik8zl+UR8dPUtJ12F4PCz8Qx2aNngd0nCclnSfsOpPOA0nrYN4vAgaIfAp899138wq/EoUHUqGdwLxCZxRNMAq9pc4rjMsX5it1EDdZkAkIIBArUG2AG11OX8rjUqGnxvB41YUy6ZhNex7QuUHnCC68ceJMa2SBwl3RcL/W/q0vwrVKhTs6RevWsRmXogF20o9H0fMA1+44Uab5LPDTTz/N23vvvYuOrddee61kkQt3fIvyFvqOKJn3uOOOC/Pqu6++A8el6DGbdOMneh5Ie+1OOg/EbRPTigVog1viznYeJqvNnTuWbeHibjQYtsbHnD17dtCFutrYzZkzJ+DQI4nqAMMdHDsPTpQRgVoKVPOIsv38U0891ahzKJt69epl9CiVHq9U+1g9MqVHomxKc8wmnQe0ngcffNCoR8l33nnHrjZol6hHOEkINLpAdKzbasujzm6iae7cuaZfv35hUwHNV7MAHbc6ftR51VNPPRX8s8tqzGs1A2jTpo2d1ORv9Dyga7fGst5jjz2C41THq84TXLub0DHBEwGNGa02tXacdxVLbWgLQWnwPVaP+k6aNCl4fNntrE29kus6WSoV7toGx6ydP//88wfHlb4ba4gw9XSuMXWffvppm8UMHDjQFJ76CN9HX8SdB9QJnf6pDGpDrPVp/Gyb0pwHbF7+xgsQ4Ma75Gbqtddem3qYIMbiys1uQUFbUKA5Aa42a+TIkUbHYpqU9pjVMAca7iBNUo/OgwYNSpOVPAhkXsDtsKY5GxsX4Gp9X331ldHQXo899ljZ1WtbdMzqh6lyqSXOA+U+k/kIZElAx5Q6gbNj25bbts022yzsQyIpr8ajVntctdstl/r27Rtck8vla6nzQLnPzfN8Atw81/7/lV2/HulX7FJJvzKpA5pu3bqVysJ0BBBIKdDcAFcfE73rGv1o3SU64IADTJcuXaKzSr7Xr9J6ouP999+PzaPjX+OD6k4RCQEfBKLHYnPKVCrAtescMWJEyU5rdJdIx5b+tWvXzi5S9m9LnAfKfigZEMiQwOeff240fFbh8f+SW6UOqAqPHgdPJ5bMFJnxySefmL/+9a9NxrW12dq3bx9cY3XMVpJa4jxQyefnKS8Bbp5qO6GshYbwwcD2GtxePUn+/PPPZrXVVgvGui3XW2vCapmFAAIRAQ1H4vbWuv7660dypHurC7t6XtW/QkdwZvHFFw+O2U6dOjXpyTHdGk3Qc6Ndn/7q0SrOA2n1yNdoAtFjsTnbn+Y41h0h95jt0KGD0ePF+iFKw51Uk1riPFDNdrAMAvUUKLSVNVOnTg1+oJ0+fbpRj+W6FuqxYv2rtrd/93o4Y8YMo2NWT1roEeKlllqqqiK3xHmgqg3xfCECXM8rmOIhgAACCCCAAAIIIIAAAnkRIMDNS01TTgQQQAABBBBAAAEEEEDAcwECXM8rmOIhgAACCCCAAAIIIIAAAnkRIMDNS01TTgQQQAABBBBAAAEEEEDAcwECXM8rmOIhgAACCCCAAAIIIIAAAnkRIMDNS01TTgQQQAABBBBAAAEEEEDAcwECXM8rmOIhgAACCCCAAAIIIIAAAnkRIMDNS01TTgQQQAABBBBAAAEEEEDAcwECXM8rmOIhgAACCCCAAAIIIIAAAnkRIMDNS01TTgQQQAABBBBAAAEEEEDAcwECXM8rmOIhgAACCCCAAAIIIIAAAnkRIMDNS01TTgQQQAABBBBAAAEEEEDAcwECXM8rmOIhgAACCCCAAAIIIIAAAnkRIMDNS01TTgQQQAABBBBAAAEEEEDAcwECXM8rmOIhgAACCCCAAAIIIIAAAnkRIMDNS01TTgQQQAABBBBAAAEEEEDAcwECXM8rmOIhgAACCCCAAAIIIIAAAnkRIMDNS01TTgQQQAABBBBAAAEEEEDAcwECXM8rmOIhgAACCCCAAAIIIIAAAnkRIMDNS01TTgQQQAABBBBAAAEEEEDAcwECXM8rmOIhgAACCCCAAAIIIIAAAnkRIMDNS01TTgQQQAABBBBAAAEEEEDAcwECXM8rmOIhgAACCCCAAAIIIIAAAnkRIMDNS01TTgQQQAABBBBAAAEEEEDAcwECXM8rmOIhgAACCCCAAAIIIIAAAnkRIMDNS01TTgQQQAABBBBAAAEEEEDAcwECXM8rmOIhgAACCCCAAAIIIIAAAnkRIMDNS01TTgQQQAABBBBAAAEEEEDAcwECXM8rmOIhgAACCCCAAAIIIIAAAnkRIMDNS01TTgQQQAABBBBAAAEEEEDAcwECXM8rmOIhgAACCCCAAAIIIIAAAnkRIMDNS01TTgQQQAABBBBAAAEEEEDAcwECXM8rmOIhgAACCCCAAAIIIIAAAnkRIMDNS01TTgQQQAABBBBAAAEEEEDAcwECXM8rmOIhgAACCCCAAAIIIIAAAnkRIMDNS01TTgQQQAABBBBAAAEEEEDAcwECXM8rmOIhgAACCCCAAAIIIIAAAnkRIMDNS01TTgQQQAABBBBAAAEEEEDAcwECXM8rmOIhgAACCCCAAAIIIIAAAnkRIMDNS01TTgQQQAABBBBAAAEEEEDAcwECXM8rmOIhgAACCCCAAAIIIIAAAnkRIMDNS01TTgQQQAABBBBAAAEEEEDAcwECXM8rmOIhgAACCCCAAAIIIIAAAnkRIMDNS01TTgQQQAABBBBAAAEEEEDAcwECXM8rmOIhgAACCCCAAAIIIIAAAnkRIMDNS01TTgQQQAABBBBAAAEEEEDAcwECXM8rmOIhgAACCCCAAAIIIIAAAnkRIMDNS01TTgQQQAABBBBAAAEEEEDAcwECXM8rmOIhgAACCCCAAAIIIIAAAnkRIMDNS01TTgQQQAABBBBAAAEEEEDAcwECXM8rmOIhgAACCCCAAAIIIIAAAnkRIMDNS01TTgQQQAABBBBAAAEEEEDAcwECXM8rmOIhgAACCCCAAAIIIIAAAnkRIMDNS01TTgQQQAABBBBAAAEEEEDAc4H/D3fBo+A4H5odAAAAAElFTkSuQmCC;" vertex="1" parent="1">
          <mxGeometry x="290.74" y="220" width="119.26" height="116" as="geometry" />
        </mxCell>
      </root>
    </mxGraphModel>
  </diagram>
</mxfile>
